<svg fill="#333" shape-rendering="geometricPrecision" text-rendering="geometricPrecision" image-rendering="optimizeQuality" fill-rule="evenodd" clip-rule="evenodd" viewBox="0 0 512 512" xmlns="http://www.w3.org/2000/svg"><path d="M256 0C114.563 0 0 114.716 0 256c0 141.437 114.716 256 256 256 141.437 0 256-114.716 256-256C512 114.563 397.284 0 256 0zm-2.588 111.508h.354c47.503 0 68.009 2.916 73.422 3.717 32.08 4.74 59.143 29.212 63.32 60.261 2.272 23.064.3 60.602.289 66.762 0 1.811-.264 18.361-.37 20.11-2.81 44.367-30.476 61.886-59.548 67.47-.393.117-.854.198-1.315.29-18.429 3.598-38.176 4.556-56.908 5.081-4.479.12-8.947.12-13.426.12a235.52 235.52 0 0 1-55.293-6.567.62.62 0 0 0-.554.121.62.62 0 0 0-.233.523 67.832 67.832 0 0 0 3.81 17.258c2.509 6.435 11.27 21.895 43.85 21.895a240.049 240.049 0 0 0 56.213-6.569.648.648 0 0 1 .284 0 .638.638 0 0 1 .504.62v21.777a.676.676 0 0 1-.276.523c-6.018 4.362-14.201 6.845-21.19 9.065a126.28 126.28 0 0 1-9.366 2.56 158.807 158.807 0 0 1-86.624-4.57c-26.05-9.143-52.64-31.55-59.209-58.475a317.86 317.86 0 0 1-7.394-44.316c-2.05-22.474-2.222-44.998-3.102-67.564-.618-15.734-.26-32.89 3.063-48.362 6.91-31.418 35.39-53.403 66.578-58.013 5.412-.801 15.605-3.717 63.121-3.717zm-39.635 47.285c-13.517 0-24.408 4.753-32.71 14.012-8.048 9.283-12.073 21.805-12.073 37.566v77.139h30.557v-74.867c0-15.761 6.635-23.8 19.916-23.8 14.687 0 22.056 9.51 22.056 28.292v40.98h30.383v-40.98c0-18.781 7.356-28.291 22.045-28.291 13.36 0 19.93 8.038 19.93 23.799v74.867h30.568v-77.14c.01-15.769-4.006-28.291-12.047-37.566-8.329-9.26-19.218-14.012-32.724-14.012-15.618 0-27.442 6.014-35.324 18.031l-7.62 12.768-7.605-12.768c-7.882-12.017-19.706-18.031-35.352-18.031z"/></svg>