<svg viewBox="20 0 2376 1968" version="1.1" id="svg125" xmlns:xlink="http://www.w3.org/1999/xlink" xmlns="http://www.w3.org/2000/svg"><defs id="defs19"><linearGradient id="linearGradient67"><stop style="stop-color:#f4a32a;stop-opacity:1" offset="0" id="stop63"/><stop style="stop-color:#f8c477;stop-opacity:1" offset=".184" id="stop64"/><stop style="stop-color:#fad59e;stop-opacity:1" offset=".437" id="stop65"/><stop style="stop-color:#f7bc64;stop-opacity:1" offset=".578" id="stop66"/><stop style="stop-color:#f39d1b;stop-opacity:1" offset="1" id="stop67"/></linearGradient><linearGradient id="linearGradient62"><stop style="stop-color:#f6b555;stop-opacity:1" offset="0" id="stop61"/><stop style="stop-color:#e9910c;stop-opacity:1" offset="1" id="stop62"/></linearGradient><linearGradient id="linearGradient18"><stop style="stop-color:#f39d1b;stop-opacity:1" offset="0" id="stop14"/><stop style="stop-color:#f8c477;stop-opacity:1" offset=".184" id="stop15"/><stop style="stop-color:#fad59e;stop-opacity:1" offset=".437" id="stop16"/><stop style="stop-color:#f7bc64;stop-opacity:1" offset=".578" id="stop17"/><stop style="stop-color:#f39d1b;stop-opacity:1" offset="1" id="stop18"/></linearGradient><linearGradient id="linearGradient13"><stop style="stop-color:#90b3f9;stop-opacity:1" offset="0" id="stop10"/><stop style="stop-color:#77a2f8;stop-opacity:1" offset=".193" id="stop12"/><stop style="stop-color:#4b84f6;stop-opacity:1" offset="1" id="stop13"/></linearGradient><linearGradient id="linearGradient58"><stop style="stop-color:#e9910c;stop-opacity:1" offset="0" id="stop54"/><stop style="stop-color:#f8c477;stop-opacity:1" offset=".184" id="stop55"/><stop style="stop-color:#fad59e;stop-opacity:1" offset=".437" id="stop56"/><stop style="stop-color:#f7bc64;stop-opacity:1" offset=".578" id="stop57"/><stop style="stop-color:#e9910c;stop-opacity:1" offset="1" id="stop58"/></linearGradient><linearGradient id="linearGradient53"><stop style="stop-color:#f59300;stop-opacity:1" offset="0" id="stop49"/><stop style="stop-color:#ffb342;stop-opacity:1" offset=".184" id="stop50"/><stop style="stop-color:#ffbe5c;stop-opacity:1" offset=".437" id="stop51"/><stop style="stop-color:#ffb342;stop-opacity:1" offset=".578" id="stop52"/><stop style="stop-color:#f59300;stop-opacity:1" offset="1" id="stop53"/></linearGradient><linearGradient id="linearGradient48"><stop style="stop-color:#f58b00;stop-opacity:1" offset="0" id="stop44"/><stop style="stop-color:#ffad42;stop-opacity:1" offset=".184" id="stop45"/><stop style="stop-color:#ffc880;stop-opacity:1" offset=".437" id="stop46"/><stop style="stop-color:#ffae42;stop-opacity:1" offset=".578" id="stop47"/><stop style="stop-color:#f58b00;stop-opacity:1" offset="1" id="stop48"/></linearGradient><linearGradient id="linearGradient43"><stop style="stop-color:#e89f0d;stop-opacity:1" offset="0" id="stop39"/><stop style="stop-color:#f5bc4c;stop-opacity:1" offset=".184" id="stop40"/><stop style="stop-color:#f7d897;stop-opacity:1" offset=".437" id="stop41"/><stop style="stop-color:#f4bc4d;stop-opacity:1" offset=".578" id="stop42"/><stop style="stop-color:#e8a00d;stop-opacity:1" offset="1" id="stop43"/></linearGradient><linearGradient id="linearGradient38"><stop style="stop-color:#e89f0d;stop-opacity:1" offset="0" id="stop34"/><stop style="stop-color:#f5bc4c;stop-opacity:1" offset=".26" id="stop35"/><stop style="stop-color:#f7d897;stop-opacity:1" offset=".437" id="stop36"/><stop style="stop-color:#f4bc4d;stop-opacity:1" offset=".578" id="stop37"/><stop style="stop-color:#e8a00d;stop-opacity:1" offset="1" id="stop38"/></linearGradient><linearGradient id="linearGradient33"><stop style="stop-color:#90b3f9;stop-opacity:1" offset="0" id="stop31"/><stop style="stop-color:#77a2f8;stop-opacity:1" offset=".193" id="stop32"/><stop style="stop-color:#4b84f6;stop-opacity:1" offset="1" id="stop33"/></linearGradient><linearGradient id="linearGradient25"><stop style="stop-color:#f59b00;stop-opacity:1" offset="0" id="stop21"/><stop style="stop-color:#ffcd75;stop-opacity:1" offset=".26" id="stop22"/><stop style="stop-color:#ffda99;stop-opacity:1" offset=".437" id="stop23"/><stop style="stop-color:#ffba42;stop-opacity:1" offset=".667" id="stop24"/><stop style="stop-color:#f59b00;stop-opacity:1" offset="1" id="stop25"/></linearGradient><linearGradient id="linearGradient138"><stop style="stop-color:#8a9cff;stop-opacity:1" offset="0" id="stop139"/><stop style="stop-color:#7088ff;stop-opacity:1" offset=".193" id="stop141"/><stop style="stop-color:#4261ff;stop-opacity:1" offset="1" id="stop140"/></linearGradient><linearGradient id="linearGradient132"><stop style="stop-color:#e89f0d;stop-opacity:1" offset="0" id="stop132"/><stop style="stop-color:#f8ce7c;stop-opacity:1" offset=".26" id="stop136"/><stop style="stop-color:#f9db9f;stop-opacity:1" offset=".437" id="stop135"/><stop style="stop-color:#f4bc4d;stop-opacity:1" offset=".578" id="stop137"/><stop style="stop-color:#e8a00d;stop-opacity:1" offset="1" id="stop133"/></linearGradient><linearGradient id="linearGradient127"><stop style="stop-color:#f6b555;stop-opacity:1" offset=".214" id="stop138"/><stop style="stop-color:#e9910c;stop-opacity:1" offset="1" id="stop127"/></linearGradient><linearGradient id="linear-gradient" x1="2210.74" y1="1646.05" x2="2210.88" y2="1268.76" gradientUnits="userSpaceOnUse"><stop offset="0" stop-color="#248af0" id="stop1"/><stop offset="1" stop-color="#d6eafe" id="stop2"/></linearGradient><linearGradient id="linear-gradient-2" x1="1873.97" y1="1645.92" x2="1874.11" y2="1268.63" xlink:href="#linear-gradient"/><linearGradient id="linear-gradient-3" x1="1619.93" y1="1251.33" x2="1646.87" y2="1724.82" gradientUnits="userSpaceOnUse"><stop offset="0" stop-color="#af742c" id="stop3"/><stop offset=".44" stop-color="#eac143" id="stop4"/><stop offset="1" stop-color="#b17832" id="stop5"/></linearGradient><linearGradient id="linear-gradient-4" x1="1372.86" y1="1265.38" x2="1399.8" y2="1738.88" xlink:href="#linear-gradient-3"/><linearGradient id="linear-gradient-5" x1="1062.61" y1="1283.03" x2="1089.54" y2="1756.53" xlink:href="#linear-gradient-3"/><linearGradient id="linear-gradient-6" x1="727.47" y1="1302.1" x2="754.4" y2="1775.59" xlink:href="#linear-gradient-3"/><linearGradient id="linear-gradient-7" x1="325.24" y1="1324.98" x2="352.18" y2="1798.47" xlink:href="#linear-gradient-3"/><linearGradient id="linear-gradient-8" x1="178.33" y1="1203.97" x2="371.45" y2="1137.09" gradientUnits="userSpaceOnUse"><stop offset="0" stop-color="#e09603" id="stop6"/><stop offset=".57" stop-color="#fbdfa8" id="stop7"/><stop offset="1" stop-color="#e09603" id="stop8"/></linearGradient><linearGradient id="linear-gradient-9" x1="269.923" y1="1073.439" x2="343.94" y2="1309.004" gradientUnits="userSpaceOnUse"><stop offset="0" stop-color="#e09603" id="stop9" style="stop-color:#f7c96e;stop-opacity:1"/><stop offset="1" stop-color="#e09603" id="stop11" style="stop-color:#d9940d;stop-opacity:1"/></linearGradient><linearGradient xlink:href="#linearGradient62" id="linearGradient128" x1="1628.043" y1="1225.672" x2="1655.263" y2="1770.592" gradientUnits="userSpaceOnUse" gradientTransform="translate(-20.545 2.086)"/><linearGradient xlink:href="#linearGradient67" id="linearGradient131" x1="323.09" y1="1306.202" x2="620.477" y2="1211.861" gradientUnits="userSpaceOnUse" gradientTransform="matrix(.996 0 0 .996 -137.749 22.957)"/><linearGradient xlink:href="#linearGradient18" id="linearGradient133" x1="133.221" y1="1198.614" x2="480.163" y2="1095.733" gradientUnits="userSpaceOnUse" gradientTransform="translate(-20.545 2.086)"/><linearGradient xlink:href="#linearGradient33" id="linearGradient140" x1="2192.924" y1="1354.676" x2="2266.612" y2="1670.081" gradientUnits="userSpaceOnUse" gradientTransform="translate(-20.545 2.086)"/><linearGradient xlink:href="#linearGradient13" id="linearGradient31" gradientUnits="userSpaceOnUse" gradientTransform="translate(-20.545 2.086)" x1="2003.772" y1="1243.953" x2="2072.846" y2="1619.333"/><linearGradient xlink:href="#linearGradient62" id="linearGradient57" gradientUnits="userSpaceOnUse" gradientTransform="translate(-20.545 2.086)" x1="794.896" y1="1348.194" x2="783.609" y2="1697.079"/><linearGradient xlink:href="#linearGradient62" id="linearGradient59" gradientUnits="userSpaceOnUse" gradientTransform="translate(-20.545 2.086)" x1="427.331" y1="1260.679" x2="405.543" y2="1760.09"/><linearGradient xlink:href="#linearGradient62" id="linearGradient60" gradientUnits="userSpaceOnUse" gradientTransform="translate(-20.545 2.086)" x1="1046.94" y1="1351.695" x2="1046.156" y2="1732.085"/><linearGradient xlink:href="#linearGradient62" id="linearGradient61" gradientUnits="userSpaceOnUse" gradientTransform="translate(-20.545 2.086)" x1="1407.504" y1="1348.194" x2="1399.718" y2="1721.583"/><clipPath id="clip-path" transform="translate(-801.89 -183.03)"><path class="cls-1" d="M3077.26 1570.71c-40.63-2.86-58.49 15.44-65.35 36-4.65-15.58-9-31.23-13-46.89-3.91-.21-7.83-.48-11.5-.69q-46.5 18.21-93.72 35.29l.24.91c8.56 2.37 29.95 11.92 38.91 48.49 10.37 42.33 20.9 84.68 31.32 127.05 5.34 21.71 7.55 36.08 6.77 45.44 1.24 19.24-5.15 24.3-18.59 24.45l.32 1.39c52.91 8.21 106.06 16.42 159.69 25.7-.13-.55-.25-1.11-.37-1.67-24.23-7-35.52-19.84-50.17-73.93-10.8-39.9-22.63-79.74-32.3-120.06a85.18 85.18 0 0 1-2.6-25.06c-1.3-21.73 6.93-38.53 31.47-36.36 35.73 3.16 50.91 34.24 57.76 60.31 5.47 1.63 10.47 3.19 15.46 4.75q-2.4-45.08-5.43-90.64a113 113 0 0 0-48.94-14.53" id="path11"/></clipPath><clipPath id="clip-path-2" transform="translate(-801.89 -183.03)"><path class="cls-1" d="M2822.75 1733.3c2 45.25-28 62-78.32 57-67-6.66-97.63-45.7-105.73-95.45q-7.3-45-14.44-90.08-7.14-44.94-14.44-90.08c-2.62-16.35-3.74-28.26-3.29-36.94-.94-22.54 5.08-29 18.44-31.12l-.22-.91c-46.92-.56-94.08-.91-141.24-1.32v.41c20.07 2.87 28 12.7 34.27 59.33 3.56 26.68 7 53.41 10.52 80 3.52 26.59 7.19 53.3 10.77 79.94 11.34 84.34 68.31 143.33 200.19 156.6 43.9 4.42 126.53 4.88 129.06-79.3a197.55 197.55 0 0 0-5-37c-6.78-30.41-13.7-60.81-20.55-91.2-6.85-30.39-13.28-60.9-20.07-91.33-4.76-21.36-6.73-35.59-6-45.1-1.07-18.8 4.35-24.71 15.73-26.73l-.38-1.69-91.95-1.33.17 1c19.82 3.14 28.87 13.76 39.15 63.8 6.61 32.14 13.23 64.41 20.07 96.43 6.84 32.02 13.87 64.24 20.56 96.3a115 115 0 0 1 2.7 28.7" id="path12"/></clipPath><clipPath id="clip-path-3" transform="translate(-801.89 -183.03)"><path class="cls-1" d="M2498.72 1903.69q-14.4-124.2-28.39-248.43c-9.3-82.83-19.34-165.62-28.88-248.5h-10.52c-31.3 12.24-63.07 24.21-95.08 36.1 8.46 1.88 25.87 9.64 28.51 40.36 5.83 67.65 12.12 135.28 18.11 202.86 5.99 67.58 12 135.3 18.11 202.8a210 210 0 0 1 1.06 25.08c.84 30.59-6.8 37.62-25.06 38.54v.25c53.28 3.89 106.32 7.78 159.84 12.63v-.33c-23.25-5-32.36-15.37-37.69-61.36" id="path13"/></clipPath><clipPath id="clip-path-4" transform="translate(-801.89 -183.03)"><path class="cls-1" d="M2118.12 1710.46c-2.56-24.09 15.19-45.47 93.53-44.71h2.45c.73 22.85 1.71 45.7 2.69 68.48l-.34.28.34 8c-9.79 8.17-26.68 12.65-45 12.57-28.88-.12-50.78-11.68-53.6-35.92a37.6 37.6 0 0 1 0-8.74m191.67 17.06q-3.16-46.65-6.37-93.43c-5.43-78.42-60-96.18-129-96.65-53.35-.36-93.24 15.59-104.74 19.5v44c2.93 0 5.87 0 8.81.07 9.79-13.35 37.93-37.55 76.11-37.32 56 .33 56.94 41 57.75 60.38q.26 6 .25 12h-.12q.12 4.15.12 8.31c-100.66.21-177.24 12.07-180.5 73.71 3 56.59 66.41 67.3 109 67.59 35.73.25 61.67-9.85 77.09-18.23.24 4.82.49 9.64.73 14.39 40.63 1.18 81.75 2.43 122.63 3.61v-.19c-20.82-3.05-28.8-12.77-31.83-57.7z" id="path14"/></clipPath><clipPath id="clip-path-5" transform="translate(-801.89 -183.03)"><path class="cls-1" d="M1960.8 1542.68v.15c8.67 2.67 19.32 9.6 16.43 22.88.93 3.74.59 8.24-1.74 13.59-17.86 40.88-38.91 80.64-58.74 121.11-16.15-38.3-32-76.39-46.74-114.89-2.61-6.8-3.11-12.18-2.29-16.49-2.62-16.3 9.6-21.93 17.46-25.51v-.06c-47.88.69-95.77 1.39-143.9 2.44v.52c10.79 3.68 21.74 7.22 30.14 29.18 13.45 35.16 27.54 70.21 41.85 105 14.31 34.79 29.86 69.33 45.52 103.78.73 0 1-.07 1.71-.07-1 1.83-2 3.65-3 5.47l1.32 2.91c.73 0 1-.07 1.71-.07-22.76 41.79-53.11 82.45-89.57 84.35-34.76 1.8-45.76-17.89-50.66-30.68-4.16 1.12-8.33 2.18-12.5 3.24 2 22.67 4.2 45.38 6.39 68 9.3 3.29 23.72 5.91 44.54 4.82 76.59-4 117.67-68.6 155.64-139.83 18.32-34.37 35.67-69.37 52.87-104.12 17.07-34.5 34.48-69.15 50.65-103.78 12.46-26.66 22.52-28.79 33.78-32.35v-.08c-30.35.21-60.45.42-90.8.56" id="path15"/></clipPath><clipPath id="clip-path-6" transform="translate(-801.89 -183.03)"><path class="cls-1" d="M1469.18 1690.29v-2.88c-.37-53.81 22-103.63 70.73-110.13 52.81-7 72.22 31.75 74.89 83.51.27 5.34.37 10.62.26 15.82 1 49.61-14.67 92.73-67.56 101.22-55.81 9-78-28.44-78.32-82.11v-5.43m98.59-145c-108.18 3.55-181.42 70.36-197.74 155.35a147 147 0 0 0-2.64 22.67c2.51 68.73 67.24 94.11 149.23 87 116.91-10.18 188.64-72.87 196.27-151.78.32-3.27.51-6.47.61-9.61-2.33-72.99-66.5-106.18-145.73-103.58z" id="path16"/></clipPath><clipPath id="clip-path-7" transform="translate(-801.89 -183.03)"><path class="cls-1" d="M1142.67 1484.06c41.6-.87 60.31 15.41 58.52 49q.78 13.43-3.7 31.32c-14.44 58.07-61.92 92-101.32 99l2.42-8.78c-.81.17-1.62.32-2.42.47q11.76-42.68 23.25-85.47c7.71-28.48 15.67-57.09 23.25-85.6M1265 1728.43c-21.08-37.11-42.1-70.09-59.47-78.13 2.52-1.06 5-2.22 7.58-3.46a37 37 0 0 0-7.58-4.85c38.18-16.15 79.56-53.09 89.08-96.09a122.85 122.85 0 0 0 2.9-21.21c-2.22-49.56-45.38-75.55-126.49-74.18-44.78.75-89.08 1.61-133.38 2.44-.26 1-.53 1.94-.82 2.9 9.36 2.09 13.92 7.58 12.75 23 1 10.3-2.32 27.36-10.7 55.76q-20.24 68.54-40.87 137.1c-13.84 45.74-27.19 91.48-40.87 137.11-16.91 56.39-28.63 69.53-51.64 76.38-.18.67-.37 1.34-.56 2 55.17-9.42 110.33-18.91 165.26-27.71.18-.6.35-1.21.51-1.81-13.32-.16-19.57-5-18.26-23.16-.91-9.65 1.84-25.08 8.45-49.24 10.37-37.93 20.56-75.9 30.84-113.91 3.43-.28 6.61-.62 10.52-1 28.39-2.64 33.78 15.62 65.83 94.9 26.93 66.58 52.13 72.52 108.66 65.34 30.35-3.86 60.45-7.41 90.55-10.62.06-.36.12-.73.19-1.09-26.17-1.9-59.48-14.9-102.48-90.47Z" id="path17"/></clipPath><clipPath id="clip-path-8" transform="translate(-801.89 -183.03)"><path class="cls-1" d="m1124.78 1438-.66.15-.62.25v-.11L996 1466.5c-28.63-46-66.25-81-109.75-108.71l42-9.43c20.82 48 76.18 7.73 46-18 3.58-8.6 9.55-29.11 9.55-29.11 1.92.1 23 4 33.87 4.35 6.15 43.43 63.2 19.27 37.38-19.44l13.74-25.23.47-.86.87.44 25.57 13.12c.47 46.52 61.21 34.36 41.84-5 8.8-6.43 24-21.51 25.54-22.67 0 0 16.47 13.58 24.28 18.68-10.47 38.31 58 40.44 48.13-11l40-15.83c-20.32 47.43-31.72 97.51-29.47 151.64l-121.19 48.44z" id="path18"/></clipPath><clipPath id="clip-path-9" transform="translate(-801.89 -183.03)"><path class="cls-1" d="M984.6 1472.43c88-46.65 183.46-73.19 283.44-87.4 9.57 10.59 21 44.77 18.55 60.16-98.39 13.59-193.71 39.39-283.44 87.4-11.15-14.26-24-44.45-18.55-60.16" id="path19"/></clipPath><style id="style19">.cls-1{fill:none;clip-rule:evenodd}.cls-2{fill:#fff}.cls-10,.cls-11,.cls-12,.cls-13,.cls-14,.cls-2,.cls-3,.cls-4,.cls-5,.cls-6,.cls-9{fill-rule:evenodd}.cls-4{fill:#302e2e}.cls-5{fill:#dedbdb}.cls-6{fill:#999}.cls-9{fill:#f5dfca}.cls-10{fill:#fff8f2}.cls-11{fill:#dda58e}.cls-12{fill:#000cf1}.cls-13{fill:#e61211}.cls-14{fill:#1d45f2}</style></defs><path id="path252" style="display:inline;fill:#dedbdb;fill-opacity:1" class="cls-3" d="M971.3 58.28c-26.444 16.368-50.83 36.002-72.765 58.032-15.448 15.506-29.629 32.256-42.564 49.907-5.32 7.207-10.681 14.382-16.027 21.57-22.525 30.99-37.493 67.557-42.474 105.583-1.186 8.895-2.055 17.86-1.963 26.842.256 7.135 2.175 14.056 3.381 21.06.579 3.07 1.163 6.14 1.747 9.209-10.15 7.934-18.968 17.934-24.176 29.812-3.3 7.508-5.55 15.432-7.41 23.405-5.444 24.63-4.455 50.424 1.237 74.916 7.634 32.794 24.538 63.605 49.101 86.762 2.1 1.974 4.251 3.893 6.45 5.757-6.435 2.055-13.05 3.57-19.767 4.326-.48.052-1.15.125-1.677.169-9.199.897-18.533.132-27.5-2.082-4.572-.974-9.562-.43-13.573 2.073-6 3.617-9.628 10.902-8.613 17.874.464 3.368 2.036 6.413 3.077 9.612 3.967 10.968 7.718 22.12 13.65 32.226 3.29 5.725 7.515 10.88 10.423 16.83.351.7.674 1.415.981 2.136-24.319 44.955-41.6 93.628-51.841 143.677-10.075 49.256-13.579 99.835-10.618 150.018 2.16 35.786 7.653 71.41 17.015 106.032a452.065 452.065 0 0 0 11.509 36.129l-30.745 224.183c-42.193 7.966-75.828 24.87-117.52 47.53-27.386-32.237-52.654-59.817-80.04-92.055.978-6.914.91-13.98-.002-20.876-1.58-14.107-5.594-27.85-10.852-41-4.387-10.701-9.965-21.073-17.774-29.687a622.73 622.73 0 0 0-8.949-9.83c-.46-.444-.955-.849-1.482-1.21 6.175-52.42 29.292-118.131 38.744-160.113-47.545 11.4-78.003 25.452-122.99 40.052-8.215-6.364-16.122-13.11-24.188-19.657-3.882-3.19-9.685-4.46-13.567-7.65-8.937 7.277-16.621 11.787-25.372 19.296-7.755 7.12-15.187 14.659-23.74 20.845-19.628-10.07-38.616-16.937-55.684-22.528-10.499 12.973-24.238 31.04-34.771 50.393-3.46-.106-7.09-.372-10.42-.748-1.496-.175-2.99-.371-4.481-.588-6.355-.86-12.657-2.093-19.03-2.807-2.97-.276-15.959.835-29.97 2.122-4.511 14.699-13.017 31.632-17.72 46.273-50.56 11.37-86.34 20.029-118.35 33.959 50.063 39.023 112.993 85.828 126.395 116.094-2.403 8.323-2.813 17.107-1.995 25.699 1.209 12.833 5.09 25.273 10.101 37.1 5.336 12.354 12.434 23.93 20.941 34.355l1.372 1.75c-17.712 59.906-35.85 119.702-53.578 179.61-5.853 19.656-11.628 39.31-17.696 58.889-2.988 9.118-6.238 18.222-10.926 26.624-.826 1.34-1.64 2.753-2.73 3.883-3.33 1.15-6.73 2.128-10.092 3.14-5.738 1.708-11.475 3.417-17.212 5.127-3.431 12.775-6.864 25.55-10.569 38.25-5.237 18.886-10.404 37.792-15.622 56.684 84.687 28.043 169.374 56.088 254.062 84.129 65.084-11.11 130.144-22.327 195.344-32.711 1.03-.094 2.042-.33 2.921-.901.481-1.223.741-2.62 1.145-3.91 3.443-12.18 7.402-24.27 9.797-36.74l2.615-12.187c16.677 9.194 33.31 18.47 50.067 27.514 6.656 3.318 13.73 5.828 21.05 7.19 15.174 3.062 30.808 2.476 46.113.798 11.687-1.3 23.353-2.944 35.006-4.248 25.073-3.005 63.218-8.26 72.305-10.142l72.74-1.48c22.062-.557 45.585-3.031 63.2-5.145 25.068 13.358 51.517 45.883 76.955 73.898 12.013 4.01 23.906 9.096 36.573 10.88 13.255 2.08 26.767 2.088 40.11.918 23.49-2.32 46.402-10.507 65.935-23.782 17.865-12 37.451-23.858 50.407-40.95 17.246-22.638 29.604-38.44 42.844-63.552 5.794-11.016 10.634-22.98 16.994-26.927 6.016 3.813 8.175 10.919 17.326 19.748 11.503 11.296 25.905 19.368 41.155 24.417 18.745 6.408 38.565 9.26 58.329 9.677 10.541.272 21.12-.174 31.546-1.818 3.424-.495 6.825-1.186 10.22-1.813 3.82.352 7.661.208 11.487.423 17.648.503 35.294 1.083 52.944 1.46 2.26.023 4.403-1.046 6.672-.785l52.907 1.535 3.006 33.994-21.383 25.375c2.095 24.272 4.185 48.543 6.278 72.815 125.276 8.197 250.25 18.85 374.591 36.42 21.73 3.21 43.377 6.95 65.036 10.6 21.306-.757 40.404 10.064 63.963 12.504 11.52.875 23.207-.278 34.285-3.584l21-5.558c11.476 12.866 26.45 22.392 42.642 28.167 10.078 3.705 20.569 6.395 31.258 7.524 9.039.81 18.15-.262 26.962-2.3 74.197-11.272 128.714-24.316 201.647-41.912 11.655-4.6 31.12-13.79 40.052-20.526 5.61-6.247 16.146-21.528 18.36-30.971 2.339-8.66 4.022-22.244 2.914-33.11-29.471-57.093-9.224-143.111-30.265-186.742-27.329-45.615-19.883-100.72 9.04-112.68 16.614-25.868 19.046-121.02 4.441-166.468-12.634-12.87-29.825-21.235-44.88-27.012-23.983-9.29-54.146-11.087-79.73-8.205-11.536 4.49-8.064-5.712-15.68-10.677-8.516-5.094-26.83-1.62-44.705-2.525-4.579.05-17.696 4.045-21.875 5.593-26.984 10.478-50.755 14.747-77.939 24.695-24.072 7.267-14.27-22.34-20.828-35.503l21.24-20.935-19.357-85.211-172.352-2.352c-8.985 11.709-17.973 23.415-26.96 35.123-2.088-9.093-4.53-18.101-6.597-27.2-.887-4.73-5.451-8.234-10.178-8.383-5.437.05-10.88-.097-16.319-.128-11.713-.132-23.426-.25-35.14-.37 2.849-3.152 5.669-6.346 8.222-9.741 2.547-4.137 3.458-8.975 5.01-13.516 6.863-22.542 11.028-45.942 11.854-69.505.206-3.463.472-7.066-.814-10.372-1.32-3.586-4.035-6.393-6.6-9.13 11.413 10.959 22.898 21.856 34.977 32.083l5.514 4.745c52.46-25.475 104.808-51.173 157.086-77.02 6.978-3.62 13.484-8.051 20.154-12.193 1.564-25.131.26-50.32 1.041-75.47.014-2.157.36-4.36-.135-6.483-.537-2.2-2.016-4.064-3.871-5.317-30.389-24.994-60.848-49.904-91.267-74.862-22.72-18.62-45.435-37.245-68.17-55.846-5.666-4.284-11.56-8.253-17.223-12.542-49.444 19.728-98.952 39.29-148.261 59.349-9.215 4.049-18.248 8.49-27.354 12.774l-.246 55.698c-9.24 3.878-18.481 7.753-27.727 11.619-11.662-12.29-23.299-24.604-35.002-36.85-3.858-3.584-9.97-4.246-14.612-1.852-1.397.533-1.602 1.407-4.19 1.6-3.563.213-42.495-61.962-63.893-92.834-5.143-6.017-9.43-12.691-14.173-19.014-.152-.42-1.021-.885-.499-1.258 15.169-15.81 26.93-34.811 34.604-55.32 8.328-22.042 12.076-45.69 11.894-69.216-.13-27.485-5.363-54.763-13.678-80.9-.636-2.085-1.367-4.205-1.881-6.363-.47-25.037-5.458-50.024-15.034-73.182a148.309 148.309 0 0 0-1.345-3.175c15.875-26.278 24.779-56.681 25.784-87.355.657-19.91-2.08-40.077-9.248-58.724-2.575-6.68-5.923-13.113-10.443-18.692-5.185-6.568-11.352-12.338-18.09-17.285a82.62 82.62 0 0 0-5.786-3.787c-3.21-33.943-7.39-67.913-15.605-101.053-5.709-22.898-13.538-45.478-25.587-65.864-10.497-17.833-24.392-33.627-40.61-46.468-5.195-4.185-10.595-8.107-16.02-11.988-9.95-15.177-22.545-28.522-36.654-39.894-14.324-11.55-30.114-21.21-46.61-29.323-26.006-12.73-53.834-21.522-82.197-27.18-27.013-5.334-47.298-8.13-82.103-7.396C1045.715 6.47 997.551 39.32 971.3 58.28Zm490.974 1264.867c.058.416.644 1.48.03 1.44-.36-.3-1.668-.425-.861-.943.256-.133.542-.923.831-.497z"/><path id="path166" style="display:inline" class="cls-3" d="M1143.863 21.679a424.097 424.097 0 0 0-23.11 2.806 370.467 370.467 0 0 0-25.811 4.849c-11.399 2.542-22.668 5.65-33.78 9.24-17.742 5.768-35.227 12.923-51.95 21.356a361.116 361.116 0 0 0-33.145 18.965c-27.039 17.478-51.706 38.539-73.586 62.138a313.723 313.723 0 0 0-7.156 7.93c-5.83 6.678-11.436 13.6-16.852 20.553-6.275 8.132-12.188 16.709-18.554 24.889a218.758 218.758 0 0 0-27.966 47.832c-.59 1.427-1.276 3.06-1.87 4.58a205.15 205.15 0 0 0-5.996 17.272c-3.264 10.893-5.533 22.068-7.016 33.337a225.69 225.69 0 0 0-1.525 17.004c-.12 2.674-.299 5.332.155 8.02.73 4.945 1.894 9.752 2.753 14.698 1.418 7.477 2.845 14.952 4.279 22.427-7.771 4.604-15.083 10.194-20.754 17.28-3.576 4.22-6.516 9.012-8.348 14.246a119.527 119.527 0 0 0-3.798 11.648c-2.58 9.578-3.951 19.463-4.302 29.37a150.942 150.942 0 0 0 .128 13.52c.14 2.5.323 4.85.56 7.283a167.732 167.732 0 0 0 2.271 15.422c.269 1.33.59 2.893.91 4.305a162.016 162.016 0 0 0 7.592 24.54 170.03 170.03 0 0 0 2.172 5.166 156.169 156.169 0 0 0 10.436 19.743 212.74 212.74 0 0 0 2.194 3.405c8.836 13.334 19.84 25.253 32.593 34.926 3.172 2.434 6.48 4.684 9.807 6.895 2.438 1.64 3.974 4.597 3.622 7.55-.232 2.84-2.074 5.423-4.632 6.656-3.833 2.02-7.72 3.975-11.83 5.379-8.186 2.92-34.638 13.756-65.72 6.838 4.911 13.103 7.973 23.806 14.801 34.344 5.534 7.949 9.497 14.372 11.98 21.316 1.541 3.956 2.327 7.602.035 10.642-8.853 16.105-16.855 32.68-23.831 49.685a494.64 494.64 0 0 0-8.855 23.133 503.625 503.625 0 0 0-5.89 17.618 525.034 525.034 0 0 0-8.343 29.622 536.425 536.425 0 0 0-10.651 54.683c-1.739 12.198-3.025 24.446-3.959 36.77a593.835 593.835 0 0 0-1.103 18.618 562.624 562.624 0 0 0-.326 37.126c.144 6.166.411 12.513.776 18.687.3 5.167.697 10.444 1.146 15.66.55 6.12 1.197 12.41 1.96 18.536 3.306 26.882 8.596 53.55 16.423 79.49 2.381 7.895 5.008 15.823 7.882 23.595.732 1.925 1.592 3.887 1.46 5.997-.081 2.046-.556 4.053-.768 6.088l-42.426 309.49c58.526 5.442 117.051 10.88 175.577 16.323.427 12.9-.454 25.888-3.304 38.495-2.28 10.017-5.407 19.814-8.167 29.703-.504 1.758-1.218 3.669-.467 5.466.83 2.433 3.22 4.473 5.893 4.2 1.335-.04 2.65-.296 3.95-.58.335-.077 1.044-.24 1.53-.358 4.073-.94 8.176-1.748 12.254-2.666 6.055-1.327 12.011-2.686 18.015-4.291 6.107-1.647 12.248-3.587 18.396-5.366 3.916-1.155 7.832-2.312 11.747-3.47-40.322 69.21-80.65 138.418-120.974 207.627 14.38 2.327 28.836 4.568 43.428 5.29 31.131 1.445 62.327.038 93.452-1.546 28.329-1.43 56.697-3.33 85.079-4.182 26.426-29.276 54.561-56.941 82.846-84.405 39.393-38.052 79.838-75.031 121.616-110.455 25.645-21.618 51.852-42.618 79.335-61.867 14.254-9.894 28.907-19.29 44.396-27.146 7.755-3.881 15.885-7.074 24.338-9.06 3.12-.808 6.258-1.547 9.383-2.336 2.553-22.815 4.806-45.6 6.705-68.48 24.1-12.053 48.248-24.008 72.369-36.02 9.926 8.287 20.156 16.476 31.92 22.023 3.551 1.6 7.178 3.053 10.884 4.258 2.546.946 5.31 1.123 7.99.76 1.38-.17 2.535-.388 3.893-.684 7.777-1.702 15.595-3.96 23.164-6.631 13.496-4.736 26.59-10.52 39.569-16.58 20.793-9.796 40.939-20.882 61.316-31.494 3.193-1.287 6.646-1.681 9.914-2.728a129.15 129.15 0 0 0 7.737-2.438c2.1-.745 4.369-1.585 6.495-2.467 14.728-5.992 28.378-14.366 41.132-23.806a253.603 253.603 0 0 0 18.927-15.561c7.434-6.734 14.648-14.062 21.36-21.661 1.137-1.326 2.34-2.617 3.422-3.977a290.878 290.878 0 0 0 3.955-12.72c2.79-9.834 5.139-19.98 6.808-30.134a246.005 246.005 0 0 0 2.131-17.031c.108-1.383.257-3.002.347-4.48.266-3.721.414-7.58.606-11.376a188.5 188.5 0 0 0-15.533-15.666 160.108 160.108 0 0 0-6.93-5.88c-2-1.37-3.505-3.497-3.869-5.92-.563-3.09.97-6.368 3.64-7.996 1.74-1.073 3.702-1.72 5.53-2.628l24.086-10.94c13.92 13.28 27.69 26.718 41.83 39.767 2.376 2.152 4.83 4.217 7.256 6.312 41.007-19.854 81.854-40.035 122.752-60.11 8.558-4.227 17.147-8.397 25.629-12.773 2.526-1.578 3.752-2.376 6.28-3.954.91-22.773-.266-40.44.518-63.218l-150.775-123.63c-2.605-2.15-5.17-4.358-7.976-6.248l-4.752-3.397a28060.28 28060.28 0 0 0-133.34 53.282 267.431 267.431 0 0 0-9.736 4.24c-3.255 1.515-6.486 3.078-9.733 4.609l-.246 56.344c-17.536 7.37-35.06 14.764-52.635 22.043-12.445-12.74-24.43-25.916-36.814-38.714-6.187-6.691-4.21-1.96-20.698.247-7.122.776-46.6-67.568-70.48-102.287-2.378-2.76-4.697-5.577-6.708-8.62-6.482-8.933-12.963-17.867-19.446-26.8 5.144-4.533 10.207-9.175 14.801-14.273 12.723-13.91 22.355-30.523 28.73-48.233 2.72-7.564 4.888-15.53 6.429-23.494.31-1.55.555-2.965.833-4.553a180.059 180.059 0 0 0 2.115-18.566c.124-2.002.225-4.205.286-6.288.339-11.887-.405-23.793-2.02-35.572-.234-1.623-.494-3.465-.772-5.167-1.909-11.988-4.748-23.983-8.234-35.686-1.323-4.432-2.79-8.807-4.198-13.242-.501-2.308-.178-4.686-.366-7.024-.69-20.946-4.852-41.821-12.736-61.26-1.632-4.065-3.457-8.215-5.33-12.24l-.915-1.976c1.423-2.133 2.806-4.218 4.137-6.352a181.887 181.887 0 0 0 3.312-5.54 158.644 158.644 0 0 0 10.551-22.282 162.163 162.163 0 0 0 3.853-11.401 163.9 163.9 0 0 0 5.547-26.761c.167-1.397.346-3.028.484-4.52.565-6.06.794-12.03.665-18.11-.012-.836-.05-1.818-.079-2.597-.673-15.022-3.542-30.082-9.651-43.88-1.847-4.391-4.696-8.277-7.831-11.833-.417-.456-1.047-1.162-1.56-1.697-3.458-3.674-7.206-7.095-11.4-9.915-3.787-2.63-7.882-4.773-12.05-6.727-1.339-14.943-2.769-29.955-4.637-44.823a698.29 698.29 0 0 0-2.572-18.632c-1.55-10.194-3.35-20.407-5.47-30.543-2.94-13.99-6.583-28.12-11.373-41.72-5.765-16.313-13.33-32.113-23.649-46.058-8.188-11.242-18.124-21.144-29.066-29.704-5.204-4.165-10.678-7.978-16.1-11.845-1.889-1.74-2.908-4.157-4.445-6.176-10.267-15.042-23.586-27.82-38.254-38.53-11.344-8.288-23.667-15.54-36.373-21.697a300.295 300.295 0 0 0-8.2-3.808 298.142 298.142 0 0 0-22.693-8.943c-3.754-1.29-7.678-2.594-11.535-3.775a337.756 337.756 0 0 0-35.637-8.84c-7.048-1.358-14.14-2.475-21.256-3.412-1.646-.2-3.506-.443-5.239-.638a388.36 388.36 0 0 0-19.3-1.74c-5.429-.342-10.917-.596-16.291-.701-16.817-.75-27.736-.18-41.41 1.394z"/><g id="g165" style="display:inline" transform="translate(-20.545 2.086)"><path class="cls-3" d="m806.76 1066.23 296.92 355.65-341.33-31.71z" id="path22"/><path class="cls-4" d="m811.8 1083.8-41.09 299.72 315.83 29.35z" id="path23"/><path class="cls-4" d="m1011.97 939.72 474.57-136.13c43.88 47.14 84.08 113.91 124 182l-196 149.55c1.65 54.37 13.19 112.45 16.43 167.76 1.46 25-4.59 47.73-3.85 72.32-123.63 37.23-266.58 73.357-396.73 62.357-9.526-155.846-8.943-342.057-18.49-497.917" id="path24"/><path class="cls-5" d="M854.11 316.41c6.3-67.4 42.81-120.72 75.69-164.37 154.74-153.33 394.23-146 480.4-22 68.2 37.89 77.36 129.76 89.88 222 3.58 53.14 7.28 107.25 10.86 160.39 11.84 24.79 20.12 51.38 21.86 84.31 31.73 90.76 8 156.27-39.58 194.91-5.84 65.23-25.68 148.14-57.85 183.54-51.59 113.08-145.59 179.67-262.42 249.69-69.41 29.64-118.12 240.76-235.17 246 31.32-141.08-126-220.83-123.5-379.5-50.34-147.37-31.54-288.79 36.45-439.47 1.6-3.53-34.39-44.68-34.39-44.68 4.75-3.69 69-4.73 75.46-12.62q6.62-8 13.67-16c-19.57-87.64-31.71-174.57-51.36-262.2" id="path25"/><path class="cls-2" d="m1188.23 508.97-25.6 59.43c75-16.63 147.81 71.92 213.66 39.11-71-147.13-40-26.59-188.06-98.54m-282.72 69.61q-2.22-9.87-4.31-19.75l48.54-10.66c13.7 10.53 32.58 18.85 46.29 29.38-87.7-12-98.88 60-169.87 34.67 68.42-18.84 52.19-3.09 79.35-33.64" id="path26"/><path class="cls-6" d="M993.88 581.35c46.46-6.3 121.23-10.71 167.68-17-14 19-37.25 48.59-63.63 61.44 7.09 32.17 144.59 76.85 270-8-69.53 112.94-275.52 68.84-310.09 3-40 66.17-166.63 76.56-229.94-6.25 52.55 51 136.5 49.14 172.5 20.15 16.29-13-12.92-20.25-6.54-53.39" id="path27"/><path class="cls-6" d="M1489.77 280.1c4 23.29 7.05 47.58 10.35 71.91 3.58 53.14 7.28 107.25 10.86 160.39 11.84 24.79 20.12 51.38 21.86 84.31 31.73 90.76 8 156.27-39.58 194.9-5.85 65.24-25.68 148.14-57.85 183.55-51.59 113.08-145.59 179.67-262.42 249.69-69.41 29.64-118.12 240.76-235.17 246 31.32-141.08-126-220.83-123.5-379.5-35.38-103.58-46.265-212.274-18.305-316.044 7 72.33 1.205 153.124 30.505 195.274 18.44 244.28 131.76 213.11 155.61 373.48 81.2-65 128.59-144.82 144.63-238.45 1.333 26.06 2.637 52.12 3.91 78.18 73.66-72.14 66.12-168.79 82.1-241.39 15.83 32.07 42.41 115.94 44.55 164.14 103.66-102.4 175.7-251.17 154.26-379.62 8.667 30.227 17.333 60.463 26 90.71 11.27-109.53 35-134.56-5.94-257.14-3-52.67 21.77-195-46.32-225.25 33.41-12.07 99.68-10.86 91.06-103.06a431.476 431.476 0 0 0 13.37 47.92" id="path28"/><path class="cls-2" d="m928 154.49 1.84-2.45c154.74-153.33 394.23-146 480.4-22 29.53 16.41 48 42.94 60.44 75.23-18.61-29.57-41-50.12-72.14-67-136.35-135-332.15-102.69-470.57 24.8z" id="path29"/><path fill="#e3e3e3" fill-rule="evenodd" d="m1618.87 962.36-321.88 117.62 11.65 58.78 113.26 171.67 357.7-169.08-30.09-61.389 86.027-38.817 51.394 42.338 135.962-65.34-1.25-41.005L1864.29 866.84l-123.36 39.82-.148 57.784-77.965 34.587z" id="path30" style="fill:#c0c2ce;fill-opacity:1"/><path class="cls-2" d="m1419.19 1263.71-113.182-185.054 316.502-119.852 42.122 40.136 121.574-53.57-40.25-37.478 123.484-50.257 151.164 118.627-130.815 61.284-52.252-43.005-118.38 53.435 45.07 55.765z" id="path32" style="fill:#e6e2f3;fill-opacity:1"/><path class="cls-9" d="M850.11 311.39c12.42-59 45.29-115.25 91.34-158.31 25.82-13 104.63-37.85 78.37-30.44-.25.07 39 43.92 74.91 45.46 92.34 3.94 131.82-55.34 171.22-41.16 104.5 37.61 160.22 121 94 211 87.25 69 56 212 24.61 262.64-91.57 18.66-151.52-73.61-223-36.22-60.74 40.15-108.77 64.83-151.27 46.34-7.38-8.52-9-23.82-7.92-37.22-31.83-10.3-63.73-18.72-96.86 5.12q-2.36-10.79-4.69-21.58c-71.8-27.43-105.47-155.53-39.12-186.11-3-18.36-8.53-41.13-11.58-59.5" id="path33"/><path class="cls-10" d="M1078.97 609.54a138.78 138.78 0 0 1-19.15 5.39c-15.36 2.1-31.91-.27-49.79-4.56-7.15-8.57-8.74-23.67-7.66-36.91l-1.32-.42c11.23-47.47 57.87-127.77 32.87-206.88 44.77 80-34.84 213.4-14.82 228.59 11.37 8.63 50.67 10.4 75.65 5a70.67 70.67 0 0 1-15.78 9.77" id="path34"/><path class="cls-11" d="M850.11 311.39a282.12 282.12 0 0 1 19.11-58c-1 24.9 1.32 52.52 6.68 73.42 64.2-30.37 110.7-9.71 154 20.14 20.32 85.42-1.66 130.79-14.84 184.51-32.95-83.49-115.35-27.49-115.09 25.2-1.59-.63-3.16-1.33-4.72-2.05-62.76-65.08-63.83-129.68-28.39-148.41 8.65-4.58-3.68-19.22-5.52-28.83l-5.65-3.27a60.17 60.17 0 0 1 6-3.2c-3-18.37-8.53-41.14-11.58-59.51m269.43-143.76c75-6.14 110.75-53.53 146.42-40.69 104.5 37.61 160.22 121 94 211 87.37 71.4 55.15 215.13 24.61 262.64-9.44-11.75-37.57 13.88-47.36 4.68 5.92-22.43 4.35-34.85 2-63-1.09 1.62-17.482 6.871-21.112 8.131 20.225-18.82 19.432-50.601 14.272-86.671-43 33.8-137.81 34-195.55 10.53l36.26-2.72c-32-15.81-67.48-71.68-48.36-135.85 64.07-16.15 137.43-18.29 201.5-34.44 23.3-46.12 17.4-120.59-62.26-149.76-25.66-10.58-99.57 28.73-149.33 23.68a666.196 666.196 0 0 1 5-7.51" id="path35"/><path class="cls-2" d="M1335.46 388.41c-14.09 93.08-170.23 100.48-192.39 38.14 27.67-44.82 106.33-56.69 192.39-38.14m-441.69 13.86c13.13 86.68 105.24 77.9 143.61 50.38 3.63-2.61 3-31.84 4.55-36.12-25.23-35.77-93.36-38.19-148.16-14.26" id="path36"/><path class="cls-9" d="M1428.46 477.51c1.06-18.22-7.37-53.68 17.54-89 25.32-35.2 61.84-45.89 87.16-12.68 36 68.42-19.525 139.94-67.815 166.75-10.79-28.39-21.85-55.828-36.885-65.03" id="path37"/><path class="cls-11" d="M1461.27 523.51c-5.74-17.86-17.236-25.875-24.73-40.115 1.29-40.79 47.39-119.975 73.85-71.295 14.49 60.46-30.15 120.68-46.18 115.65a195.24 195.24 0 0 1-2.94-4.24" id="path38"/><path class="cls-5" d="M1142.83 361.97c-6.78-5.36-11.3-13.53-11.24-27.36 63.92-36.33 135-47.72 214.52-29.32q-17.84 22.47-35.68 45a895.44 895.44 0 0 0-167.6 11.68" id="path39"/><path class="cls-6" d="M1142.83 361.97a27.33 27.33 0 0 1-8.9-12.27c30.33-9.59 63.71-17.5 93.39-20.69l-9.71 5.77c40-7.32 67.88-8 109-5q-8.1 10.22-16.21 20.42a895.44 895.44 0 0 0-167.57 11.77" id="path40" style="display:inline"/><path class="cls-2" d="M1131.65 337.49c0-.94-.06-1.92-.06-2.92 63.92-36.33 135-47.72 214.52-29.32l-7.62 9.6c-68.24-12.87-135.75-3.11-202.69 24.41l-4.15-1.77" id="path41" style="display:inline"/><path class="cls-5" d="M1019.11 367.23c6.78-5.37 11.29-13.54 11.24-27.37-62-31.43-73.68-33.4-155.19-19.87 1.87 25 12 39 26.08 48.15 50.66-3.69 58.72-11.57 117.87-.91" id="path42" style="display:inline"/><path class="cls-6" d="M1019.11 367.23a27.3 27.3 0 0 0 7.69-9.46l-6-5.84c-29.11-8.61-58.31-14-87.74-12.55l5.52 7.92c-19.22-1.36-37.08.56-54.48 3.61a53.59 53.59 0 0 0 17.09 17.23c50.66-3.69 58.72-11.57 117.87-.91" id="path43" style="display:inline"/><path class="cls-2" d="M1030.27 343.17c0-1.07.08-2.17.08-3.31-62-31.43-73.68-33.4-155.19-19.87a86.93 86.93 0 0 0 2 13.57q74.12-26.76 147.26 10.6l5.81-1" id="path44" style="display:inline"/><path d="M1027.39 123.54c-87.89 29.07-162.81 87.65-166.44 193l50.17 262-10.51 4-50.64-264.57-.11-.56v-.65c3.22-102.88 80.42-174.56 171.81-204.62zm5.65 240.18c26.36 71.33 5.43 118.39-12.72 164-12.78 32.15-22.57 56.81-7.59 78 62.49 16.79 106.55-18 130.31-36.73 6.31-5 11.3-8.92 15.26-10.88l.62-.31.7-.14c15.18-3.18 24.07-9.24 28.48-16.22a23.05 23.05 0 0 0 3.56-12.92c-.51-24.3-9.58-28.29-15.68-35.3 15.59 2.94 26.39 19.83 26.72 35.09a33.9 33.9 0 0 1-5.25 19c-5.81 9.2-16.78 17.07-34.82 21-3 1.63-7.34 5.06-12.75 9.33-25.55 20.16-73.12 57.72-142 38.23l-1.78-.51-1.12-1.46c-20.32-26.5-9.36-54.08 5-90.29 44.36-92 19.27-158.79 23-160m119.19 71.08a25.86 25.86 0 0 0 8.83 9.7 290.89 290.89 0 0 0 35.77 11c33.82 7.91 61.31 6.58 82.44-2.67 20.79-9.09 35.61-26 44.41-49.48q1.93-5.15 3.5-10.82c-30.29-4.39-65.11-7.4-97-4-32.73 3.53-62.35 13.87-80.44 36.63-.26 2.67.61 6.15 2.46 9.64m3.55 19.41a37 37 0 0 1-13.33-14.26c-3.32-6.27-4.53-13.06-3.29-18.34l.28-1.16.72-.94c20.16-26.31 52.9-38.09 88.88-42 35.21-3.8 73.5-.05 105.84 4.92l5.92.91-1.36 5.82a144.6 144.6 0 0 1-5.41 18c-9.88 26.34-26.67 45.41-50.34 55.76-23.32 10.2-53.14 11.79-89.37 3.32a304.11 304.11 0 0 1-37.61-11.58l-.48-.18z" id="path51" style="display:inline"/><path d="M1489.54 349.97a46.8 46.8 0 0 1 30.47 6.65 56.73 56.73 0 0 1 16.65 16.24l.27.39.18.39c4.76 10 7.78 21.88 8.93 34.69 2.15 24-2.35 51.48-14.51 76.29-12.16 24.81-32.14 47.24-60.76 60.82l-1.38.64-4.28-10.2 1-.46c26.15-12.41 44.38-32.83 55.56-55.66s15.42-48.32 13.44-70.49a92.39 92.39 0 0 0-7.75-30.55 45.52 45.52 0 0 0-13.15-12.75 36 36 0 0 0-23.46-5.06c-17.53 2-33.52 14.53-44.75 27.53 3.27-16.12 18.49-35.67 43.54-38.52m-623.08 26.41a35.1 35.1 0 0 0-14.93 5.53 45.83 45.83 0 0 0-12.33 12.24c-.23.47-.4.85-.53 1.13-9.68 21.76-10.54 52.85-.84 82.49 9.7 29.64 30 57.59 62.62 73.07 1 .48 1.88.88 2.6 1.2l-4.5 10.09c-1.11-.49-2-.92-2.82-1.29-35.71-16.94-57.87-47.43-68.42-79.65-10.55-32.22-9.46-66.29 1.28-90.41.33-.74.6-1.32.79-1.74l.19-.39.27-.39a57.24 57.24 0 0 1 15.67-15.62 46.22 46.22 0 0 1 19.61-7.21z" id="path53"/><path d="M1508.88 416.54c-3.32-8.79-7.16-13.76-11.21-15.8-3.22-1.62-6.89-1.28-10.7.48-4.58 2.11-9.34 6.15-13.91 11.41-10.72 12.32-19.92 30.62-23.74 46.66 5.67-3.17 10.56-4.16 14.52-3.58a13.36 13.36 0 0 1 8.75 5 17.16 17.16 0 0 1 3.47 9c1 9.52-7.43 22-19.65 20.64 8-5.17 12.2-16.89 7.53-22.74a2.62 2.62 0 0 0-1.71-.92c-3.36-.49-8.83 1.94-16.56 9l-9.79 8.95.54-13.23c.84-20.33 13.2-48.69 28.29-66 5.53-6.37 11.53-11.38 17.62-14.18 21.84-10.07 32.56 15.89 26.55 25.36m-661.61 11.43c2.62-13.34 13-25.1 27.72-24l-.82 11c-18.18-1.4-18.16 10.44-26.9 12.93m646.78-72.21c-5.78-80.21-15.66-127.78-30.17-159.22-14.21-30.8-33.13-46.21-57.19-62.18l-1.13-.75-.67-1.22c-8.9-16.3-23.67-31.4-42.83-44.39-36.84-25-89.61-41.92-148.17-44.51-58.56-2.59-123 9.26-182.88 42a366 366 0 0 0-128 116.69l-7.62-6c37.34-55.11 82.43-94.22 130.32-120.4 61.75-33.75 128.14-46 188.64-43.31 60.5 2.69 115.44 20.37 153.88 46.42 20.13 13.64 35.84 29.62 45.66 47 25.07 16.74 44.87 33.21 60 66 15.07 32.66 25.28 81.42 31.17 163.08z" id="path54"/><path d="M1238.9 293.44c35.94-4.4 71.61-1.87 110 3.93l8.95 1.35-5.27 7.35c-2.74 3.83-4.12 5.8-5.48 7.74-9.71 13.88-21.17 30.27-34.07 41.14l-1.72 1.45-2.2-.15a574.72 574.72 0 0 0-82.8.47c-27.55 2-55.23 5.81-83.5 10.7l-2.51.44-2-1.65a37.87 37.87 0 0 1-10-13.45c-3-6.68-4-13.48-3.73-17.1l.22-3 2.6-1.46c39.23-22 75.41-33.39 111.45-37.8m99.48 13.59c-34.13-4.72-66.12-6.52-98.14-2.6-33.77 4.14-67.71 14.65-104.44 34.83a32.41 32.41 0 0 0 2.65 9 27.77 27.77 0 0 0 5.19 7.84c27.65-4.72 54.79-8.35 81.89-10.37a588.09 588.09 0 0 1 82.07-.62c11.14-10 21.57-24.86 30.46-37.57zm-376.88 11.53c-30.41-4.22-60.32.26-80.57 6 .24 5.79 2.18 12.35 5.23 18.73a68.14 68.14 0 0 0 14.24 19.85c16.6-3.3 41.23-6.12 65.28-6.78 18.64-.51 37 .28 51.13 3.14 2.59-4.65 6.46-11.67 7.71-15.31-18.87-15-41.06-22.59-63-25.64m-87.61-3.43c21.32-6.61 54.91-12.27 89.12-7.52 24.72 3.43 49.81 12.29 71 30.09l1.79 1.51.17 2.32c.42 5.58-6.32 17.65-10 24.26-.48.85-.88 1.57-1.45 2.63l-2 3.78-4.16-1c-13.58-3.37-32.71-4.3-52.32-3.76-24.68.68-50 3.69-66 7.13l-2.64.56-2.08-1.76c-7.56-6.36-14.38-15.57-19-25.27-4.52-9.47-7-19.55-6.19-28.18l.35-3.67z" id="path55"/><path d="m1779 1100.73 3.06-.06v1.49zm-474.89-26.76 8.83 54 109 182.4 242.45-119.84 8.23 7.48-250.36 124.53-4.57 2.26-2.61-4.38-112.14-187.69-.54-.92-.17-1-8.38-56.68z" id="path58"/><path d="m1742.398 1077.187 90.507-41.457 3.18-1.38 2.62 2.26 43.932 43.139 131.077-61.36 1.735-36.31 9.813-2.99-1.318 39.527-.181 3.747-2.46 1.536-134.376 65.945-3.25 1.54-2.75-2.37-45.693-43.806-86.266 39.18zm-8.1-171.558h11.08l-.256 57.488h-11.08z" id="path59"/><path d="m1413.352 1267.915 11.04-.176.793 49.994-11.038.175z" id="path60"/><path d="m1843.404 995.15-1.52 45.22-11.04-.34 1.52-45.23zm48.09 44.723-.961 41.596-10.791.499.722-42.055z" id="path61" style="display:inline"/><path class="cls-12" d="m1306.982 1076.981 86.837-34.399 39.161 59.208-89.606 40.626zm165.007-62.856 74.893-29.05 41.971 50.008-77.407 30.873zm272.582-106.593 63.864-24.331 43.856 34.903-65.32 28.735zm-367.99 285.923 92.439-40.665 50.09 68.35-99.497 44.305zm175.185-73.83 80.038-34.846 13.514 20.53-15.414 61.893-30.47 14.387zm288.847-126.832 65.508-31.22 53.532 44.764-69.369 33.02z" id="path49" style="display:inline;fill:#5588ec;fill-opacity:1"/><path class="cls-12" d="m1439.41 1097.54 72.61-30.75 37.944 52.305-77.656 32.87zm150.125-61.595 74.323-32.213 48.3 45.256-81.277 35.175zm142.39-60.42L1789.97 951l44.045 41.031-58.953 27.98zm123.688-57.382 54.395-24.248 52.27 39.226-56.6 28.587z" id="path50" style="display:inline;fill:#5588ec;fill-opacity:1"/><path d="m1739.807 910.565 9.206-5.374 146.667 133.02-8.127 4.276z" id="path62" style="display:inline"/><path d="m1552.931 982.654 109.418 131.248-15.863-.633-101.775-123.215z" id="path63" style="display:inline"/><path d="m1342.285 1132.3 567.718-244.03 8.505 7.778-572.057 246.508z" id="path64" style="display:inline"/><path d="m1972.307 936.826-590.998 263.156-4.5-10.08 586.04-260.677z" id="path65" style="display:inline"/><path d="m1466.174 1016.784 8.744-6.756 129.122 169.196-8.744 6.756z" id="path66" style="display:inline"/><path d="m1390.877 1047.108 9.095-6.276 121.949 175.638-9.095 6.276z" id="path67" style="display:inline"/><path d="m1724.5 975.535 8.876-6.253 49.004 47.018-9.622 5.715z" id="path68" style="display:inline"/><path d="m1655.429 982.783 93.021 91.743-24.794-3.193-80.465-84.099z" id="path69" style="display:inline"/><path d="m1804.086 884.374 10.342-6.278 147.667 126.97-9.264 5.74z" id="path70" style="display:inline"/><path class="cls-2" d="M1345.797 1093.8a14.328 14.328 0 0 1-8.655-9.095l-.643-1.959 2.632-.54c6.345-1.302 11.447-.849 15.614.92-1.462-3.567-1.082-7.573 1.974-12.076l1.286-1.886 2.281.936c6.126 2.558 9.225 6.052 10.234 10.234 2.603-4.094 7.062-7.31 14.211-8.875l2.617-.584.38 2.017a13.728 13.728 0 0 1-3.158 12.12 25.483 25.483 0 0 1 2.822-.628 24.489 24.489 0 0 1 13.041 1.462l2.31.906-1.461 1.799a23.392 23.392 0 0 1-12.194 7.821 14.869 14.869 0 0 1 9.27 8.772l.76 1.916-2.617.643a27.632 27.632 0 0 1-14.226.146l-.921-.292c1.462 3.421 1.316 7.31-1.462 11.696l-1.17 1.93-2.339-.863c-7.632-2.807-10.892-7.178-11.287-12.53-2.558 5.366-7.515 9.519-16.287 11.156l-2.646.483-.263-2.033a14.152 14.152 0 0 1 3.947-12.105 23.714 23.714 0 0 1-15.936-1.462l-2.222-.995 1.608-1.74a24.036 24.036 0 0 1 12.573-7.412" id="path78" style="display:inline;fill:#e5e6eb;fill-opacity:1;stroke-width:1.46203" transform="matrix(.915 0 0 .915 115.197 87.252)"/><path class="cls-13" d="M1369.848 1091.738c.205-8.963 4.05-15.936 15.322-18.437 1.652 8.773-4.386 14.24-15.322 18.437m-5.146 7.427c-.746 8.977-4.986 15.834-16.36 17.939-1.112-8.772 5.19-14.123 16.36-17.94" id="path79" style="display:inline;fill:#f59b00;fill-opacity:1;stroke-width:1.46203" transform="matrix(.915 0 0 .915 115.197 87.252)"/><path class="cls-14" d="M1372.436 1094.252c8.04-7.003 16.77-10.54 26.638-6.637-6.594 7.836-15.498 9.05-26.638 6.637m-10.278 2.281c-8.422 6.74-17.325 9.971-26.916 5.717 7.047-7.632 15.965-8.524 26.916-5.717" id="path80" style="display:inline;fill:#4b84f6;fill-opacity:1;stroke-width:1.46203" transform="matrix(.915 0 0 .915 115.197 87.252)"/><path class="cls-13" d="M1371.88 1097.176c11.623-1.36 20.673.395 23.933 8.656-11.374 2.777-18.494-.907-23.933-8.656m-8.992-3.552c-11.696.95-20.468-1.14-23.304-9.533 11.506-2.383 18.348 1.565 23.305 9.533" id="path81" style="display:inline;fill:#f59b00;fill-opacity:1;stroke-width:1.46203" transform="matrix(.915 0 0 .915 115.197 87.252)"/><path class="cls-14" d="M1368.912 1099.209c9.109 5 13.7 11.126 8.64 19.4-10.233-3.742-11.695-10.394-8.64-19.4m-2.544-7.618c-8.772-5.321-12.953-11.696-7.427-19.752 9.883 4.123 11.068 10.834 7.427 19.753" id="path82" style="display:inline;fill:#4b84f6;fill-opacity:1;stroke-width:1.46203" transform="matrix(.915 0 0 .915 115.197 87.252)"/><path class="cls-13" d="M1367.903 1092.308c2.252.102 3.816 1.608 3.495 3.363a4.386 4.386 0 0 1-4.664 2.924c-2.252-.103-3.816-1.594-3.495-3.348a4.386 4.386 0 0 1 4.664-2.998" id="path83" style="display:inline;fill:#f59b00;fill-opacity:1;stroke-width:1.46203" transform="matrix(.915 0 0 .915 115.197 87.252)"/><path class="cls-2" d="M1345.797 1093.8a14.328 14.328 0 0 1-8.655-9.095l-.643-1.959 2.632-.54c6.345-1.302 11.447-.849 15.614.92-1.462-3.567-1.082-7.573 1.974-12.076l1.286-1.886 2.281.936c6.126 2.558 9.225 6.052 10.234 10.234 2.603-4.094 7.062-7.31 14.211-8.875l2.617-.584.38 2.017a13.728 13.728 0 0 1-3.158 12.12 25.483 25.483 0 0 1 2.822-.628 24.489 24.489 0 0 1 13.041 1.462l2.31.906-1.461 1.799a23.392 23.392 0 0 1-12.194 7.821 14.869 14.869 0 0 1 9.27 8.772l.76 1.916-2.617.643a27.632 27.632 0 0 1-14.226.146l-.921-.292c1.462 3.421 1.316 7.31-1.462 11.696l-1.17 1.93-2.339-.863c-7.632-2.807-10.892-7.178-11.287-12.53-2.558 5.366-7.515 9.519-16.287 11.156l-2.646.483-.263-2.033a14.152 14.152 0 0 1 3.947-12.105 23.714 23.714 0 0 1-15.936-1.462l-2.222-.995 1.608-1.74a24.036 24.036 0 0 1 12.573-7.412" id="path141" style="display:inline;fill:#e5e6eb;fill-opacity:1;stroke-width:1.46203" transform="translate(15.468 62.808) scale(1.047)"/><path class="cls-13" d="M1369.848 1091.738c.205-8.963 4.05-15.936 15.322-18.437 1.652 8.773-4.386 14.24-15.322 18.437m-5.146 7.427c-.746 8.977-4.986 15.834-16.36 17.939-1.112-8.772 5.19-14.123 16.36-17.94" id="path142" style="display:inline;fill:#f59b00;fill-opacity:1;stroke-width:1.46203" transform="translate(15.468 62.808) scale(1.047)"/><path class="cls-14" d="M1372.436 1094.252c8.04-7.003 16.77-10.54 26.638-6.637-6.594 7.836-15.498 9.05-26.638 6.637m-10.278 2.281c-8.422 6.74-17.325 9.971-26.916 5.717 7.047-7.632 15.965-8.524 26.916-5.717" id="path143" style="display:inline;fill:#4b84f6;fill-opacity:1;stroke-width:1.46203" transform="translate(15.468 62.808) scale(1.047)"/><path class="cls-13" d="M1371.88 1097.176c11.623-1.36 20.673.395 23.933 8.656-11.374 2.777-18.494-.907-23.933-8.656m-8.992-3.552c-11.696.95-20.468-1.14-23.304-9.533 11.506-2.383 18.348 1.565 23.305 9.533" id="path144" style="display:inline;fill:#f59b00;fill-opacity:1;stroke-width:1.46203" transform="translate(15.468 62.808) scale(1.047)"/><path class="cls-14" d="M1368.912 1099.209c9.109 5 13.7 11.126 8.64 19.4-10.233-3.742-11.695-10.394-8.64-19.4m-2.544-7.618c-8.772-5.321-12.953-11.696-7.427-19.752 9.883 4.123 11.068 10.834 7.427 19.753" id="path145" style="display:inline;fill:#4b84f6;fill-opacity:1;stroke-width:1.46203" transform="translate(15.468 62.808) scale(1.047)"/><path class="cls-13" d="M1367.903 1092.308c2.252.102 3.816 1.608 3.495 3.363a4.386 4.386 0 0 1-4.664 2.924c-2.252-.103-3.816-1.594-3.495-3.348a4.386 4.386 0 0 1 4.664-2.998" id="path146" style="display:inline;fill:#f59b00;fill-opacity:1;stroke-width:1.46203" transform="translate(15.468 62.808) scale(1.047)"/><path class="cls-2" d="M1345.797 1093.8a14.328 14.328 0 0 1-8.655-9.095l-.643-1.959 2.632-.54c6.345-1.302 11.447-.849 15.614.92-1.462-3.567-1.082-7.573 1.974-12.076l1.286-1.886 2.281.936c6.126 2.558 9.225 6.052 10.234 10.234 2.603-4.094 7.062-7.31 14.211-8.875l2.617-.584.38 2.017a13.728 13.728 0 0 1-3.158 12.12 25.483 25.483 0 0 1 2.822-.628 24.489 24.489 0 0 1 13.041 1.462l2.31.906-1.461 1.799a23.392 23.392 0 0 1-12.194 7.821 14.869 14.869 0 0 1 9.27 8.772l.76 1.916-2.617.643a27.632 27.632 0 0 1-14.226.146l-.921-.292c1.462 3.421 1.316 7.31-1.462 11.696l-1.17 1.93-2.339-.863c-7.632-2.807-10.892-7.178-11.287-12.53-2.558 5.366-7.515 9.519-16.287 11.156l-2.646.483-.263-2.033a14.152 14.152 0 0 1 3.947-12.105 23.714 23.714 0 0 1-15.936-1.462l-2.222-.995 1.608-1.74a24.036 24.036 0 0 1 12.573-7.412" id="path147" style="display:inline;fill:#e5e6eb;fill-opacity:1;stroke-width:1.46203" transform="matrix(.802 0 0 .802 552.024 164.251)"/><path class="cls-13" d="M1369.848 1091.738c.205-8.963 4.05-15.936 15.322-18.437 1.652 8.773-4.386 14.24-15.322 18.437m-5.146 7.427c-.746 8.977-4.986 15.834-16.36 17.939-1.112-8.772 5.19-14.123 16.36-17.94" id="path148" style="display:inline;fill:#f59b00;fill-opacity:1;stroke-width:1.46203" transform="matrix(.802 0 0 .802 552.024 164.251)"/><path class="cls-14" d="M1372.436 1094.252c8.04-7.003 16.77-10.54 26.638-6.637-6.594 7.836-15.498 9.05-26.638 6.637m-10.278 2.281c-8.422 6.74-17.325 9.971-26.916 5.717 7.047-7.632 15.965-8.524 26.916-5.717" id="path149" style="display:inline;fill:#4b84f6;fill-opacity:1;stroke-width:1.46203" transform="matrix(.802 0 0 .802 552.024 164.251)"/><path class="cls-13" d="M1371.88 1097.176c11.623-1.36 20.673.395 23.933 8.656-11.374 2.777-18.494-.907-23.933-8.656m-8.992-3.552c-11.696.95-20.468-1.14-23.304-9.533 11.506-2.383 18.348 1.565 23.305 9.533" id="path150" style="display:inline;fill:#f59b00;fill-opacity:1;stroke-width:1.46203" transform="matrix(.802 0 0 .802 552.024 164.251)"/><path class="cls-14" d="M1368.912 1099.209c9.109 5 13.7 11.126 8.64 19.4-10.233-3.742-11.695-10.394-8.64-19.4m-2.544-7.618c-8.772-5.321-12.953-11.696-7.427-19.752 9.883 4.123 11.068 10.834 7.427 19.753" id="path151" style="display:inline;fill:#4b84f6;fill-opacity:1;stroke-width:1.46203" transform="matrix(.802 0 0 .802 552.024 164.251)"/><path class="cls-13" d="M1367.903 1092.308c2.252.102 3.816 1.608 3.495 3.363a4.386 4.386 0 0 1-4.664 2.924c-2.252-.103-3.816-1.594-3.495-3.348a4.386 4.386 0 0 1 4.664-2.998" id="path152" style="display:inline;fill:#f59b00;fill-opacity:1;stroke-width:1.46203" transform="matrix(.802 0 0 .802 552.024 164.251)"/><path class="cls-2" d="M1345.797 1093.8a14.328 14.328 0 0 1-8.655-9.095l-.643-1.959 2.632-.54c6.345-1.302 11.447-.849 15.614.92-1.462-3.567-1.082-7.573 1.974-12.076l1.286-1.886 2.281.936c6.126 2.558 9.225 6.052 10.234 10.234 2.603-4.094 7.062-7.31 14.211-8.875l2.617-.584.38 2.017a13.728 13.728 0 0 1-3.158 12.12 25.483 25.483 0 0 1 2.822-.628 24.489 24.489 0 0 1 13.041 1.462l2.31.906-1.461 1.799a23.392 23.392 0 0 1-12.194 7.821 14.869 14.869 0 0 1 9.27 8.772l.76 1.916-2.617.643a27.632 27.632 0 0 1-14.226.146l-.921-.292c1.462 3.421 1.316 7.31-1.462 11.696l-1.17 1.93-2.339-.863c-7.632-2.807-10.892-7.178-11.287-12.53-2.558 5.366-7.515 9.519-16.287 11.156l-2.646.483-.263-2.033a14.152 14.152 0 0 1 3.947-12.105 23.714 23.714 0 0 1-15.936-1.462l-2.222-.995 1.608-1.74a24.036 24.036 0 0 1 12.573-7.412" id="path153" style="display:inline;fill:#e5e6eb;fill-opacity:1;stroke-width:1.46203" transform="matrix(.666 0 0 .666 886.672 184.063)"/><path class="cls-13" d="M1369.848 1091.738c.205-8.963 4.05-15.936 15.322-18.437 1.652 8.773-4.386 14.24-15.322 18.437m-5.146 7.427c-.746 8.977-4.986 15.834-16.36 17.939-1.112-8.772 5.19-14.123 16.36-17.94" id="path154" style="display:inline;fill:#f59b00;fill-opacity:1;stroke-width:1.46203" transform="matrix(.666 0 0 .666 886.672 184.063)"/><path class="cls-14" d="M1372.436 1094.252c8.04-7.003 16.77-10.54 26.638-6.637-6.594 7.836-15.498 9.05-26.638 6.637m-10.278 2.281c-8.422 6.74-17.325 9.971-26.916 5.717 7.047-7.632 15.965-8.524 26.916-5.717" id="path155" style="display:inline;fill:#4b84f6;fill-opacity:1;stroke-width:1.46203" transform="matrix(.666 0 0 .666 886.672 184.063)"/><path class="cls-13" d="M1371.88 1097.176c11.623-1.36 20.673.395 23.933 8.656-11.374 2.777-18.494-.907-23.933-8.656m-8.992-3.552c-11.696.95-20.468-1.14-23.304-9.533 11.506-2.383 18.348 1.565 23.305 9.533" id="path156" style="display:inline;fill:#f59b00;fill-opacity:1;stroke-width:1.46203" transform="matrix(.666 0 0 .666 886.672 184.063)"/><path class="cls-14" d="M1368.912 1099.209c9.109 5 13.7 11.126 8.64 19.4-10.233-3.742-11.695-10.394-8.64-19.4m-2.544-7.618c-8.772-5.321-12.953-11.696-7.427-19.752 9.883 4.123 11.068 10.834 7.427 19.753" id="path157" style="display:inline;fill:#4b84f6;fill-opacity:1;stroke-width:1.46203" transform="matrix(.666 0 0 .666 886.672 184.063)"/><path class="cls-13" d="M1367.903 1092.308c2.252.102 3.816 1.608 3.495 3.363a4.386 4.386 0 0 1-4.664 2.924c-2.252-.103-3.816-1.594-3.495-3.348a4.386 4.386 0 0 1 4.664-2.998" id="path158" style="display:inline;fill:#f59b00;fill-opacity:1;stroke-width:1.46203" transform="matrix(.666 0 0 .666 886.672 184.063)"/><path class="cls-2" d="M1345.797 1093.8a14.328 14.328 0 0 1-8.655-9.095l-.643-1.959 2.632-.54c6.345-1.302 11.447-.849 15.614.92-1.462-3.567-1.082-7.573 1.974-12.076l1.286-1.886 2.281.936c6.126 2.558 9.225 6.052 10.234 10.234 2.603-4.094 7.062-7.31 14.211-8.875l2.617-.584.38 2.017a13.728 13.728 0 0 1-3.158 12.12 25.483 25.483 0 0 1 2.822-.628 24.489 24.489 0 0 1 13.041 1.462l2.31.906-1.461 1.799a23.392 23.392 0 0 1-12.194 7.821 14.869 14.869 0 0 1 9.27 8.772l.76 1.916-2.617.643a27.632 27.632 0 0 1-14.226.146l-.921-.292c1.462 3.421 1.316 7.31-1.462 11.696l-1.17 1.93-2.339-.863c-7.632-2.807-10.892-7.178-11.287-12.53-2.558 5.366-7.515 9.519-16.287 11.156l-2.646.483-.263-2.033a14.152 14.152 0 0 1 3.947-12.105 23.714 23.714 0 0 1-15.936-1.462l-2.222-.995 1.608-1.74a24.036 24.036 0 0 1 12.573-7.412" id="path159" style="display:inline;fill:#e5e6eb;fill-opacity:1;stroke-width:1.46203" transform="matrix(.785 0 0 .785 823.771 138.237)"/><path class="cls-13" d="M1369.848 1091.738c.205-8.963 4.05-15.936 15.322-18.437 1.652 8.773-4.386 14.24-15.322 18.437m-5.146 7.427c-.746 8.977-4.986 15.834-16.36 17.939-1.112-8.772 5.19-14.123 16.36-17.94" id="path160" style="display:inline;fill:#f59b00;fill-opacity:1;stroke-width:1.46203" transform="matrix(.785 0 0 .785 823.771 138.237)"/><path class="cls-14" d="M1372.436 1094.252c8.04-7.003 16.77-10.54 26.638-6.637-6.594 7.836-15.498 9.05-26.638 6.637m-10.278 2.281c-8.422 6.74-17.325 9.971-26.916 5.717 7.047-7.632 15.965-8.524 26.916-5.717" id="path161" style="display:inline;fill:#4b84f6;fill-opacity:1;stroke-width:1.46203" transform="matrix(.785 0 0 .785 823.771 138.237)"/><path class="cls-13" d="M1371.88 1097.176c11.623-1.36 20.673.395 23.933 8.656-11.374 2.777-18.494-.907-23.933-8.656m-8.992-3.552c-11.696.95-20.468-1.14-23.304-9.533 11.506-2.383 18.348 1.565 23.305 9.533" id="path162" style="display:inline;fill:#f59b00;fill-opacity:1;stroke-width:1.46203" transform="matrix(.785 0 0 .785 823.771 138.237)"/><path class="cls-14" d="M1368.912 1099.209c9.109 5 13.7 11.126 8.64 19.4-10.233-3.742-11.695-10.394-8.64-19.4m-2.544-7.618c-8.772-5.321-12.953-11.696-7.427-19.752 9.883 4.123 11.068 10.834 7.427 19.753" id="path163" style="display:inline;fill:#4b84f6;fill-opacity:1;stroke-width:1.46203" transform="matrix(.785 0 0 .785 823.771 138.237)"/><path class="cls-13" d="M1367.903 1092.308c2.252.102 3.816 1.608 3.495 3.363a4.386 4.386 0 0 1-4.664 2.924c-2.252-.103-3.816-1.594-3.495-3.348a4.386 4.386 0 0 1 4.664-2.998" id="path164" style="display:inline;fill:#f59b00;fill-opacity:1;stroke-width:1.46203" transform="matrix(.785 0 0 .785 823.771 138.237)"/><path d="m1414.26 1270.55-117.27-190.57-3.51-5.69 6.26-2.38 320.15-121.7 3.39-1.3 2.54 2.62 37.99 40.45 112.754-47.47-36.972-33.175-5.297-5.712 7.177-3.398 126.893-50.741 2.79-1.07 2.41 1.72 145.998 121.71 5.693 5.255-4.753 4.226-131.141 60.184-3.5 1.7-2.8-2.74-45.566-42.16-114.477 51.852 52.391 45.299 2.75 2.88-25.32-14.14-55.527-30.025 12.002-9.417 7.05-3.22 117.932-55.363 3.45-1.58 2.72 2.66 48.06 44.653 120.763-55.839-139.765-115.205-116.043 46.561 33.278 34.115 6.1 5.91-7.89 3.18-120.49 48.91-13.31-5.9-2.58-2.66-30.76-31.66-307.9 118.56 111.17 180.65 208.69-98.52-2.15 8.88 3.71 2.61-210.01 99.15-4.49 2.12z" id="path56" style="display:inline"/><path class="cls-9" d="M1796.43 1178.21c3.32-21.38 9.82-42.51 13.14-63.89-39.71-25.77-81.59-47.61-129.23-59l-7.41 28.2c-13.66 2.25-10.59 16.45-10 28.9l-23.08 3.73 1.62 28.21c-11-1.11-14 7.87-12.77 22.12l39.76 27.88-140.83 70.61 43.87 35.65 127-60.84c33.7-13.08 64.22-34.14 97.93-61.54" id="path45" style="display:inline"/><path class="cls-11" d="m1664.71 1196.21-137.08 68.76 43.87 35.65 127-60.84c19.61-7.61 38.14-17.92 56.85-30.62l-.94-2.43c-32.28 16.53-60.3 22.53-81.5 11.7-1 7.21 1.67 12.33 5.86 16.61-32.45 12.67-35.09-12.44-2.15-35.62z" id="path46" style="display:inline"/><path class="cls-10" d="M1638.42 1144.3c-4.42.4-7.16 2.91-8.62 7 25.15 7 45.29 13.31 68.72 25.09-18.37-16.77-35.73-24-60.1-32.12m20.81-31.3-19.37 3.13.34 6c32.09 5 60.21 18.29 88.92 32.72-21.86-15.59-44.55-30.22-69.89-41.82m14.27-31.67-.57 2.16c-6.57 1.08-9.27 4.93-10.23 10 35.24 3.54 65.66 20.81 96.6 36.37-26.33-18.78-53.87-36.18-85.8-48.55" id="path47" style="display:inline"/><path class="cls-10" d="M1799.73 1160.73c3.33-15.47 7.42-30.87 9.84-46.41-39.33-25.53-80.8-47.2-127.88-58.7l-1.08 6.46c39.6 14.9 82.24 34.41 114.66 59.76 1.05 18.33-.83 36.9-5.88 52.17l10.34-13.28" id="path48" style="display:inline"/><path d="m1490.25 791.01 36.84 50.81 1 .67.64 1.06 77.603 112.916-14.736 11.017-71.657-117.153-29.524-41.537z" id="path71" style="display:inline"/><path d="M1759.3 1129.88c-19.23-14-64.18-37.9-91.62-39.91a26.88 26.88 0 0 0-1.55 13.35c.79 7.24 3.54 13.85 6.68 16.59l-9.94 3c-5.08-4.41-6.65-8.59-7.73-18.45-.9-8.29.37-17.11 5.2-23.83l2-2.75 3.35.52c32.13 5 74.8 24.27 93.64 51.45" id="path73" style="display:inline"/><path d="M1728.56 1153.49c-19.89-14.73-60.91-30.71-83.17-35.21-2.3 6.41-1.79 21.81 1.14 27.23l-10.1-2.36c-4.81-8.89-3.45-26.56 2.19-35l2.35-2.74 3.45 1c25.34 7.72 71.87 23 84.14 47.08m-30.04 22.93c-19.21-14.87-41.83-24.16-61.48-29.61-2.78 4.91-4.95 18.15-.49 22.05 17.94 11.11 39.34 23.54 45.87 40.5-15.8-15.82-32.6-25.57-53-33.9l-.7-.49-.51-.66c-7-9.06-6-29.16 2.89-37.93l2.38-2.34c10.7 3.44 61.52 27.94 65 42.38m-185.7-671.45c9.17 16.2 15.33 31.31 19.14 46.25a169.67 169.67 0 0 1 5.07 44.35c17.34 48.7 18.63 88.1 11.7 118.94-10.09 44.87-37.61 71.75-58.74 83l.59-13.17c19.05-10.18 38.13-31.19 47.37-72.29 6.57-29.23 5.22-66.84-11.64-113.74l-.34-.95v-1a159.61 159.61 0 0 0-4.75-42.48c-3.59-14-9.39-28.27-18-43.52z" id="path74" style="display:inline"/><path class="cls-3" d="M1254.45 394.66a11.59 11.59 0 1 1-11.59 11.59 11.59 11.59 0 0 1 11.59-11.59m-12.22-7.23a37.64 37.64 0 1 1-37.64 37.63 37.63 37.63 0 0 1 37.64-37.63zm-240.2 15.08a10.95 10.95 0 1 1-11 10.94 10.94 10.94 0 0 1 11-10.94m-11.54-6.84a35.56 35.56 0 1 1-35.55 35.55 35.55 35.55 0 0 1 35.55-35.55zm-180.03 711.44 11.11 2c.93-60.16 6.18-121.19 23.41-184.61-23.85 58.17-31.55 119.88-34.52 182.62m350.34 134.85-9.79-5.63c38-46.63 81-147.18 60.92-227.66 37 84.79-13 183.38-51.13 233.29m259.07-236.07-7.88-2.75c21.25-39 37.69-114.5 22.89-172.64 27.68 68.23 9.64 137.85-15 175.39" id="path75" style="display:inline"/><path d="M1007.04 460.13a40.16 40.16 0 0 0-59.2 0 47.11 47.11 0 0 0 0 63.75 40.16 40.16 0 0 0 59.2 0 47.11 47.11 0 0 0 0-63.75m-29.6-24.1a51.59 51.59 0 0 1 37.67 16.53 58.09 58.09 0 0 1 0 78.9 51.16 51.16 0 0 1-75.3 0 58.09 58.09 0 0 1 0-78.9 51.61 51.61 0 0 1 37.63-16.53zm248.67 16.94a46.78 46.78 0 0 0-65.81 0 46 46 0 0 0 0 65.32 46.78 46.78 0 0 0 65.81 0 46 46 0 0 0 0-65.32m-32.9-24.61a57.51 57.51 0 0 1 40.69 16.78 57 57 0 0 1 0 81 57.76 57.76 0 0 1-81.39 0 57 57 0 0 1 0-81 57.55 57.55 0 0 1 40.66-16.8z" id="path76" style="display:inline"/><path d="M1018.81 475.91a55.43 55.43 0 0 1 6.58-8c11.33-11.5 28.43-19.47 47.4-21.32a88.87 88.87 0 0 1 58.47 15 99.58 99.58 0 0 1 14.41 11.81l-7.75 7.87a90 90 0 0 0-12.8-10.5 78 78 0 0 0-51.29-13.19c-16.36 1.6-31 8.35-40.57 18.08a44.34 44.34 0 0 0-5.27 6.42z" id="path77" style="display:inline"/><path d="M1172.68 553.85c44-14.61 70.55 1.06 99.25 18 28.7 16.94 60 35.4 115.35 21.39l13.07-3.31-6.58 11.78c-13.73 24.59-35.47 44-61.59 58.34-35 19.16-77.91 29.16-119.94 30-42.03.84-83.41-7.59-115-25.25-20-11.15-36.14-26-46.32-44.59l10.21-5.56c9.06 16.54 23.64 29.87 41.76 40 29.81 16.64 69 24.57 109.19 23.79 40.19-.78 81.23-10.31 114.54-28.55 20-11 37.24-25.1 49.71-42.34-51.45 9.09-81.93-8.9-110.29-25.63-26.34-15.55-52.42-30-91.39-17z" id="path108" style="display:inline"/><path d="M996.03 577.55c-52-14.9-73.55-.09-94.63 14.38-19.25 13.21-38.14 26.18-75.24 20.29 11.29 15.6 26.22 28 43.1 37.3 23.06 12.63 49.71 19.29 75.79 19.9 26.08.61 51.39-4.8 72-16.29 15-8.41 27.53-20.09 35.73-35.07l10.21 5.56c-9.32 17-23.38 30.22-40.29 39.67-22.41 12.51-49.85 18.39-77.84 17.75-27.99-.64-56.48-7.79-81.17-21.32-22.59-12.37-42-30.12-54.89-53.17l-6.57-11.78 13.07 3.31c41.35 10.46 60.26-2.51 79.57-15.77 23.31-16 47.16-32.37 104.37-16z" id="path109" style="display:inline"/><path style="display:inline" d="M1111.22 672.64c-38.57 39.5-78.17 35.87-98.5.54 30.89 25.68 57.53 25 98.5-.54" id="path110"/><path d="M1046.64 1396.97a836.089 836.089 0 0 0 139.74 8.21c77.84-1.79 156.38-13.64 235.44-33.12a1867.68 1867.68 0 0 0 5.36-57.83l11.5-5.56a1829.14 1829.14 0 0 1-6.29 68.43l-.42 3.82-3.75.94c-81 20.21-300.983 235.172-351.716 291.728-48.835 1.215-144.8 10.725-193.116 3.521zm631.16-308.38c-5.38-6-9.27-7.79-9.75-17.29a29.38 29.38 0 0 1 8.63-22.73l2.61-2.67 3.47 1.46c8.61 3.63 18 7.18 27.62 10.8 34.84 13.14 72 27.17 99.19 56.16l1.61 1.72-.12 2.31a211.99 211.99 0 0 1-4 31.63 272.666 272.666 0 0 1-7.45 28.47l-.35 1.1-.75.87a244.739 244.739 0 0 1-49.54 43.67c-16.58 10.83-33.68 18.45-49.68 21.16-2.86 1.32-8.44 4.31-15.72 8.21-26.93 14.43-76.7 41.1-109.72 47.2l-1.2.22-1.14-.29c-16.52-4.15-32.18-18-46.86-30.9l-.67-.59 7.32-8.27.66.58c13.34 11.76 27.56 24.3 41.11 28.18 31.37-6.23 79.24-31.88 105.29-45.84 8-4.3 14-7.51 17.16-8.87l.65-.28.67-.11c14.55-2.34 30.44-9.44 46.06-19.64a232.689 232.689 0 0 0 46.49-40.81 260.49 260.49 0 0 0 6.84-26.19 200.31 200.31 0 0 0 3.66-27.66c-25.24-25.94-60.42-39.22-93.4-51.65-8.19-3.09-16.25-6.14-24.23-9.4a18.59 18.59 0 0 0-3.17 11.63 30.22 30.22 0 0 0 7.66 17.82z" id="path72" style="display:inline"/><path d="M1028.92 453.29c2.1-1.47 4-4.24 5.56-7.6-1 6.46-2.22 12.7-3.63 18.73-42.82 16.5-75.2 17.06-97.93 5.23-23.39-12.18-37.11-36.8-44.29-69.51l-1-4.8 4.69-1.6c28.73-9.79 63.66-14.33 93.93-10.23 19.17 2.59 38 9.44 51 19.81.24 5.253.297 10.383.17 15.39-11.45-13.21-31.44-21.38-52.64-24.25-26.91-3.64-57.83 0-84.14 8.2 6.71 27.08 18.44 47.27 37.44 57.16 20.26 10.55 50.27 9.48 90.89-6.53m358.37 591.06a419.284 419.284 0 0 0 33.23-60.1l.56-1.25 1.06-.83c41.37-32.54 63.35-118 66.39-214.29 3.16-100.06-12.35-203-49.91-278.93 50.16 34.34 62 247.69 61 279.28-3.11 98.46-26.11 186.49-69.52 221.77a432.77 432.77 0 0 1-25.73 48.29zm-487.7-467.63 1.9-2 4.92 4.78zm-41.76 71.25c-34.08 53.72-51.892 114.197-62.142 173.717-17.77 102.87-7.008 204.223 25.072 273.883l.49 1.07v1.23c.45 87.11 37.62 143.46 71.22 194.39 35.52 53.85 67.17 101.84 50.18 173.38 74.15-19.48 105.09-74.43 136.89-130.94 28.87-51.3 58.43-103.83 120.77-134.29 37.71-18.45 73-40 104.77-66l7 8.57c-32.46 26.53-68.45 48.52-106.92 67.33-59.23 28.94-87.94 79.94-116 129.74-34.28 60.91-67.58 120.09-153.08 138.46l-9 1.94 2.55-8.86c20.6-71.78-10.89-119.51-46.39-173.32-34.3-52-72.22-109.5-73-199.19-32.58-71.46-46.63-175.52-28.57-280.1 10.59-61.29 32.2-122.81 67.56-178.14zm165.28-528.9c6.47-1.11 9.08 39.48 87 45.41 64.41 4.9 123-61.95 176.25-36.43 35.41 17 63.9 39.25 82.83 64.31 19.25 25.48 28.67 53.87 25.57 82.63-2.24 20.75-11 41.57-27.28 61.46a50.66 50.66 0 0 1 11 6.16c18.53 13.56 31.39 40.81 37.59 74.69 6.08 33.16 5.88 72.92-1.53 112.35a311.379 311.379 0 0 1-21.2 68.89l-13.37 2.55a295.218 295.218 0 0 0 23.7-73.48c7.17-38.11 7.38-76.44 1.54-108.32-5.71-31.18-17.1-55.94-33.27-67.77a37.47 37.47 0 0 0-15.24-6.77l-9.76-1.83 6.69-7.32c18.3-20 27.93-41 30.16-61.78 2.79-25.82-5.83-51.53-23.4-74.8-17.89-23.69-45-44.82-78.76-61-52.88-25.36-92.44 36.69-164.57 37.14-71.34.43-98.34-45.16-102.83-47z" id="path52" style="display:inline"/></g><path style="display:inline" d="m335.295 1263.136.54 1.75-11 2.44-10.48 4.19-.54-1.75-125.25 27.73-4-6.35c-27.15-43.62-63.3-77.86-106.46-105.38l-18.155-13.195 21.525-6.045 41.95-9.43 8.54-1.92 3.48 8c3.65 8.41 10.26 17.12 20.49 15.93 5.81-.67 12.55-5.07 13.83-11.09.93-4.34-1.79-7.94-4.93-10.62l-5.86-5 3-7.11c3.61-8.67 6.5-18.93 9.16-28l2.33-8 8.33.41a79.59 79.59 0 0 1 8.06 1.16c4.24.68 8.48 1.33 12.73 1.9 4.25.57 8.65 1.14 12.91 1.28l8.88.29 1.25 8.8c.84 5.93 3.53 13.78 10.66 14a12.3 12.3 0 0 0 10.83-6.38c3.51-6.43.33-14.19-3.38-19.75l-3.54-5.32 17.26-31.69 4.93-9.08 41.31 21.19.06 6.39c.07 6.68 1.81 14.89 8.34 18.22a12.3 12.3 0 0 0 12.54-.82c5.74-4.24 3.55-12.23.9-17.61l-3.92-8 7.17-5.24a129.421 129.421 0 0 0 10-8.33c3.19-2.87 6.33-5.8 9.45-8.74 1.84-1.73 4-4 6-5.5l6.66-5 6.44 5.3c7.3 6 15.48 12.86 23.34 18l6.45 4.21-2 7.43c-1.09 4-1.3 8.5 1.91 11.56 4.45 4.24 12.49 4.09 17.68 1.37 9.12-4.77 9.68-15.7 8-24.7l-1.65-8.6 8.14-3.22 40-15.83 20.83-6.57-7.21 20.56c-20.16 47.06-30.75 95.71-28.62 147l.31 7.48z" id="path165"/><path class="cls-3" d="M2088.055 1942.986c-23.246-4.73-43.503-13.795-56.38-34.41-35.924 15.332-74.94 14.633-111.111 1.147-144.655-23.778-290.915-36.73-437.049-47.497-6.05-28.797-5.06-55.348 17.11-75.2-1.726-19.248-3.407-38.5-5.11-57.75-62.11-1.78-123.847-4.05-185.59.46-48.585 2.166-109.53-27.104-104.07-83.49.675-16.525-3.564-18.13-12.226.21-38.204 68.95-75.202 140.063-153.26 173.856-41.51 15.044-82.036 11.637-109.19-33.097-21.274-26.195-41.195-53.513-81.124-42.38-71.952 10.43-145.237 8.429-217.24 20.1-37.898 9.159-75.847-1.71-106.791-24.637-31.145-28.241-42.808-12.61-45.089 24.098-1.52 18.365-12.436 27.815-32.06 26.28-53.167 7.195-106.689 20.945-159.5 24.64l-226.66-75.06c12.436-25.197 3.742-70.232 39.76-73.08 50.834-96.111 66.47-209.48 103.093-312.444 24.742-42.788-23.997-62.882 6.197-107.525 49.468-29.25 146.072-5.762 209.544-9.515 80.091 10.61 115.588 93.766 166.63 142.268 9.04 6.936 31.728-9.24 63.212-24.11 26.215-12.38 59.043-22.83 90.403-27.805 32.885-3.405 71.032-.757 104.212 10.524 26.253 8.926 49.396 24.508 64.362 38.018-14.878-67.637 54.66-45.44 100.317-48.317 88.547-1.844 177.111-1.922 265.67-2.584 37.361 3.158 153.368-6.773 196.187 6.46 12.834-31.558 17.312-71.095 35.295-97.735 51.974-14.395 99.666-50.855 155.448-43.895-3.602 79.774 118.629 19.45 169.323 39.037 30.604-6.65 7.686 85.252 35.375 44.17 19.72-22.985 35.68-54.245 70.968-42.952l112.504 1.535c3.518 28.25 26.907 62.315-7.396 79.5 9.376 58.119 12.614 74.23 84.059 51.143 23.909-8.65 89.17-43.701 94.637.727 44.382-20.2 89.054-9.902 115.387 13.014 2.483 2.16 13.527 9.578 14 15.87 2.68 35.57 6.195 65.27 3.993 117.099-.254 5.968-15.098 5.756-18.769 10.85-9.583 13.3-37.005 63.155-7.303 132.764 18.152 16.88 17.459 59.05 18.066 81.096-.406 40.52-2.266 79.068 10.253 93.03 13.062 14.565 12.627 42.168-10.82 58.16-62.607 32.584-227.515 61.481-259.267 57.427z" id="path111" style="display:inline"/><path style="display:inline;opacity:1;fill:url(#linearGradient128);fill-rule:evenodd" d="M1696.285 1714.436c-9.6-82.8-19.063-165.61-28.39-248.43-9.3-82.84-19.34-165.62-28.88-248.5h-10.52c-31.82 12.44-64.12 24.6-96.67 36.69.24 2.51.49 5 .73 7.54 8.08 1.54 26.63 8.74 29.37 40.54 5.83 67.65 12.12 135.28 18.11 202.86 5.99 67.58 12 135.3 18.11 202.8 4.14 45.42-2.94 54.44-24.72 55.35.25 2.86.49 5.73.74 8.52 53.59 3.91 106.94 7.83 160.78 12.72-.24-2.87-.73-5.8-1-8.74-23.25-5-32.36-15.36-37.69-61.35" id="path57"/><path id="path20" style="display:inline;opacity:1;fill:url(#linearGradient61);fill-rule:evenodd" d="M1369.325 1565.866c-28.88-.13-50.78-11.68-53.6-35.92-2.82-24.24 14.69-45.9 93.49-45.14h2.45c.73 22.85 1.71 45.7 2.69 68.48-9.79 8.18-26.68 12.66-45 12.58m138-27.6-6.37-93.44c-5.43-78.42-60-96.17-129-96.64-53.35-.37-93.24 15.58-104.74 19.5v52.37c2.93 0 5.87 0 8.81.07 9.79-13.35 37.93-37.55 76.11-37.32 56 .33 56.94 41 57.75 60.38.174 4 .257 8 .25 12-102.54.21-180.11 12.5-180.61 77.22-.48 60.79 65.34 72.09 109.15 72.39 35.73.25 61.67-9.85 77.09-18.24.24 4.83.49 9.65.73 14.4 40.87 1.19 82.23 2.45 123.35 3.63-.25-2.79-.49-5.59-.74-8.52-20.77-3.16-28.75-12.88-31.78-57.8z"/><path style="display:inline;opacity:1;fill:url(#linearGradient60);fill-rule:evenodd" d="M1158.365 1353.426c0 2.8 0 5.59-.24 8.39 9.79 2.93 21 10.83 14.93 28.23-19.09 40.32-38.91 80.64-58.74 121.1-16.15-38.29-31.81-76.45-46.74-114.88-8.57-22.78 6.12-29.56 15.17-33.69 0-2.79.25-5.59.25-8.38-48 .7-95.94 1.4-144.15 2.44-.24 2.87-.49 5.74-.73 8.6 11 3.77 22.27 7 30.83 29.42 13.46 35.15 27.54 70.21 41.85 105l38.18 95.62c-22.76 41.79-41.966 77.64-78.426 79.53-27.637 1.81-40.644-6.32-45.544-19.11-4.4 1.19-8.545 2.258-12.945 3.378 4.957 25.37 8.747 39.147 13.18 64.447 9.3 3.28 15.475 7.82 36.295 6.73 76.59-4 111.69-57.875 150.33-128.705 17.62-34.73 35.67-69.37 52.87-104.12 17.07-34.5 34.26-69.26 50.65-103.78 12.24-26.76 22.52-28.79 33.78-32.35v-8.39c-30.35.21-60.45.42-90.8.56" id="path10"/><path id="path8" style="display:inline;opacity:1;fill:url(#linearGradient57);fill-rule:evenodd" d="M745.015 1588.576c-55.79 9-77.82-28.44-78.31-82.11-.24-53.81 22-103.28 70.73-110.13 52.86-6.71 72.68 31.72 74.89 83.51 3.18 52.69-11.75 99.86-67.31 108.73m20.32-232.52c-108.18 3.55-181.42 70.35-197.74 155.34-17.7 92.09 53.27 126.09 146.59 118 116.91-10.18 188.64-72.87 196.27-151.78 8.28-85.56-59.72-124.34-145.12-121.56z"/><path id="path112" style="display:inline;opacity:1;fill:url(#linearGradient59);fill-rule:evenodd" d="M339.027 1313.984c50.17-1 68.208 11.982 56.028 61.132-14.44 58.07-56.94 80.402-96.35 87.402 7.844-28.465 10.623-45.357 18.28-73.872m145.58 150.53c-20.07-37.67-42.1-70.1-59.47-78.13 38.18-16.15 79.56-53.09 89.08-96.09 15.2-68.67-27.66-105.32-123.59-103.7-44.78.75-89.08 1.6-133.38 2.44-1 3.64-2.2 7.2-3.18 10.76 17.87 2.8 21 14.53 4.41 70.86a25010.885 25010.885 0 0 1-40.87 137.11c-13.84 45.74-27.19 91.47-40.87 137.11-16.91 56.39-28.64 69.53-51.64 76.38-1 3.63-2.2 7.2-3.18 10.76 56-9.57 112.08-19.22 167.88-28.16 1-3.35 1.72-6.71 2.45-10.13-22 .42-26.58-9.83-11.75-64.08 10.37-37.93 20.56-75.9 30.84-113.91 3.43-.28 6.61-.62 10.52-1 28.39-2.64 34.75 15.23 65.83 94.9 27.9 66.18 52.13 72.52 108.66 65.34 30.35-3.86 60.45-7.41 90.55-10.62.49-3.08 1.23-6.15 1.72-9.3-26.39-1.52-59.19-14.02-104.01-90.54z"/><path id="path110-1" style="display:inline;fill:url(#linearGradient133);fill-opacity:1;fill-rule:evenodd" class="cls-3" d="M437.317 1074.657c1.07 7.66.695 15.754-2.543 22.882-2.902 6.478-8.163 11.926-14.702 14.758-9.036 4.122-20.168 3.812-28.66-1.5-6.041-3.868-10.23-10.653-10.537-17.871-.171-2.653.08-5.32.582-7.926-7.079-4.856-13.73-10.293-20.363-15.734-4.182 3.888-8.264 7.886-12.54 11.674-2.9 2.59-5.852 5.129-8.919 7.523 2.548 6.072 3.915 12.917 2.344 19.423-1.461 6.154-5.527 11.702-11.142 14.68-9 5.098-21.042 4.172-29.079-2.374-6.002-4.754-9.568-12.041-10.827-19.494a49.968 49.968 0 0 1-.694-6.145l-21.678-11.12-11.653 21.407c3.761 6.206 6.428 13.358 6.1 20.708-.288 7.752-4.072 15.379-10.341 20.016-6.478 4.94-15.425 6.853-23.208 4.138-6.602-2.33-11.816-7.807-14.424-14.236-1.074-2.49-1.81-5.113-2.36-7.764-9.588-.65-19.048-2.41-28.548-3.778-2.4 8.2-4.83 16.405-7.945 24.367 4.332 4.22 7.626 9.806 8.08 15.932.583 6.899-2.192 13.852-6.957 18.805-7.235 7.795-18.64 11.673-29.082 9.313-5.742-1.243-10.995-4.323-15.116-8.48-3.692-3.645-6.586-8.028-8.88-12.663l-31.397 7.058c11.236 7.457 22.13 15.435 32.506 24.053 26.256 21.682 49.46 47.157 67.987 75.757a240.386 240.386 0 0 1 2.238 3.466l126.478-28c1.134-.225 2.315-.547 3.469-.801 2.77-2.364 6.414-3.165 9.666-4.625l105.365-42.14c-1.038-30.263 2.22-60.645 9.433-90.046 4.408-18.102 10.26-35.84 17.259-53.101z"/><path style="display:inline;fill:url(#linearGradient140);fill-rule:evenodd" d="M2274.825 1381.446c-40.63-2.85-58.49 15.45-65.35 36.06-4.65-15.58-9-31.24-13-46.89-3.91-.21-7.83-.49-11.5-.7a3776.953 3776.953 0 0 1-95.44 35.92c.49 2.87 1.22 5.73 2 8.6 8.56 2.37 29.95 11.92 38.91 48.49 10.37 42.33 20.9 84.68 31.32 127.05 12.83 52.18 7.59 62-13.7 61.56.73 3.29 1.47 6.5 2.2 9.72 53.6 8.31 107.44 16.63 161.77 26.06-.74-3.42-1.72-6.84-2.45-10.34-24.23-7.06-35.52-19.84-50.17-73.93-10.8-39.9-21.54-80-32.3-120.06-5.88-29.28-1.72-55.82 28.87-53.11 35.73 3.16 50.91 34.24 57.76 60.31 5.63 1.67 10.77 3.28 15.91 4.89a7180.107 7180.107 0 0 0-5.88-99.09 112.86 112.86 0 0 0-48.94-14.54" id="path31"/><path style="display:inline;fill:url(#linearGradient31);fill-rule:evenodd" d="M1935.293 1272.643c16.116-.101 19.993 3.112 30.273 53.152 6.61 32.14 13.23 64.41 20.07 96.43 6.84 32.02 13.87 64.24 20.56 96.3 12.64 60.61-22.468 81.084-72.148 78.517-67-6.67-89.683-41.736-97.783-91.486-4.866-30-9.68-60.026-14.44-90.08-4.76-29.96-9.573-59.983-14.44-90.07-7.64-47.58-2.44-57.52 16.65-60-.49-3-1-6-1.72-9-47.23-.55-94.71-.9-142.18-1.32.48 2.93.73 5.87 1 8.73 20.07 2.87 28 12.7 34.27 59.33 3.56 26.68 7 53.41 10.52 80 3.52 26.59 7.19 53.3 10.77 79.94 11.34 84.33 68.31 143.33 200.19 156.6 50.68 5.11 153 4.95 124.07-124.66-6.78-30.42-13.7-60.82-20.55-91.2-6.85-30.38-13.28-60.91-20.07-91.33-11.32-50.78-6.85-61.29 11.5-63.81-.73-3.21-1.47-6.43-2.2-9.71l-96.033 4.257" id="path113"/><path style="display:inline;fill:#e5e6eb;fill-opacity:1" d="M1808.615 1753.156c-13.71-1.36-23.6 6.34-22 17.26 1.61 11.23 13.95 21.18 27.9 22.65 13.95 1.47 24-6.16 22.27-17.48-1.72-11.05-14.47-21.08-28.17-22.44z" id="path87"/><path style="display:inline;fill:#e5e6eb;fill-opacity:1" d="M2023.975 1784.956c-3.11-15.25-6-30.41-9-45.63-7.77-39.36-37.69-55.2-65.59-58.36-22.76-2.57-34 5.8-40.14 14.47-1-7.2-2.45-14.4-3.67-21.59-2-.21-3.92-.49-5.87-.7a3973.536 3973.536 0 0 1-51.4 12c.25 1.32.49 2.51.74 3.77 4.16 1.26 14.87 5.77 17.37 21.46 2.89 18.07 5.25 36.29 8.32 54.43 3.78 22.32.74 26.49-9.78 26.28.24 1.47.49 2.79.73 4.19 25.7 3.57 51.64 7.2 77.33 10.76-.24-1.46-.48-2.86-.73-4.33-11.26-2.79-16-8.1-19.82-30.68-2.74-16-5.63-32-8.32-48-1-13.13 6.35-24.71 21.78-22.92 16.38 1.91 27.7 11.6 31.57 32.92 2.74 15.08 5.41 30 8.32 45.07 4.43 22.85 1.71 27.25-8.81 27a25.99 25.99 0 0 0 .73 4.34c25.7 3.63 51.39 7.34 77.83 11.81a31.076 31.076 0 0 0-1-4.41c-11.29-3.17-15.87-8.78-20.59-31.89z" id="path86"/><path id="path84" style="display:inline;fill:#e5e6eb;fill-opacity:1" d="M2151.225 1764.586c-18.84-2.93-37.2-5.8-56-8.66-3.92-19.22-.25-34 18.35-32.85 22.49 1.35 34.23 23.64 37.66 41.6zm-36.46-61.53c-49.4-7.15-75.3 16.08-66.81 57.3 9.38 45.51 50.74 72.19 100.1 81.06 44.37 8 54.57-13.2 54.82-29.42-2.21-.84-3.92-1.6-6.12-2.44-5.38 11.32-15.37 16.16-38.67 12-28.1-5-46.74-23.06-57-47.59 33 5.24 66.32 10.83 100.09 17.26-7.61-51.35-46.97-82.48-86.41-88.17z"/><path style="display:inline;fill:#e5e6eb;fill-opacity:1;stroke-width:.985818" d="M2320.762 1742.85c-17.205-3.193-34.174-6.33-50.635-8.924-3.985-12.73-7.236-25.46-10.976-38.141-1.743-.267-3.241-.534-4.984-.801-13.25 2.66-20.361 5.263-33.335 7.79 2.038 7.867 3.995 15.6 6.237 23.39-6.737-1.068-19.327-2.06-25.778-3.128-.562 2.337-3.443 16.963-4.007 19.524 9.724 1.66 25.779 3.194 35.502 4.863 5.494 21.454 12.036 36.924 17.886 58.379 8.596 27.768 19.605 45.483 34.602 50.413 17.276 6.388 39.283 4.899 54.382-4.496-1.855-3.202-9.557-16.623-12.166-20.716-7.494 4.052-12.456 6.939-19.915 5.151-10.38-2.625-12.443-10.263-15.546-22.104-6.116-21.502-9.957-37.125-16.184-58.655 13.963 2.269 28.435 4.939 42.898 7.628" id="path121"/><path class="cls-3" d="M473.445 1196.986c12.23 13.53 24 50.87 21.15 68.9l-1.22 7.76-7.78 1.07c-98 13.54-192.25 39.36-279.89 86.26l-7.84 4.19-5.48-7c-12.63-16.16-27.24-49.81-20.22-70.13l1.4-3.98 3.69-2c89.6-47.48 186.8-74.29 286.9-88.53l5.56-.79z" id="path124" style="display:inline"/><path id="path124-2" style="display:inline;fill:url(#linearGradient131);fill-rule:evenodd;stroke-width:.996304" class="cls-3" d="M462.449 1209.997c-28.62 4.167-57.11 9.388-85.338 15.914a940.987 940.987 0 0 0-28.357 7.024c-34.145 9.05-67.841 20.13-100.55 33.58-20.725 8.506-41.114 17.987-60.967 28.413-.582 2.93-.527 6.12-.225 8.969.555 5.524 2.012 11.072 3.803 16.215 2.977 8.45 6.888 16.598 11.888 24.043 40.49-21.302 83.055-38.582 126.75-52.1 48.472-15.03 98.274-25.522 148.492-32.663.592-.096.133-1.084.256-1.567a63.78 63.78 0 0 0-.13-2.155c-.472-5.19-1.523-10.314-2.8-15.361a129.963 129.963 0 0 0-3.064-10.14c-2.304-6.467-4.983-12.855-8.651-18.68a34.662 34.662 0 0 0-1.02-1.504z"/></svg>