<svg xmlns="http://www.w3.org/2000/svg" xmlns:xlink="http://www.w3.org/1999/xlink" viewBox="20 0 2392.11 1961.21"><defs><linearGradient id="linear-gradient" x1="2210.74" y1="1646.05" x2="2210.88" y2="1268.76" gradientUnits="userSpaceOnUse"><stop offset="0" stop-color="#248af0"/><stop offset="1" stop-color="#d6eafe"/></linearGradient><linearGradient id="linear-gradient-2" x1="1873.97" y1="1645.92" x2="1874.11" y2="1268.63" xlink:href="#linear-gradient"/><linearGradient id="linear-gradient-3" x1="1619.93" y1="1251.33" x2="1646.87" y2="1724.82" gradientUnits="userSpaceOnUse"><stop offset="0" stop-color="#af742c"/><stop offset=".44" stop-color="#eac143"/><stop offset="1" stop-color="#b17832"/></linearGradient><linearGradient id="linear-gradient-4" x1="1372.86" y1="1265.38" x2="1399.8" y2="1738.88" xlink:href="#linear-gradient-3"/><linearGradient id="linear-gradient-5" x1="1062.61" y1="1283.03" x2="1089.54" y2="1756.53" xlink:href="#linear-gradient-3"/><linearGradient id="linear-gradient-6" x1="727.47" y1="1302.1" x2="754.4" y2="1775.59" xlink:href="#linear-gradient-3"/><linearGradient id="linear-gradient-7" x1="325.24" y1="1324.98" x2="352.18" y2="1798.47" xlink:href="#linear-gradient-3"/><linearGradient id="linear-gradient-8" x1="178.33" y1="1203.97" x2="371.45" y2="1137.09" gradientUnits="userSpaceOnUse"><stop offset="0" stop-color="#e09603"/><stop offset=".57" stop-color="#fbdfa8"/><stop offset="1" stop-color="#e09603"/></linearGradient><linearGradient id="linear-gradient-9" x1="208.35" y1="1316.31" x2="439.72" y2="1240.59" gradientUnits="userSpaceOnUse"><stop offset="0" stop-color="#e09603"/><stop offset=".43" stop-color="#f9da9c"/><stop offset="1" stop-color="#e09603"/></linearGradient><clipPath id="clip-path" transform="translate(-801.89 -183.03)"><path class="cls-1" d="M3077.26 1570.71c-40.63-2.86-58.49 15.44-65.35 36-4.65-15.58-9-31.23-13-46.89-3.91-.21-7.83-.48-11.5-.69q-46.5 18.21-93.72 35.29l.24.91c8.56 2.37 29.95 11.92 38.91 48.49 10.37 42.33 20.9 84.68 31.32 127.05 5.34 21.71 7.55 36.08 6.77 45.44 1.24 19.24-5.15 24.3-18.59 24.45l.32 1.39c52.91 8.21 106.06 16.42 159.69 25.7-.13-.55-.25-1.11-.37-1.67-24.23-7-35.52-19.84-50.17-73.93-10.8-39.9-22.63-79.74-32.3-120.06a85.18 85.18 0 01-2.6-25.06c-1.3-21.73 6.93-38.53 31.47-36.36 35.73 3.16 50.91 34.24 57.76 60.31 5.47 1.63 10.47 3.19 15.46 4.75q-2.4-45.08-5.43-90.64a113 113 0 00-48.94-14.53"/></clipPath><clipPath id="clip-path-2" transform="translate(-801.89 -183.03)"><path class="cls-1" d="M2822.75 1733.3c2 45.25-28 62-78.32 57-67-6.66-97.63-45.7-105.73-95.45q-7.3-45-14.44-90.08-7.14-44.94-14.44-90.08c-2.62-16.35-3.74-28.26-3.29-36.94-.94-22.54 5.08-29 18.44-31.12l-.22-.91c-46.92-.56-94.08-.91-141.24-1.32v.41c20.07 2.87 28 12.7 34.27 59.33 3.56 26.68 7 53.41 10.52 80s7.19 53.3 10.77 79.94c11.34 84.34 68.31 143.33 200.19 156.6 43.9 4.42 126.53 4.88 129.06-79.3a197.55 197.55 0 00-5-37c-6.78-30.41-13.7-60.81-20.55-91.2s-13.28-60.9-20.07-91.33c-4.76-21.36-6.73-35.59-6-45.1-1.07-18.8 4.35-24.71 15.73-26.73l-.38-1.69-91.95-1.33.17 1c19.82 3.14 28.87 13.76 39.15 63.8 6.61 32.14 13.23 64.41 20.07 96.43s13.87 64.24 20.56 96.3a115 115 0 012.7 28.7"/></clipPath><clipPath id="clip-path-3" transform="translate(-801.89 -183.03)"><path class="cls-1" d="M2498.72 1903.69q-14.4-124.2-28.39-248.43c-9.3-82.83-19.34-165.62-28.88-248.5h-10.52c-31.3 12.24-63.07 24.21-95.08 36.1 8.46 1.88 25.87 9.64 28.51 40.36 5.83 67.65 12.12 135.28 18.11 202.86s12 135.3 18.11 202.8a210 210 0 011.06 25.08c.84 30.59-6.8 37.62-25.06 38.54v.25c53.28 3.89 106.32 7.78 159.84 12.63v-.33c-23.25-5-32.36-15.37-37.69-61.36"/></clipPath><clipPath id="clip-path-4" transform="translate(-801.89 -183.03)"><path class="cls-1" d="M2118.12 1710.46c-2.56-24.09 15.19-45.47 93.53-44.71h2.45c.73 22.85 1.71 45.7 2.69 68.48l-.34.28.34 8c-9.79 8.17-26.68 12.65-45 12.57-28.88-.12-50.78-11.68-53.6-35.92a37.6 37.6 0 010-8.74m191.67 17.06q-3.16-46.65-6.37-93.43c-5.43-78.42-60-96.18-129-96.65-53.35-.36-93.24 15.59-104.74 19.5v44c2.93 0 5.87 0 8.81.07 9.79-13.35 37.93-37.55 76.11-37.32 56 .33 56.94 41 57.75 60.38q.26 6 .25 12h-.12q.12 4.15.12 8.31c-100.66.21-177.24 12.07-180.5 73.71 3 56.59 66.41 67.3 109 67.59 35.73.25 61.67-9.85 77.09-18.23.24 4.82.49 9.64.73 14.39 40.63 1.18 81.75 2.43 122.63 3.61v-.19c-20.82-3.05-28.8-12.77-31.83-57.7z"/></clipPath><clipPath id="clip-path-5" transform="translate(-801.89 -183.03)"><path class="cls-1" d="M1960.8 1542.68v.15c8.67 2.67 19.32 9.6 16.43 22.88.93 3.74.59 8.24-1.74 13.59-17.86 40.88-38.91 80.64-58.74 121.11-16.15-38.3-32-76.39-46.74-114.89-2.61-6.8-3.11-12.18-2.29-16.49-2.62-16.3 9.6-21.93 17.46-25.51v-.06c-47.88.69-95.77 1.39-143.9 2.44v.52c10.79 3.68 21.74 7.22 30.14 29.18 13.45 35.16 27.54 70.21 41.85 105s29.86 69.33 45.52 103.78c.73 0 1-.07 1.71-.07-1 1.83-2 3.65-3 5.47l1.32 2.91c.73 0 1-.07 1.71-.07-22.76 41.79-53.11 82.45-89.57 84.35-34.76 1.8-45.76-17.89-50.66-30.68-4.16 1.12-8.33 2.18-12.5 3.24 2 22.67 4.2 45.38 6.39 68 9.3 3.29 23.72 5.91 44.54 4.82 76.59-4 117.67-68.6 155.64-139.83 18.32-34.37 35.67-69.37 52.87-104.12 17.07-34.5 34.48-69.15 50.65-103.78 12.46-26.66 22.52-28.79 33.78-32.35v-.08c-30.35.21-60.45.42-90.8.56"/></clipPath><clipPath id="clip-path-6" transform="translate(-801.89 -183.03)"><path class="cls-1" d="M1469.18 1690.29v-2.88c-.37-53.81 22-103.63 70.73-110.13 52.81-7 72.22 31.75 74.89 83.51.27 5.34.37 10.62.26 15.82 1 49.61-14.67 92.73-67.56 101.22-55.81 9-78-28.44-78.32-82.11v-5.43m98.59-145c-108.18 3.55-181.42 70.36-197.74 155.35a147 147 0 00-2.64 22.67c2.51 68.73 67.24 94.11 149.23 87 116.91-10.18 188.64-72.87 196.27-151.78.32-3.27.51-6.47.61-9.61-2.33-72.99-66.5-106.18-145.73-103.58z"/></clipPath><clipPath id="clip-path-7" transform="translate(-801.89 -183.03)"><path class="cls-1" d="M1142.67 1484.06c41.6-.87 60.31 15.41 58.52 49q.78 13.43-3.7 31.32c-14.44 58.07-61.92 92-101.32 99l2.42-8.78c-.81.17-1.62.32-2.42.47q11.76-42.68 23.25-85.47c7.71-28.48 15.67-57.09 23.25-85.6M1265 1728.43c-21.08-37.11-42.1-70.09-59.47-78.13 2.52-1.06 5-2.22 7.58-3.46a37 37 0 00-7.58-4.85c38.18-16.15 79.56-53.09 89.08-96.09a122.85 122.85 0 002.9-21.21c-2.22-49.56-45.38-75.55-126.49-74.18-44.78.75-89.08 1.61-133.38 2.44-.26 1-.53 1.94-.82 2.9 9.36 2.09 13.92 7.58 12.75 23 1 10.3-2.32 27.36-10.7 55.76q-20.24 68.54-40.87 137.1c-13.84 45.74-27.19 91.48-40.87 137.11-16.91 56.39-28.63 69.53-51.64 76.38-.18.67-.37 1.34-.56 2 55.17-9.42 110.33-18.91 165.26-27.71.18-.6.35-1.21.51-1.81-13.32-.16-19.57-5-18.26-23.16-.91-9.65 1.84-25.08 8.45-49.24 10.37-37.93 20.56-75.9 30.84-113.91 3.43-.28 6.61-.62 10.52-1 28.39-2.64 33.78 15.62 65.83 94.9 26.93 66.58 52.13 72.52 108.66 65.34 30.35-3.86 60.45-7.41 90.55-10.62.06-.36.12-.73.19-1.09-26.17-1.9-59.48-14.9-102.48-90.47z"/></clipPath><clipPath id="clip-path-8" transform="translate(-801.89 -183.03)"><path class="cls-1" d="M1124.78 1438l-.66.15-.62.25v-.11L996 1466.5c-28.63-46-66.25-81-109.75-108.71l42-9.43c20.82 48 76.18 7.73 46-18 3.58-8.6 9.55-29.11 9.55-29.11 1.92.1 23 4 33.87 4.35 6.15 43.43 63.2 19.27 37.38-19.44l13.74-25.23.47-.86.87.44 25.57 13.12c.47 46.52 61.21 34.36 41.84-5 8.8-6.43 24-21.51 25.54-22.67 0 0 16.47 13.58 24.28 18.68-10.47 38.31 58 40.44 48.13-11l40-15.83c-20.32 47.43-31.72 97.51-29.47 151.64l-121.19 48.44z"/></clipPath><clipPath id="clip-path-9" transform="translate(-801.89 -183.03)"><path class="cls-1" d="M984.6 1472.43c88-46.65 183.46-73.19 283.44-87.4 9.57 10.59 21 44.77 18.55 60.16-98.39 13.59-193.71 39.39-283.44 87.4-11.15-14.26-24-44.45-18.55-60.16"/></clipPath><style>.cls-1{fill:none;clip-rule:evenodd}.cls-2{fill:#fff}.cls-10,.cls-11,.cls-12,.cls-13,.cls-14,.cls-15,.cls-16,.cls-2,.cls-3,.cls-4,.cls-5,.cls-6,.cls-9{fill-rule:evenodd}.cls-4{fill:#302e2e}.cls-5{fill:#dedbdb}.cls-6{fill:#999}.cls-9{fill:#f5dfca}.cls-10{fill:#fff8f2}.cls-11{fill:#dda58e}.cls-12{fill:#000cf1}.cls-13{fill:#e61211}.cls-14{fill:#1d45f2}.cls-15{fill:#ffefbf}.cls-16{fill:#fcfcfc}</style></defs><path class="cls-2" d="M1586.21 837.23c-25.29-26.78-48.62-67.05-44.47-103.76 23.84 9.56 71.68 22.15 89.78 18.89-24.69-20.17-42.69-47.32-52.8-78.21-11.71-35.75-13-78.75 2.58-113.72l.94-2 1.34-2.85 1.83-2.62a91.66 91.66 0 0119.74-20.82l-4.92-25.71-.64-3.41.13-4.35.26-6c2.88-50.36 21.45-96.55 53.48-135.39a438.22 438.22 0 0134.42-43.59 395.72 395.72 0 01104.36-83c62.66-34.26 134.14-50.37 205.44-47.21 58.59 2.59 121.53 18.75 170.45 51.9 20 13.57 38.34 30.54 51.48 51 29.64 20.6 49.8 41.52 65.33 75.17 20.38 44.16 27.85 100.6 32.1 149.84.59.34 1.17.7 1.75 1.05a88.63 88.63 0 0126.21 25.24l1.71 2.48 1.27 2.67c6.8 14.25 10.52 30 11.93 45.65 2.83 31.64-3.7 64.78-17.66 93.27-2.37 4.84-5 9.58-7.79 14.18a204.23 204.23 0 0110.47 30.42 200.64 200.64 0 016 46.84c14.24 42.06 20.77 87.64 10.93 131.43-6.69 29.75-21.16 58-42.59 79.8l12.27 16.92 2.14 1.42 60.14 99.11 18.1-6.88 31.9 32.86 15.09-6.06v-17l-.17-32 12.21-3c30.86-7.72 61.81-19.89 91.27-31.84 27.38-11.11 54.55-22.87 82.13-33.48l8.06-3.09 16.47 11.77 189.5 135.68-6.46 86.57-19.62 9.36-154.84 72.84-22.16 10.57L2625 1302l-.05 1a246.44 246.44 0 01-4.6 36.4 313.44 313.44 0 01-8.3 31.73l-2.35 7.49-5.16 5.92q-4.24 4.88-8.71 9.57 14.7.15 29.39.33l33.32.39 7.92 32.37c.68 2.78 1.23 5.59 1.72 8.4l31-40.37 167.24 2.25 18.16 80.08-21.19 20.85c.41 1.92.82 3.83 1.25 5.74 3.22 14.46 6.36 28.93 9.51 43.41l3.19-1.16q47.41-17.14 94.39-35.52l8.75-3.43 9.44.54 11.29.69 31.68 1.7 3.27 13.05a132.66 132.66 0 0144.07-3.87 156.45 156.45 0 0167.11 20l20.17 11.42 1.53 23.13q3.3 49.82 5.91 99.69l2.56 49-77 39.93 2.75 10c2.28 8.31 10.15 37.12 16.06 42.22a22.84 22.84 0 004.67 1.75l24.73 7.2 5.3 25.21c.72 3.41 1.68 6.77 2.42 10.18l11.29 52.74-2.21.78 2.85 11.09-2.18 10c-1.09 5-1.72 10-2.59 15l-5.4 30.81 4 1.23 28.31 8.08 2.7 29.32a120.81 120.81 0 01.27 24.2c-3.14 29.11-21 50.59-49.85 56.3l-224 44.27-2.74.48-2.95.36-3 .24-3 .1h-3l-3-.15-3-.26-3-.38-3-.49-3-.6-3.58-.83-3.32-.83-3.1-.85-3.22-1-3.17-1-3.13-1.1-3.06-1.18-3-1.24-3-1.33-2.91-1.4-2.87-1.47-2.8-1.57-2.74-1.64-2.69-1.72-2.63-1.81-2.55-1.89-2.5-2-2.42-2.06-2.36-2.15-2.28-2.23-2.2-2.31-2.14-2.4-.48-.59-27.37 7.23-1.86.48-2.11.48-2.11.41-2.1.35-2.09.29-2.1.24-2.09.19-2.26.14-2.05.08H2775.59l-2-.09-2-.12-2-.16-1.93-.19-2-.22-1.92-.25-1.93-.28-1.89-.3-1.85-.32-1.95-.36-2-.38-1.93-.4-2-.43-1.93-.44-1.95-.47-1.9-.49-2-.51-1.92-.53-1.89-.55-1.94-.58-1.87-.58-1.9-.62-1.9-.64-1.9-.67-1.86-.68-1.86-.7-1.84-.72-1.87-.76-1.83-.77-1.84-.8-1.05-.48-6.93 2.18-36.85-6.23-6.45-1.06-6.46-1-9.73-1.5-11.36-1.7-10.54-1.53-115.13-16-.39.09-1.08.24-1 .2-1.05.18-1.06.16-1 .14-1.1.13-1.06.11-1.07.09-1.06.07-1.11.05H2498.2l-1.07-.05-1.15-.07-1-.08-1-.1-2.13-.26-2.16-.34-2.14-.41-2.13-.49-2.11-.55-2.09-.62-2.06-.68-2-.76-2-.82-2-.89-2-1-1.93-1-.48-.28-7.19 4.08-34.59-3.14-12-1.06-12-1-16-1.32-12-.95-12-.94-20-1.52-32-2.37-40-2.92-5.84-67.81 21.36-25.35-3.43-38.09-104.57-3.07-23.63-.69-1.77.37-1.41.28-1.44.27-1.45.26-1.41.24-1.48.24-2.87.42-1.43.19-1.45.19-1.43.17-1.45.16-1.46.15-2.89.26-1.44.1-1.46.11-1.44.08-1.46.08-1.44.06h-1.44l-1.46.05h-5.91l-5.12-.1-5-.21-5.21-.33-5.23-.46-5.24-.6-5.24-.74-5.24-.88-5.23-1-5.19-1.2-5.17-1.44-5.1-1.56-5-1.73-5-1.93-4.89-2.14-4.79-2.36-4.68-2.58-4.56-2.82-4.4-3.08-4.25-3.33-4.06-3.59-3.85-3.88-3.61-4.15-3.36-4.43-3.08-4.71-2.76-5-2.43-5.25-2.18-5.46-1.72-5.73-.47-2.13-5.47 10.87-4 7.92-4 7.9-2.72 5.26-2.74 5.26-2.75 5.25-2.78 5.25-1.4 2.65-3 5.57-3.05 5.59-3.1 5.61-3.18 5.61-3.25 5.61-3.33 5.58-3.42 5.56-3.52 5.51-3.62 5.46-3.72 5.41-3.74 5.18-4 5.22-4.08 5.14-4.22 5-4.36 4.91-4.52 4.76-4.68 4.62-4.85 4.46-5 4.29-5.21 4.1-5.39 3.88-5.59 3.67-5.78 3.43-6 3.17-6.19 2.9-6.39 2.61-6.6 2.32-6.79 2-7 1.66-7.2 1.31-7.39 1-7.41.57-1.73.09-1.49.06-1.5.05H1799.44l-1.55-.05-1.58-.06-1.56-.08-1.58-.1-1.57-.12-1.59-.13-1.59-.15-1.6-.17-1.58-.19-1.59-.21-1.61-.24-1.59-.25-1.6-.28-1.61-.3-1.59-.32-1.62-.36-1.55-.37-1.63-.4-1.57-.42-1.59-.46-1.62-.49-1.55-.51-1.44-.49-16.77-5.93-72.8-80.33-.65-6.66-3.25.9-6.94 1.71-7 1.54-7 1.36-7 1.18-7 1-7 .85-7 .69-3.22.26-3.24.23-3.29.19-3.29.15-3.35.11-3.35.07h-6.79l-3.44-.06-3.43-.12-3.45-.16-3.47-.22-3.47-.27-3.48-.33-3.5-.38-3.5-.45-3.47-.52-3.5-.58-3.49-.64-3.47-.72-3.46-.79-3.3-.82-3.61-1-3.24-1-3.4-1.11-2.64-.92-2.16 13.6-33.08 3.54-11.21 1.23-13.44 1.52-11.21 1.32-11.19 1.34-11.2 1.38-11 1.38-2 .25-2 .23-2.06.23-2.05.21-2.06.19-2.1.19-2.11.16-2.11.14-2.15.13-2.13.09-2.19.07H1398.82l-2.24-.06-2.21-.1-2.25-.14-2.24-.18-2.28-.23-2.23-.27-2.11-.3-2.46-.41-2.09-.4-2.28-.49-2.29-.55-2.14-.56-2.28-.68-2.27-.75-2.28-.83-2.27-.89-2.29-1-2.86-1.36-2.87-1.5-50.88-28.1-5.2 24.22-.59 2.62-.34 1.41-.52 2-.37 1.4-.39 1.36-6.66 22.82-27.64 4.43-12.56 2L1233 1991l-20.93 3.49-33.47 5.66-83.38 14.24-249.54-82.63 15.24-55.49c1-3.54 2.18-7 3.13-10.56l6.24-23.16 23-6.84a22.23 22.23 0 003.41-1.21c7-5.45 16.63-37.34 19.33-46.33 13.7-45.72 27.08-91.53 40.9-137.21q13.55-44.81 26.84-89.69l-6.55-8.37c-17.48-22.36-33.25-62.32-24-90.55-23.28-30.77-52-56-84.67-76.77L801.89 1343l144.6-32.52c2.1-6.1 3.84-12.36 5.63-18.52l7.28-24.92 25.94 1.26a96.65 96.65 0 0110.48 1.41c4.06.65 8.13 1.28 12.2 1.83 3.52.47 7.1 1 10.65 1.09l6.06.19 15.53-28.54 15.36-28.25 57.55 29.52 4.89-3.57c2.87-2.1 5.55-4.53 8.19-6.9 3.06-2.75 6.06-5.56 9.06-8.38a94.29 94.29 0 017.86-7.07l20.72-15.65 20 16.5c5 4.07 9.91 8.27 15.08 12.13l137.81-54.57-31.16 72.71c-13.66 31.89-22.8 65-25.9 99.33l1-.14 11.74 13c16.83 18.6 30.57 62.57 26.66 87.39l-.27 1.71 85.81 101c33.56-28 74.4-46.06 117.38-54.15l31.14-227.15c-31.71-84.92-36.5-186.44-21.18-275.1 9.6-55.56 27.48-109.75 54.21-159.43" transform="translate(-801.89 -183.03)"/><path class="cls-3" d="M2297.91 982.26l22.36 30.84 1.56 1 65.17 107.51 20.73-7.88 32.06 33 35.13-14.12v-27.91l-.11-19.44c54.29-13.58 121.52-45.24 175.26-65.91l9.45 6.75 182.17 130.43-5.1 68.31-11.14 5.31-154.89 72.85-12.7 6.06-52.05-44.93-18.56 7.46a157.44 157.44 0 0115.92 14.78l6.25 6.68-.45 9.1a229 229 0 01-4.3 34 294.55 294.55 0 01-7.88 30.1l-1.35 4.29-3 3.4a258.8 258.8 0 01-52.87 46.56c-16.06 10.5-34.5 19.48-53.5 23.14-4.39 2.14-8.84 4.67-13.1 7-32.5 17.41-78.42 42.24-114.4 48.84l-4.62.84-4.51-1.13c-16.4-4.11-30.92-14.94-44-26.07L2235.4 1508q-2.19 27-5.17 53.94l-1.65 14.92-14.59 3.64c-80.24 20-162.36 32.93-245.13 34.83q-27 .63-54-.35l7.94 9.51-94-8.73c-29.25 32.35-63.9 52.23-107.39 61.58l-35.19 7.57 9.93-34.6a140.61 140.61 0 005.74-46.34l-175.84-16.34 43.56-317.72c-32-83.05-36.83-183.62-21.82-270.5 10-57.82 29.19-114.09 58.34-165a146.31 146.31 0 01-29.49-36.94l-24.72-44.27 49.15 12.43c25.75 6.51 40.41 4.21 62-10.3l.73-.49c-33.77-18.32-57.83-49-69.82-85.61-10.42-31.81-12-70.86 1.92-102l.88-1.91.76-1.62 1-1.51a73.73 73.73 0 0120.07-19.88c1.4-.91 2.83-1.77 4.29-2.56l-6.9-36.33-.32-1.71.07-2.39c.06-1.94.15-3.87.26-5.81 2.69-47.24 20.16-90.32 50.26-126.61a422 422 0 0133.55-42.56 379.38 379.38 0 01100.12-79.64c60.16-32.88 128.6-48.29 197-45.26 55.51 2.46 115.74 17.7 162.16 49.16 19 12.9 36.63 29.25 48.65 49 28.33 19.29 47.6 38.08 62.6 70.56 20.29 44 27.43 103.92 31.42 153.38a62.28 62.28 0 018.54 4.43 72.38 72.38 0 0121.42 20.77l1 1.44.73 1.53c6 12.5 9.19 26.41 10.43 40.17 2.57 28.72-3.43 58.94-16.09 84.78a155.61 155.61 0 01-11.63 19.89 192.85 192.85 0 0113.17 35.74 185.77 185.77 0 015.57 45.61c13.84 39.9 20.66 83.49 11.29 125.17-7 31.22-23.5 60.76-48.31 81.16" transform="translate(-801.89 -183.03)"/><path class="cls-3" d="M786.76 1066.23l296.92 355.65-341.33-31.71 44.41-323.94z"/><path class="cls-4" d="M791.8 1083.8l-41.09 299.72 315.83 29.35L791.8 1083.8z"/><path class="cls-4" d="M1793.86 1122.75l474.57-136.13c43.88 47.14 84.08 113.91 124 182l-196 149.55c1.65 54.37 13.19 112.45 16.43 167.76 1.46 25-4.59 47.73-3.85 72.32-123.63 37.23-256.46 43-386.61 32q-14.29-233.77-28.61-467.56" transform="translate(-801.89 -183.03)"/><path class="cls-5" d="M1636 499.44c6.3-67.4 42.81-120.72 75.69-164.37 154.74-153.33 394.23-146 480.4-22 68.2 37.89 77.36 129.76 89.88 222 3.58 53.14 7.28 107.25 10.86 160.39 11.84 24.79 20.12 51.38 21.86 84.31 31.73 90.76 8 156.27-39.58 194.91-5.84 65.23-25.68 148.14-57.85 183.54-51.59 113.08-145.59 179.67-262.42 249.69-69.41 29.64-118.12 240.76-235.17 246 31.32-141.08-126-220.83-123.5-379.5-50.34-147.37-31.54-288.79 36.45-439.47 1.6-3.53-34.39-44.68-34.39-44.68 4.75-3.69 69-4.73 75.46-12.62q6.62-8 13.67-16c-19.57-87.64-31.71-174.57-51.36-262.2" transform="translate(-801.89 -183.03)"/><path class="cls-2" d="M1970.12 692l-25.6 59.43c75-16.63 147.81 71.92 213.66 39.11-71-147.13-40-26.59-188.06-98.54M1687.4 761.61q-2.22-9.87-4.31-19.75l48.54-10.66c13.7 10.53 32.58 18.85 46.29 29.38-87.7-12-98.88 60-169.87 34.67 68.42-18.84 52.19-3.09 79.35-33.64" transform="translate(-801.89 -183.03)"/><path class="cls-6" d="M1775.77 764.38c46.46-6.3 121.23-10.71 167.68-17-14 19-37.25 48.59-63.63 61.44 7.09 32.17 144.59 76.85 270-8-69.53 112.94-275.52 68.84-310.09 3-40 66.17-166.63 76.56-229.94-6.25 52.55 51 136.5 49.14 172.5 20.15 16.29-13-12.92-20.25-6.54-53.39" transform="translate(-801.89 -183.03)"/><path class="cls-6" d="M2271.66 463.13c4 23.29 7.05 47.58 10.35 71.91 3.58 53.14 7.28 107.25 10.86 160.39 11.84 24.79 20.12 51.38 21.86 84.31 31.73 90.76 8 156.27-39.58 194.9-5.85 65.24-25.68 148.14-57.85 183.55-51.59 113.08-145.59 179.67-262.42 249.69-69.41 29.64-118.12 240.76-235.17 246 31.32-141.08-126-220.83-123.5-379.5-35.38-103.58-45.17-212-17.21-315.77 7 72.33.11 152.85 29.41 195 18.44 244.28 131.76 213.11 155.61 373.48 81.2-65 128.59-144.82 144.63-238.45q2 39.09 3.91 78.18c73.66-72.14 66.12-168.79 82.1-241.39 15.83 32.07 42.41 115.94 44.55 164.14 103.66-102.4 175.7-251.17 154.26-379.62q13 45.34 26 90.71c11.27-109.53 35-134.56-5.94-257.14-3-52.67 21.77-195-46.32-225.25 33.41-12.07 99.68-10.86 91.06-103.06a431.49 431.49 0 0013.37 47.92" transform="translate(-801.89 -183.03)"/><path class="cls-2" d="M1709.89 337.52l1.84-2.45c154.74-153.33 394.23-146 480.4-22 29.53 16.41 48 42.94 60.44 75.23-18.61-29.57-41-50.12-72.14-67-136.35-135-332.15-102.69-470.57 24.8z" transform="translate(-801.89 -183.03)"/><path fill="#e3e3e3" fill-rule="evenodd" d="M1598.87 962.36l-321.88 117.62 11.65 58.78 113.26 171.67 357.7-169.08-23.89-51.35 71.56-31.14 52.28 39.09 157.22-65.34-.66-46.32-171.82-119.45-144.1 54.69-4.06 59.74-61.53 12.99-35.73-31.9z"/><path fill="#ed0909" fill-rule="evenodd" d="M1401.1 1260.53l-124.11-180.55 327.27-127.93 30.34 42.21 87.68-47.16-29.29-33.89 155.34-57.1 164.12 131.96-152.1 61.81-44.11-43.19-108.78 45.83 39.05 51.82-345.41 156.19z"/><path class="cls-2" d="M1408.92 1238.06l-92.84-148.79 278.47-107.47 33.21 32.98 142.16-60.1-30.44-29.47 101.52-41 126.5 91.64-103.97 53.85-52.67-44.76-140.79 67.1 60.89 35.78-322.04 150.24z"/><path class="cls-9" d="M1632 494.42c12.42-59 45.29-115.25 91.34-158.31 25.82-13 104.63-37.85 78.37-30.44-.25.07 39 43.92 74.91 45.46 92.34 3.94 131.82-55.34 171.22-41.16 104.5 37.61 160.22 121 94 211 87.25 69 56 212 24.61 262.64-91.57 18.66-151.52-73.61-223-36.22-60.74 40.15-108.77 64.83-151.27 46.34-7.38-8.52-9-23.82-7.92-37.22-31.83-10.3-63.73-18.72-96.86 5.12q-2.36-10.79-4.69-21.58c-71.8-27.43-105.47-155.53-39.12-186.11-3-18.36-8.53-41.13-11.58-59.5" transform="translate(-801.89 -183.03)"/><path class="cls-10" d="M1860.86 792.57a138.78 138.78 0 01-19.15 5.39c-15.36 2.1-31.91-.27-49.79-4.56-7.15-8.57-8.74-23.67-7.66-36.91l-1.32-.42c11.23-47.47 57.87-127.77 32.87-206.88 44.77 80-34.84 213.4-14.82 228.59 11.37 8.63 50.67 10.4 75.65 5a70.67 70.67 0 01-15.78 9.77" transform="translate(-801.89 -183.03)"/><path class="cls-11" d="M1632 494.42a282.12 282.12 0 0119.11-58c-1 24.9 1.32 52.52 6.68 73.42 64.2-30.37 110.7-9.71 154 20.14 20.32 85.42-1.66 130.79-14.84 184.51C1764 631 1681.6 687 1681.86 739.69c-1.59-.63-3.16-1.33-4.72-2.05-62.76-65.08-63.83-129.68-28.39-148.41 8.65-4.58-3.68-19.22-5.52-28.83l-5.65-3.27a60.17 60.17 0 016-3.2c-3-18.37-8.53-41.14-11.58-59.51M1901.43 350.66c75-6.14 110.75-53.53 146.42-40.69 104.5 37.61 160.22 121 94 211 87.37 71.4 55.15 215.13 24.61 262.64-9.44-11.75-37.57 13.88-47.36 4.68 5.92-22.43 4.35-34.85 2-63-1.09 1.62-7.43 7.27-11.06 8.53 15-23 9.38-51 4.22-87.07-43 33.8-137.81 34-195.55 10.53l36.26-2.72c-32-15.81-67.48-71.68-48.36-135.85 64.07-16.15 137.43-18.29 201.5-34.44 23.3-46.12 17.4-120.59-62.26-149.76-25.66-10.58-99.57 28.73-149.33 23.68q2.44-3.72 5-7.51" transform="translate(-801.89 -183.03)"/><path class="cls-2" d="M2117.35 571.44c-14.09 93.08-170.23 100.48-192.39 38.14 27.67-44.82 106.33-56.69 192.39-38.14M1675.66 585.3c13.13 86.68 105.24 77.9 143.61 50.38 3.63-2.61 3-31.84 4.55-36.12-25.23-35.77-93.36-38.19-148.16-14.26" transform="translate(-801.89 -183.03)"/><path class="cls-9" d="M2210.35 660.54c1.06-18.22-7.37-53.68 17.54-89 25.32-35.2 61.84-45.89 87.16-12.68 36 68.42-17.64 138.37-65.93 165.18-10.79-28.39-12.74-53.63-38.77-63.46" transform="translate(-801.89 -183.03)"/><path class="cls-11" d="M2243.16 706.54c-5.74-17.86-10.64-33.1-24.73-42 1.29-40.79 47.39-118.09 73.85-69.41 14.49 60.46-30.15 120.68-46.18 115.65q-1.56-2.19-2.94-4.24" transform="translate(-801.89 -183.03)"/><path class="cls-5" d="M1924.72 545c-6.78-5.36-11.3-13.53-11.24-27.36 63.92-36.33 135-47.72 214.52-29.32q-17.84 22.47-35.68 45a895.44 895.44 0 00-167.6 11.68" transform="translate(-801.89 -183.03)"/><path class="cls-6" d="M1924.72 545a27.33 27.33 0 01-8.9-12.27c30.33-9.59 63.71-17.5 93.39-20.69l-9.71 5.77c40-7.32 67.88-8 109-5q-8.1 10.22-16.21 20.42A895.44 895.44 0 001924.72 545" transform="translate(-801.89 -183.03)"/><path class="cls-2" d="M1913.54 520.52c0-.94-.06-1.92-.06-2.92 63.92-36.33 135-47.72 214.52-29.32l-7.62 9.6c-68.24-12.87-135.75-3.11-202.69 24.41l-4.15-1.77" transform="translate(-801.89 -183.03)"/><path class="cls-5" d="M1801 550.26c6.78-5.37 11.29-13.54 11.24-27.37-62-31.43-73.68-33.4-155.19-19.87 1.87 25 12 39 26.08 48.15 50.66-3.69 58.72-11.57 117.87-.91" transform="translate(-801.89 -183.03)"/><path class="cls-6" d="M1801 550.26a27.3 27.3 0 007.69-9.46l-6-5.84c-29.11-8.61-58.31-14-87.74-12.55l5.52 7.92c-19.22-1.36-37.08.56-54.48 3.61a53.59 53.59 0 0017.09 17.23c50.66-3.69 58.72-11.57 117.87-.91" transform="translate(-801.89 -183.03)"/><path class="cls-2" d="M1812.16 526.2c0-1.07.08-2.17.08-3.31-62-31.43-73.68-33.4-155.19-19.87a86.93 86.93 0 002 13.57q74.12-26.76 147.26 10.6l5.81-1" transform="translate(-801.89 -183.03)"/><path class="cls-9" d="M2578.32 1361.24c3.32-21.38 9.82-42.51 13.14-63.89-39.71-25.77-81.59-47.61-129.23-59l-7.41 28.2c-13.66 2.25-10.59 16.45-10 28.9l-23.08 3.73 1.62 28.21c-11-1.11-14 7.87-12.77 22.12l39.76 27.88-140.83 70.61 43.87 35.65 127-60.84c33.7-13.08 64.22-34.14 97.93-61.54" transform="translate(-801.89 -183.03)"/><path class="cls-11" d="M2446.6 1379.24L2309.52 1448l43.87 35.65 127-60.84c19.61-7.61 38.14-17.92 56.85-30.62l-.94-2.43c-32.28 16.53-60.3 22.53-81.5 11.7-1 7.21 1.67 12.33 5.86 16.61-32.45 12.67-35.09-12.44-2.15-35.62z" transform="translate(-801.89 -183.03)"/><path class="cls-10" d="M2420.31 1327.33c-4.42.4-7.16 2.91-8.62 7 25.15 7 45.29 13.31 68.72 25.09-18.37-16.77-35.73-24-60.1-32.12M2441.12 1296l-19.37 3.13.34 6c32.09 5 60.21 18.29 88.92 32.72-21.86-15.59-44.55-30.22-69.89-41.82M2455.39 1264.36l-.57 2.16c-6.57 1.08-9.27 4.93-10.23 10 35.24 3.54 65.66 20.81 96.6 36.37-26.33-18.78-53.87-36.18-85.8-48.55" transform="translate(-801.89 -183.03)"/><path class="cls-10" d="M2581.62 1343.76c3.33-15.47 7.42-30.87 9.84-46.41-39.33-25.53-80.8-47.2-127.88-58.7l-1.08 6.46c39.6 14.9 82.24 34.41 114.66 59.76 1.05 18.33-.83 36.9-5.88 52.17l10.34-13.28" transform="translate(-801.89 -183.03)"/><path class="cls-12" d="M1316.23 1086.4l71.47-24.98 25.28 40.37-71.76 29.72-24.99-45.11zM1463.58 1032.34l68.27-28.34 29.67 38.18-71.02 28.98-26.92-38.82zM1742.04 924.17l53.05-21.42 32.89 30.81-55.49 21.71-30.45-31.1zM1376.41 1183.54l72.61-30.75 32.74 48.52-77.19 40.34-28.16-58.11zM1530.82 1115.13l68.21-33.19 22.03 30.23-3.35 22.86-52.47 30-34.42-49.9zM1817.8 986.23l48.91-22.69 48.76 41.49-49.82 26.95-47.85-45.75z"/><path class="cls-12" d="M1419.41 1097.54l72.61-30.75 32.74 48.52-77.19 40.34-28.16-58.11zM1565.75 1039.73l59.42-24.88 36 36.03-61.88 33.52-33.54-44.67zM1702.08 985.37l71.64-30.62 37.14 30.19-70.33 35.54-38.45-35.11zM1834.6 929.35l49.15-22.56 37.15 30.2-52.88 26.72-33.42-34.36z"/><path d="M1809.28 306.57c-87.89 29.07-162.81 87.65-166.44 193l50.17 262-10.51 4L1631.86 501l-.11-.56v-.65c3.22-102.88 80.42-174.56 171.81-204.62zM1814.93 546.75c26.36 71.33 5.43 118.39-12.72 164-12.78 32.15-22.57 56.81-7.59 78 62.49 16.79 106.55-18 130.31-36.73 6.31-5 11.3-8.92 15.26-10.88l.62-.31.7-.14c15.18-3.18 24.07-9.24 28.48-16.22a23.05 23.05 0 003.56-12.92c-.51-24.3-9.58-28.29-15.68-35.3 15.59 2.94 26.39 19.83 26.72 35.09a33.9 33.9 0 01-5.25 19c-5.81 9.2-16.78 17.07-34.82 21-3 1.63-7.34 5.06-12.75 9.33-25.55 20.16-73.12 57.72-142 38.23l-1.78-.51-1.12-1.46c-20.32-26.5-9.36-54.08 5-90.29 44.36-92 19.27-158.79 23-160M1934.06 617.72a25.86 25.86 0 008.83 9.7 290.89 290.89 0 0035.77 11c33.82 7.91 61.31 6.58 82.44-2.67 20.79-9.09 35.61-26 44.41-49.48q1.93-5.15 3.5-10.82c-30.29-4.39-65.11-7.4-97-4-32.73 3.53-62.35 13.87-80.44 36.63-.26 2.67.61 6.15 2.46 9.64m3.55 19.41a37 37 0 01-13.33-14.26c-3.32-6.27-4.53-13.06-3.29-18.34l.28-1.16.72-.94c20.16-26.31 52.9-38.09 88.88-42 35.21-3.8 73.5-.05 105.84 4.92l5.92.91-1.36 5.82a144.6 144.6 0 01-5.41 18c-9.88 26.34-26.67 45.41-50.34 55.76-23.32 10.2-53.14 11.79-89.37 3.32a304.11 304.11 0 01-37.61-11.58l-.48-.18z" transform="translate(-801.89 -183.03)"/><path d="M1810.81 636.32c2.1-1.47 4-4.24 5.56-7.6-1 6.46-2.22 12.7-3.63 18.73-42.82 16.5-75.2 17.06-97.93 5.23-23.39-12.18-37.11-36.8-44.29-69.51l-1-4.8 4.69-1.6c28.73-9.79 63.66-14.33 93.93-10.23 19.17 2.59 38 9.44 51 19.81q.36 7.88.17 15.39c-11.45-13.21-31.44-21.38-52.64-24.25-26.91-3.64-57.83 0-84.14 8.2 6.71 27.08 18.44 47.27 37.44 57.16 20.26 10.55 50.27 9.48 90.89-6.53M2169.23 1227.38a419.28 419.28 0 0033.23-60.1l.56-1.25 1.06-.83c41.37-32.54 63.35-118 66.39-214.29 3.16-100.06-12.35-203-49.91-278.93 50.16 34.34 62 247.69 61 279.28-3.11 98.46-26.11 186.49-69.52 221.77a432.78 432.78 0 01-25.73 48.29zm-487.7-467.63l1.9-2 4.92 4.78zM1639.77 831c-34.08 53.72-55 113.42-65.25 172.94-17.77 102.87-3.9 205 28.18 274.66l.49 1.07v1.23c.45 87.11 37.62 143.46 71.22 194.39 35.52 53.85 67.17 101.84 50.18 173.38 74.15-19.48 105.09-74.43 136.89-130.94 28.87-51.3 58.43-103.83 120.77-134.29 37.71-18.45 73-40 104.77-66l7 8.57c-32.46 26.53-68.45 48.52-106.92 67.33-59.23 28.94-87.94 79.94-116 129.74-34.28 60.91-67.58 120.09-153.08 138.46l-9 1.94 2.55-8.86c20.6-71.78-10.89-119.51-46.39-173.32-34.3-52-72.22-109.5-73-199.19-32.58-71.46-46.63-175.52-28.57-280.1 10.59-61.29 32.2-122.81 67.56-178.14zM1805.05 302.1c6.47-1.11 9.08 39.48 87 45.41 64.41 4.9 123-61.95 176.25-36.43 35.41 17 63.9 39.25 82.83 64.31 19.25 25.48 28.67 53.87 25.57 82.63-2.24 20.75-11 41.57-27.28 61.46a50.66 50.66 0 0111 6.16c18.53 13.56 31.39 40.81 37.59 74.69 6.08 33.16 5.88 72.92-1.53 112.35a311.38 311.38 0 01-21.2 68.89l-13.37 2.55a295.22 295.22 0 0023.7-73.48c7.17-38.11 7.38-76.44 1.54-108.32-5.71-31.18-17.1-55.94-33.27-67.77a37.47 37.47 0 00-15.24-6.77l-9.76-1.83 6.69-7.32c18.3-20 27.93-41 30.16-61.78 2.79-25.82-5.83-51.53-23.4-74.8-17.89-23.69-45-44.82-78.76-61-52.88-25.36-92.44 36.69-164.57 37.14-71.34.43-98.34-45.16-102.83-47z" transform="translate(-801.89 -183.03)"/><path d="M2271.43 533a46.8 46.8 0 0130.47 6.65 56.73 56.73 0 0116.65 16.24l.27.39.18.39c4.76 10 7.78 21.88 8.93 34.69 2.15 24-2.35 51.48-14.51 76.29s-32.14 47.24-60.76 60.82l-1.38.64-4.28-10.2 1-.46c26.15-12.41 44.38-32.83 55.56-55.66s15.42-48.32 13.44-70.49a92.39 92.39 0 00-7.75-30.55A45.52 45.52 0 002296.1 549a36 36 0 00-23.46-5.06c-17.53 2-33.52 14.53-44.75 27.53 3.27-16.12 18.49-35.67 43.54-38.52M1648.35 559.36a35.1 35.1 0 00-14.93 5.53 45.83 45.83 0 00-12.33 12.24c-.23.47-.4.85-.53 1.13-9.68 21.76-10.54 52.85-.84 82.49s30 57.59 62.62 73.07c1 .48 1.88.88 2.6 1.2l-4.5 10.09c-1.11-.49-2-.92-2.82-1.29-35.71-16.94-57.87-47.43-68.42-79.65s-9.46-66.29 1.28-90.41c.33-.74.6-1.32.79-1.74l.19-.39.27-.39a57.24 57.24 0 0115.67-15.62 46.22 46.22 0 0119.61-7.21z" transform="translate(-801.89 -183.03)"/><path d="M2290.77 599.57c-3.32-8.79-7.16-13.76-11.21-15.8-3.22-1.62-6.89-1.28-10.7.48-4.58 2.11-9.34 6.15-13.91 11.41-10.72 12.32-19.92 30.62-23.74 46.66 5.67-3.17 10.56-4.16 14.52-3.58a13.36 13.36 0 018.75 5 17.16 17.16 0 013.47 9c1 9.52-7.43 22-19.65 20.64 8-5.17 12.2-16.89 7.53-22.74a2.62 2.62 0 00-1.71-.92c-3.36-.49-8.83 1.94-16.56 9l-9.79 8.95.54-13.23c.84-20.33 13.2-48.69 28.29-66 5.53-6.37 11.53-11.38 17.62-14.18 21.84-10.07 32.56 15.89 26.55 25.36M1629.16 611.05c2.62-13.34 13-25.1 27.72-24l-.82 11c-18.18-1.4-18.16 10.44-26.9 12.93M2275.94 538.77c-5.78-80.21-15.66-127.78-30.17-159.22-14.21-30.8-33.13-46.21-57.19-62.18l-1.13-.75-.67-1.22c-8.9-16.3-23.67-31.4-42.83-44.39-36.84-25-89.61-41.92-148.17-44.51s-123 9.26-182.88 42a366 366 0 00-128 116.69l-7.62-6c37.34-55.11 82.43-94.22 130.32-120.4 61.75-33.75 128.14-46 188.64-43.31s115.44 20.37 153.88 46.42c20.13 13.64 35.84 29.62 45.66 47 25.07 16.74 44.87 33.21 60 66 15.07 32.66 25.28 81.42 31.17 163.08z" transform="translate(-801.89 -183.03)"/><path d="M2020.79 476.47c35.94-4.4 71.61-1.87 110 3.93l8.95 1.35-5.27 7.35c-2.74 3.83-4.12 5.8-5.48 7.74-9.71 13.88-21.17 30.27-34.07 41.14l-1.72 1.45-2.2-.15a574.72 574.72 0 00-82.8.47c-27.55 2-55.23 5.81-83.5 10.7l-2.51.44-2-1.65a37.87 37.87 0 01-10-13.45c-3-6.68-4-13.48-3.73-17.1l.22-3 2.6-1.46c39.23-22 75.41-33.39 111.45-37.8m99.48 13.59c-34.13-4.72-66.12-6.52-98.14-2.6-33.77 4.14-67.71 14.65-104.44 34.83a32.41 32.41 0 002.65 9 27.77 27.77 0 005.19 7.84c27.65-4.72 54.79-8.35 81.89-10.37a588.09 588.09 0 0182.07-.62c11.14-10 21.57-24.86 30.46-37.57zM1743.33 501.55c-30.41-4.22-60.32.26-80.57 6 .24 5.79 2.18 12.35 5.23 18.73a68.14 68.14 0 0014.24 19.85c16.6-3.3 41.23-6.12 65.28-6.78 18.64-.51 37 .28 51.13 3.14 2.59-4.65 6.46-11.67 7.71-15.31-18.87-15-41.06-22.59-63-25.64m-87.61-3.43c21.32-6.61 54.91-12.27 89.12-7.52 24.72 3.43 49.81 12.29 71 30.09l1.79 1.51.17 2.32c.42 5.58-6.32 17.65-10 24.26-.48.85-.88 1.57-1.45 2.63l-2 3.78-4.16-1c-13.58-3.37-32.71-4.3-52.32-3.76-24.68.68-50 3.69-66 7.13l-2.64.56-2.08-1.76c-7.56-6.36-14.38-15.57-19-25.27-4.52-9.47-7-19.55-6.19-28.18l.35-3.67z" transform="translate(-801.89 -183.03)"/><path d="M1394.26 1270.55l-117.27-190.57-3.51-5.69 6.26-2.38 318.59-121.18 3.39-1.3 2.54 2.62 29.67 30.57 88.35-35.52-27.13-26.33-6.19-6.01 8.07-3.1 146.1-56.2 2.79-1.07 2.41 1.72 168.58 120.7 7.55 5.41-8.35 4.07-154.41 75.25-3.5 1.7-2.8-2.74-44.19-43.27-92.11 42.1 36.31 38.13 2.75 2.88-25.32-14.14-27.09-24.85-5.34-5.61 7.05-3.22 102.61-46.91 3.45-1.58 2.72 2.66 44.11 43.19 142.56-69.48-158.62-113.56-135.25 52.02 27.04 26.24 6.1 5.91-7.89 3.18-99.69 40.07-3.43 1.38-2.58-2.66-29.72-30.62-308.94 117.52 111.17 180.65 208.69-98.52-2.15 8.88 3.71 2.61-210.01 99.15-4.49 2.12-2.59-4.22z"/><path d="M1409.58 1232.02l205.4-97.13-.51 7.8-1.28 5.27-203.37 96.18-4.49 2.12-2.59-4.22-92.84-150.86-3.51-5.7 6.26-2.38 279.93-106.47 3.39-1.3 2.54 2.62 29.86 30.77 135.53-54.9-28.06-24.43-6.91-6.02 8.55-3.31 102.5-39.72 2.79-1.08 2.43 1.75 128.45 92.56 7.53 5.42-8.35 4.03-106.9 51.66-3.21 1.55-2.75-2.31-48.73-41.04-134.97 63.13 11.16 11.76-27.09-12.48-2.64-2.78 6.95-3.25 145.11-67.88 3.19-1.49 2.7 2.27 48.69 41.02 95.33-46.08-118.49-85.38-91.16 35.33 27.95 24.33 6.8 5.92-8.36 3.39-147.32 59.68-3.45 1.39-2.59-2.67-29.93-30.83-270.28 102.81 86.74 140.95z"/><path d="M2560.89 1283.76l3.06-.06v1.49zM2086 1257l8.83 54 109 182.4 242.45-119.84 8.23 7.48-250.36 124.53-4.57 2.26-2.61-4.38-112.14-187.69-.54-.92-.17-1-8.38-56.68z" transform="translate(-801.89 -183.03)"/><path d="M1735.31 1081.59l70.51-30.48 3.18-1.38 2.62 2.26 48.64 41.99 148.92-70.02 3.89-42.66 11 .99-4.19 45.82-.28 3.15-2.83 1.35-155 72.92-3.25 1.54-2.75-2.37-48.76-42.09-65.13 26.18-6.57-7.2zM1689.11 914.72h11.08v47.69h-11.08z"/><path transform="rotate(-.91 -9712.56 51879.103)" d="M2195.75 1450.68h11.04v50h-11.04z"/><path d="M1814.31 1013.81l-1.52 45.22-11.04-.34 1.52-45.23 11.04.35zM1864.79 1056.54l.28 41.39-11.04.04-.27-41.39 11.03-.04z"/><path transform="rotate(-49.89 2005.698 1930.957)" d="M2597.88 1079.39h11.03v162.2h-11.03z"/><path d="M1536.14 1003.51l103 114.67-21.21-7.05-90.01-100.22 8.22-7.4z"/><path transform="rotate(-22.11 1542.959 3165.779)" d="M2121.74 1199.61h581.3v11.07h-581.3z"/><path d="M1920.49 945.48l-541.83 243.1-4.5-10.08 541.83-243.1 4.5 10.08z"/><path transform="rotate(-37.69 1646.217 2364.315)" d="M2309.88 1196.5h11.05v169.21h-11.05z"/><path transform="rotate(-34.61 1543.124 2509.256)" d="M2231.94 1229.53h11.05v168.57h-11.05z"/><path transform="rotate(-49.89 1924.78 1957.23)" d="M2517.01 1160.74h11.03v52.02h-11.03z"/><path d="M1598.53 977.97l85 88-23.19-10.68-.47 2.09-69.3-71.75 7.96-7.66z"/><path transform="rotate(-49.89 2061.797 1905.756)" d="M2653.98 1054.18h11.03v162.2h-11.03z"/><path d="M1470.25 791.01l36.84 50.81 1 .67.64 1.06 74.95 123.53-9.43 5.71-74.31-122.46-35.84-50.15 6.15-9.17z"/><path d="M1828.53 1580a836.08 836.08 0 00139.74 8.21c77.84-1.79 156.38-13.64 235.44-33.12q3.12-28.77 5.36-57.83l11.5-5.56q-2.52 34.47-6.29 68.43l-.42 3.82-3.75.94c-81 20.21-161.62 32.52-241.62 34.36a847.25 847.25 0 01-146-9zM2459.69 1271.62c-5.38-6-9.27-7.79-9.75-17.29a29.38 29.38 0 018.63-22.73l2.61-2.67 3.47 1.46c8.61 3.63 18 7.18 27.62 10.8 34.84 13.14 72 27.17 99.19 56.16l1.61 1.72-.12 2.31a212 212 0 01-4 31.63 272.65 272.65 0 01-7.45 28.47l-.35 1.1-.75.87a244.74 244.74 0 01-49.54 43.67c-16.58 10.83-33.68 18.45-49.68 21.16-2.86 1.32-8.44 4.31-15.72 8.21-26.93 14.43-76.7 41.1-109.72 47.2l-1.2.22-1.14-.29c-16.52-4.15-32.18-18-46.86-30.9l-.67-.59 7.32-8.27.66.58c13.34 11.76 27.56 24.3 41.11 28.18 31.37-6.23 79.24-31.88 105.29-45.84 8-4.3 14-7.51 17.16-8.87l.65-.28.67-.11c14.55-2.34 30.44-9.44 46.06-19.64a232.69 232.69 0 0046.49-40.81 260.48 260.48 0 006.84-26.19 200.31 200.31 0 003.66-27.66c-25.24-25.94-60.42-39.22-93.4-51.65-8.19-3.09-16.25-6.14-24.23-9.4a18.59 18.59 0 00-3.17 11.63 30.22 30.22 0 007.66 17.82z" transform="translate(-801.89 -183.03)"/><path d="M2541.19 1312.91c-19.23-14-64.18-37.9-91.62-39.91a26.88 26.88 0 00-1.55 13.35c.79 7.24 3.54 13.85 6.68 16.59l-9.94 3c-5.08-4.41-6.65-8.59-7.73-18.45-.9-8.29.37-17.11 5.2-23.83l2-2.75 3.35.52c32.13 5 74.8 24.27 93.64 51.45" transform="translate(-801.89 -183.03)"/><path d="M2510.45 1336.52c-19.89-14.73-60.91-30.71-83.17-35.21-2.3 6.41-1.79 21.81 1.14 27.23l-10.1-2.36c-4.81-8.89-3.45-26.56 2.19-35l2.35-2.74 3.45 1c25.34 7.72 71.87 23 84.14 47.08M2480.41 1359.45c-19.21-14.87-41.83-24.16-61.48-29.61-2.78 4.91-4.95 18.15-.49 22.05 17.94 11.11 39.34 23.54 45.87 40.5-15.8-15.82-32.6-25.57-53-33.9l-.7-.49-.51-.66c-7-9.06-6-29.16 2.89-37.93l2.38-2.34c10.7 3.44 61.52 27.94 65 42.38M2294.67 688c9.17 16.2 15.33 31.31 19.14 46.25a169.67 169.67 0 015.07 44.35c17.34 48.7 18.63 88.1 11.7 118.94-10.09 44.87-37.61 71.75-58.74 83l.59-13.17c19.05-10.18 38.13-31.19 47.37-72.29 6.57-29.23 5.22-66.84-11.64-113.74l-.34-.95v-1a159.61 159.61 0 00-4.75-42.48c-3.59-14-9.39-28.27-18-43.52z" transform="translate(-801.89 -183.03)"/><path class="cls-3" d="M2036.34 577.69a11.59 11.59 0 11-11.59 11.59 11.59 11.59 0 0111.59-11.59m-12.22-7.23a37.64 37.64 0 11-37.64 37.63 37.63 37.63 0 0137.64-37.63zM1783.92 585.54a10.95 10.95 0 11-11 10.94 10.94 10.94 0 0111-10.94m-11.54-6.84a35.56 35.56 0 11-35.55 35.55 35.55 35.55 0 0135.55-35.55zM1592.35 1290.14l11.11 2c.93-60.16 6.18-121.19 23.41-184.61-23.85 58.17-31.55 119.88-34.52 182.62M1942.69 1425l-9.79-5.63c38-46.63 81-147.18 60.92-227.66 37 84.79-13 183.38-51.13 233.29M2201.76 1188.93l-7.88-2.75c21.25-39 37.69-114.5 22.89-172.64 27.68 68.23 9.64 137.85-15 175.39" transform="translate(-801.89 -183.03)"/><path d="M1788.93 643.16a40.16 40.16 0 00-59.2 0 47.11 47.11 0 000 63.75 40.16 40.16 0 0059.2 0 47.11 47.11 0 000-63.75m-29.6-24.1a51.59 51.59 0 0137.67 16.53 58.09 58.09 0 010 78.9 51.16 51.16 0 01-75.3 0 58.09 58.09 0 010-78.9 51.61 51.61 0 0137.63-16.53zM2008 636a46.78 46.78 0 00-65.81 0 46 46 0 000 65.32 46.78 46.78 0 0065.81 0 46 46 0 000-65.32m-32.9-24.61a57.51 57.51 0 0140.69 16.78 57 57 0 010 81 57.76 57.76 0 01-81.39 0 57 57 0 010-81 57.55 57.55 0 0140.66-16.8z" transform="translate(-801.89 -183.03)"/><path d="M1800.7 658.94a55.43 55.43 0 016.58-8c11.33-11.5 28.43-19.47 47.4-21.32a88.87 88.87 0 0158.47 15 99.58 99.58 0 0114.41 11.81l-7.75 7.87a90 90 0 00-12.8-10.5 78 78 0 00-51.29-13.19c-16.36 1.6-31 8.35-40.57 18.08a44.34 44.34 0 00-5.27 6.42z" transform="translate(-801.89 -183.03)"/><path class="cls-2" d="M2150.7 1277.6a9.8 9.8 0 01-5.92-6.22l-.44-1.34 1.8-.37c4.34-.89 7.83-.58 10.68.63-1-2.44-.74-5.18 1.35-8.26l.88-1.29 1.56.64c4.19 1.75 6.31 4.14 7 7 1.78-2.8 4.83-5 9.72-6.07l1.79-.4.26 1.38a9.39 9.39 0 01-2.16 8.29 17.43 17.43 0 011.93-.43 16.75 16.75 0 018.92 1l1.58.62-1 1.23a16 16 0 01-8.34 5.35 10.17 10.17 0 016.34 6l.52 1.31-1.79.44a18.9 18.9 0 01-9.73.1l-.63-.2c1 2.34.9 5-1 8l-.8 1.32-1.6-.59c-5.22-1.92-7.45-4.91-7.72-8.57-1.75 3.67-5.14 6.51-11.14 7.63l-1.81.33-.18-1.39a9.68 9.68 0 012.7-8.28 16.22 16.22 0 01-10.9-1l-1.52-.68 1.1-1.19a16.44 16.44 0 018.6-5.07" transform="translate(-801.89 -183.03)"/><path class="cls-13" d="M2167.15 1276.19c.14-6.13 2.77-10.9 10.48-12.61 1.13 6-3 9.74-10.48 12.61M2163.63 1281.27c-.51 6.14-3.41 10.83-11.19 12.27-.76-6 3.55-9.66 11.19-12.27" transform="translate(-801.89 -183.03)"/><path class="cls-14" d="M2168.92 1277.91c5.5-4.79 11.47-7.21 18.22-4.54-4.51 5.36-10.6 6.19-18.22 4.54M2161.89 1279.47c-5.76 4.61-11.85 6.82-18.41 3.91 4.82-5.22 10.92-5.83 18.41-3.91" transform="translate(-801.89 -183.03)"/><path class="cls-13" d="M2168.54 1279.91c7.95-.93 14.14.27 16.37 5.92-7.78 1.9-12.65-.62-16.37-5.92M2162.39 1277.48c-8 .65-14-.78-15.94-6.52 7.87-1.63 12.55 1.07 15.94 6.52" transform="translate(-801.89 -183.03)"/><path class="cls-14" d="M2166.51 1281.3c6.23 3.42 9.37 7.61 5.91 13.27-7-2.56-8-7.11-5.91-13.27M2164.77 1276.09c-6-3.64-8.86-8-5.08-13.51 6.76 2.82 7.57 7.41 5.08 13.51" transform="translate(-801.89 -183.03)"/><path class="cls-13" d="M2165.82 1276.58c1.54.07 2.61 1.1 2.39 2.3a3 3 0 01-3.19 2c-1.54-.07-2.61-1.09-2.39-2.29a3 3 0 013.19-2.05" transform="translate(-801.89 -183.03)"/><path class="cls-2" d="M2400.32 1231.6a10.55 10.55 0 01-6.94-6.08l-.6-1.39 1.89-.58c4.56-1.37 8.32-1.37 11.48-.35-1.3-2.52-1.29-5.48.66-9l.81-1.47 1.73.54c4.65 1.47 7.15 3.82 8.11 6.8 1.64-3.17 4.7-5.8 9.82-7.44l1.88-.6.41 1.45a10.09 10.09 0 01-1.51 9.08 17.11 17.11 0 012-.64 17.76 17.76 0 019.64.24l1.74.51-1 1.41a17.1 17.1 0 01-8.41 6.53 10.92 10.92 0 017.36 5.78l.69 1.36-1.87.64a20.27 20.27 0 01-10.4 1c-.23 0-.47-.09-.69-.15 1.33 2.4 1.43 5.27-.27 8.71l-.73 1.49-1.77-.48c-5.77-1.55-8.44-4.53-9.09-8.43-1.51 4.1-4.87 7.47-11.18 9.24l-1.9.54-.32-1.47a10.39 10.39 0 012.08-9.12 17.43 17.43 0 01-11.74 0l-1.7-.58 1.07-1.38a17.56 17.56 0 018.71-6.25" transform="translate(-801.89 -183.03)"/><path class="cls-13" d="M2417.77 1228.5c-.43-6.57 1.91-11.92 10-14.51 1.79 6.31-2.24 10.72-10 14.51M2414.5 1234.27c0 6.62-2.6 11.92-10.79 14.22-1.39-6.41 2.86-10.69 10.79-14.22" transform="translate(-801.89 -183.03)"/><path class="cls-14" d="M2419.83 1230.17c5.42-5.66 11.58-8.82 19.06-6.62-4.31 6.17-10.74 7.65-19.06 6.62M2412.46 1232.52c-5.71 5.49-12 8.44-19.31 6 4.65-6 11.12-7.29 19.31-6" transform="translate(-801.89 -183.03)"/><path class="cls-13" d="M2419.62 1232.35c8.42-1.77 15.15-1.08 18.09 4.75-8.15 2.78-13.59.56-18.09-4.75M2412.81 1230.34c-8.47 1.47-15.11.52-17.68-5.44 8.25-2.5 13.53-.06 17.68 5.44" transform="translate(-801.89 -183.03)"/><path class="cls-14" d="M2417.59 1234c7 3 10.75 7.24 7.6 13.63-7.69-2.08-9.29-6.83-7.6-13.63M2415.21 1228.63c-6.76-3.33-10.24-7.67-6.73-14 7.51 2.36 8.81 7.2 6.73 14" transform="translate(-801.89 -183.03)"/><path class="cls-13" d="M2416.39 1229.05c1.66-.07 2.9.92 2.78 2.22s-1.56 2.42-3.22 2.5-2.9-.92-2.77-2.22 1.56-2.42 3.21-2.5" transform="translate(-801.89 -183.03)"/><path class="cls-2" d="M2575.63 1112.47a7.89 7.89 0 01-5.1-4.36l-.46-1 1.34-.41a13.62 13.62 0 018.22-.25c-1-1.8-1.05-3.92.27-6.43l.55-1 1.25.39c3.36 1.05 5.21 2.73 6 4.87 1.11-2.27 3.24-4.16 6.87-5.33l1.33-.43.33 1a7.13 7.13 0 01-.89 6.5 14.19 14.19 0 011.44-.46 12.92 12.92 0 016.91.17l1.26.37-.68 1a11.78 11.78 0 01-5.88 4.68 8.15 8.15 0 015.4 4.14l.52 1-1.33.46a14.45 14.45 0 01-7.42.75l-.5-.11a6.37 6.37 0 010 6.24l-.49 1.06-1.28-.34c-4.16-1.11-6.15-3.24-6.69-6-1 2.94-3.32 5.35-7.81 6.62l-1.35.39-.26-1.06a7.29 7.29 0 011.29-6.53 12.49 12.49 0 01-8.41 0l-1.23-.42.74-1a12 12 0 016.1-4.47" transform="translate(-801.89 -183.03)"/><path class="cls-13" d="M2588.07 1110.25c-.46-4.71 1.1-8.54 6.84-10.39 1.42 4.52-1.37 7.67-6.84 10.39M2585.85 1114.38c.17 4.74-1.61 8.53-7.42 10.18-1.14-4.59 1.82-7.65 7.42-10.18" transform="translate(-801.89 -183.03)"/><path class="cls-14" d="M2589.58 1111.44c3.75-4 8.1-6.32 13.51-4.74-3 4.42-7.53 5.48-13.51 4.74M2584.35 1113.12c-4 3.94-8.43 6.05-13.7 4.27 3.19-4.33 7.8-5.22 13.7-4.27" transform="translate(-801.89 -183.03)"/><path class="cls-13" d="M2589.47 1113c6-1.27 10.83-.77 13.06 3.41-5.77 2-9.72.39-13.06-3.41M2584.55 1111.56c-6 1.06-10.81.38-12.78-3.89 5.86-1.79 9.69-.05 12.78 3.89" transform="translate(-801.89 -183.03)"/><path class="cls-14" d="M2588.05 1114.21c5.08 2.18 7.86 5.18 5.74 9.76-5.55-1.49-6.8-4.9-5.74-9.76M2586.24 1110.34c-4.92-2.38-7.51-5.49-5.13-10 5.43 1.69 6.47 5.16 5.13 10" transform="translate(-801.89 -183.03)"/><path class="cls-13" d="M2587.09 1110.64c1.18-.05 2.09.66 2 1.59a2.24 2.24 0 01-2.25 1.79c-1.19 0-2.1-.66-2-1.59a2.22 2.22 0 012.25-1.79" transform="translate(-801.89 -183.03)"/><path class="cls-2" d="M2209.48 1376.3a13.34 13.34 0 01-8.06-8.39l-.59-1.81 2.45-.5c5.9-1.21 10.64-.79 14.51.85-1.35-3.29-1-7 1.85-11.15l1.19-1.74 2.12.87c5.69 2.36 8.58 5.58 9.46 9.42 2.42-3.78 6.57-6.73 13.21-8.2l2.44-.54.36 1.86a12.62 12.62 0 01-2.94 11.19 22.32 22.32 0 012.63-.58 22.87 22.87 0 0112.12 1.39l2.14.84-1.41 1.66a21.75 21.75 0 01-11.34 7.21 13.79 13.79 0 018.62 8.06l.71 1.78-2.43.59a25.82 25.82 0 01-13.23.13c-.29-.08-.57-.17-.85-.27 1.41 3.16 1.21 6.75-1.32 10.87l-1.1 1.78-2.17-.8c-7.1-2.59-10.13-6.62-10.5-11.57-2.38 5-7 8.79-15.14 10.3l-2.47.45-.24-1.87a13 13 0 013.67-11.18 22.29 22.29 0 01-14.81-1.29l-2.08-.92 1.51-1.61a22.27 22.27 0 0111.69-6.83" transform="translate(-801.89 -183.03)"/><path class="cls-13" d="M2231.84 1374.39c.2-8.27 3.76-14.7 14.25-17 1.53 8.1-4 13.15-14.25 17M2227.06 1381.24c-.7 8.29-4.64 14.61-15.22 16.56-1-8.17 4.82-13 15.22-16.56" transform="translate(-801.89 -183.03)"/><path class="cls-14" d="M2234.25 1376.72c7.47-6.48 15.6-9.74 24.78-6.14-6.15 7.23-14.42 8.36-24.78 6.14M2224.69 1378.82c-7.83 6.22-16.12 9.2-25 5.27 6.55-7 14.85-7.87 25-5.27" transform="translate(-801.89 -183.03)"/><path class="cls-13" d="M2233.73 1379.42c10.81-1.27 19.22.36 22.26 8-10.58 2.56-17.2-.84-22.26-8M2225.37 1376.13c-10.84.88-19.11-1.05-21.67-8.8 10.69-2.19 17.06 1.45 21.67 8.8" transform="translate(-801.89 -183.03)"/><path class="cls-14" d="M2231 1381.29c8.47 4.61 12.74 10.27 8 17.9-9.46-3.46-10.93-9.59-8-17.9M2228.6 1374.26c-8.14-4.92-12-10.75-6.9-18.23 9.19 3.8 10.29 10 6.9 18.23" transform="translate(-801.89 -183.03)"/><path class="cls-13" d="M2230 1374.92c2.1.1 3.55 1.48 3.25 3.1s-2.24 2.85-4.33 2.76-3.55-1.48-3.25-3.1 2.24-2.85 4.33-2.76" transform="translate(-801.89 -183.03)"/><path class="cls-2" d="M2651.81 1176.35a10 10 0 01-6.07-6.31l-.44-1.36 1.84-.38c4.44-.91 8-.6 10.93.64-1-2.48-.76-5.27 1.39-8.4l.9-1.31 1.59.66c4.29 1.77 6.47 4.2 7.13 7.09 1.82-2.85 5-5.07 10-6.17l1.84-.41.26 1.4a9.5 9.5 0 01-2.21 8.43 17.82 17.82 0 012-.44 17.23 17.23 0 019.13 1l1.61.63-1.06 1.25a16.42 16.42 0 01-8.54 5.43 10.38 10.38 0 016.49 6.07l.53 1.34-1.83.44a19.35 19.35 0 01-10 .1l-.64-.2c1.06 2.38.91 5.08-1 8.18l-.82 1.34-1.63-.6c-5.35-2-7.64-5-7.91-8.71-1.79 3.73-5.26 6.62-11.41 7.75l-1.85.35-.18-1.42a9.75 9.75 0 012.76-8.41 16.76 16.76 0 01-11.15-1l-1.57-.69 1.14-1.22a16.84 16.84 0 018.8-5.15" transform="translate(-801.89 -183.03)"/><path class="cls-13" d="M2668.65 1174.92c.15-6.23 2.83-11.07 10.73-12.82 1.16 6.1-3 9.91-10.73 12.82M2665.05 1180.08c-.53 6.24-3.5 11-11.46 12.47-.78-6.15 3.63-9.82 11.46-12.47" transform="translate(-801.89 -183.03)"/><path class="cls-14" d="M2670.46 1176.67c5.63-4.87 11.75-7.33 18.66-4.62-4.62 5.45-10.85 6.29-18.66 4.62M2663.26 1178.25c-5.89 4.69-12.13 6.93-18.84 4 4.93-5.29 11.18-5.92 18.84-4" transform="translate(-801.89 -183.03)"/><path class="cls-13" d="M2670.07 1178.7c8.14-1 14.48.28 16.77 6-8 1.92-13-.64-16.77-6M2663.78 1176.23c-8.16.66-14.39-.79-16.32-6.63 8.05-1.65 12.85 1.1 16.32 6.63" transform="translate(-801.89 -183.03)"/><path class="cls-14" d="M2668 1180.12c6.37 3.46 9.59 7.73 6.05 13.47-7.12-2.6-8.23-7.22-6.05-13.47M2666.21 1174.82c-6.13-3.7-9.07-8.09-5.2-13.73 6.93 2.87 7.75 7.54 5.2 13.73" transform="translate(-801.89 -183.03)"/><path class="cls-13" d="M2667.29 1175.32c1.58.07 2.67 1.11 2.45 2.33a3.09 3.09 0 01-3.27 2.08c-1.58-.07-2.67-1.12-2.45-2.33a3.09 3.09 0 013.27-2.08" transform="translate(-801.89 -183.03)"/><path d="M1954.57 736.88c44-14.61 70.55 1.06 99.25 18s60 35.4 115.35 21.39l13.07-3.31-6.58 11.78c-13.73 24.59-35.47 44-61.59 58.34-35 19.16-77.91 29.16-119.94 30s-83.41-7.59-115-25.25c-20-11.15-36.14-26-46.32-44.59l10.21-5.56c9.06 16.54 23.64 29.87 41.76 40 29.81 16.64 69 24.57 109.19 23.79s81.23-10.31 114.54-28.55c20-11 37.24-25.1 49.71-42.34-51.45 9.09-81.93-8.9-110.29-25.63-26.34-15.55-52.42-30-91.39-17z" transform="translate(-801.89 -183.03)"/><path d="M1777.92 760.58c-52-14.9-73.55-.09-94.63 14.38-19.25 13.21-38.14 26.18-75.24 20.29 11.29 15.6 26.22 28 43.1 37.3 23.06 12.63 49.71 19.29 75.79 19.9s51.39-4.8 72-16.29c15-8.41 27.53-20.09 35.73-35.07l10.21 5.56c-9.32 17-23.38 30.22-40.29 39.67-22.41 12.51-49.85 18.39-77.84 17.75s-56.48-7.79-81.17-21.32c-22.59-12.37-42-30.12-54.89-53.17l-6.57-11.78 13.07 3.31c41.35 10.46 60.26-2.51 79.57-15.77 23.31-16 47.16-32.37 104.37-16z" transform="translate(-801.89 -183.03)"/><path class="cls-3" d="M1893.11 855.67c-38.57 39.5-78.17 35.87-98.5.54 30.89 25.68 57.53 25 98.5-.54M1137.73 1444.08l.54 1.75-11 2.44-10.48 4.19-.54-1.75L991 1478.44l-4-6.35c-27.15-43.62-63.3-77.86-106.46-105.38l-21.41-13.66 24.78-5.58 41.95-9.43 8.54-1.92 3.48 8c3.65 8.41 10.26 17.12 20.49 15.93 5.81-.67 12.55-5.07 13.83-11.09.93-4.34-1.79-7.94-4.93-10.62l-5.86-5 3-7.11c3.61-8.67 6.5-18.93 9.16-28l2.33-8 8.33.41a79.4 79.4 0 018.06 1.16c4.24.68 8.48 1.33 12.73 1.9s8.65 1.14 12.91 1.28l8.88.29 1.25 8.8c.84 5.93 3.53 13.78 10.66 14a12.3 12.3 0 0010.83-6.38c3.51-6.43.33-14.19-3.38-19.75l-3.54-5.32 17.26-31.69 4.93-9.08 41.31 21.19.06 6.39c.07 6.68 1.81 14.89 8.34 18.22a12.3 12.3 0 0012.54-.82c5.74-4.24 3.55-12.23.9-17.61l-3.92-8 7.17-5.24a129.41 129.41 0 0010-8.33c3.19-2.87 6.33-5.8 9.45-8.74 1.84-1.73 4-4 6-5.5l6.66-5 6.44 5.3c7.3 6 15.48 12.86 23.34 18l6.45 4.21-2 7.43c-1.09 4-1.3 8.5 1.91 11.56 4.45 4.24 12.49 4.09 17.68 1.37 9.12-4.77 9.68-15.7 8-24.7l-1.65-8.6 8.14-3.22 40-15.83 23.62-9.36-10 23.35c-20.16 47.06-30.75 95.71-28.62 147l.31 7.48z" transform="translate(-801.89 -183.03)"/><path class="cls-3" d="M2152.66 1590.67h1.81-1.81m-1.83.09l1.83-.09zm-1.86.14l1.86-.14c-.62.03-1.24.08-1.83.14zm-1.86.21l1.86-.21zm-1.89.26l1.89-.26zm-1.89.33l1.89-.33zm-1.9.38l1.9-.38c-.63.12-1.27.24-1.9.38zm-1.91.44l1.91-.44c-.64.13-1.27.28-1.91.44zm-1.91.49l1.91-.49c-.63.15-1.27.31-1.91.48zm-1.9.54l1.9-.54c-.61.17-1.27.35-1.9.54zm-1.9.6l1.9-.6c-.64.19-1.27.39-1.9.6zm-1.9.65l1.9-.65zm-1.88.7l1.88-.7zm-1.87.75l1.87-.75zm-1.86.8l1.86-.8zm-1.83.85l1.83-.85zm-1.81.89l1.81-.89zm-1.79.94l1.79-.94c-.6.31-1.2.62-1.79.94zm-1.76 1l1.76-1zm-1.73 1l1.73-1c-.58.32-1.11.66-1.73 1.01zm-1.69 1.06l1.69-1.06c-.57.35-1.13.71-1.69 1.07zm-1.65 1.11l1.65-1.11q-.84.55-1.69 1.12zm-1.62 1.14l1.62-1.14q-.83.57-1.62 1.15zm-1.57 1.19l1.57-1.19c-.53.4-1.05.8-1.57 1.2zm-1.52 1.22l1.52-1.22zm-1.47 1.26l1.47-1.26q-.75.62-1.47 1.27zm-1.42 1.29l1.42-1.29c-.48.43-.96.86-1.42 1.29zm-1.37 1.33l1.37-1.33c-.44.45-.92.89-1.37 1.34zm-1.3 1.36l1.3-1.36c-.44.46-.88.91-1.3 1.37zm-1.25 1.39l1.25-1.39c-.43.47-.84.93-1.25 1.4zm-1.17 1.42l1.17-1.42c-.4.48-.79.92-1.17 1.43zm-1.11 1.46l1.11-1.46c-.35.5-.76.98-1.11 1.5zm83.57-8.74l.24 1.19zm-.27-1.15l.27 1.15zm-.29-1.11l.29 1.11c-.09-.37-.19-.74-.29-1.07zm-.33-1.06l.33 1.06c-.11-.35-.25-.71-.33-1.05zm-.35-1l.35 1c-.11-.34-.23-.69-.35-1.02zm-.39-1l.39 1c-.12-.36-.25-.68-.39-1.01zm-.42-.94l.42.94c-.13-.33-.27-.64-.42-.9zm-.46-.9l.46.9c-.15-.32-.3-.62-.46-.91zm-.5-.87l.5.87c-.16-.31-.3-.59-.5-.88zm-.54-.82l.54.82c-.17-.29-.35-.56-.54-.83zm-.58-.79l.58.79c-.19-.28-.38-.54-.58-.8zm-.63-.74l.63.74c-.2-.26-.41-.51-.63-.75zm-.67-.71l.67.71c-.21-.25-.44-.49-.67-.72zm-.72-.67l.72.67c-.23-.24-.47-.46-.72-.68zm-.77-.63l.77.63c-.25-.22-.5-.46-.77-.64zm-.82-.59l.82.59c-.26-.21-.54-.41-.82-.6zm-.87-.55l.87.55c-.28-.24-.57-.38-.87-.56zm-.93-.52l.93.52c-.3-.19-.61-.37-.93-.53zm-1-.48l1 .48q-.48-.26-.99-.49zm-1-.45l1 .45c-.33-.17-.67-.31-1.03-.46zm-1.11-.4l1.11.4c-.39-.15-.76-.24-1.14-.41zm-1.16-.38l1.16.38c-.41-.14-.79-.27-1.16-.39zm-1.24-.33l1.24.33c-.43-.12-.84-.24-1.27-.34zm-1.29-.3l1.29.3q-.66-.13-1.32-.31zm-1.37-.27l1.37.27c-.47-.11-.93-.2-1.4-.28zm-1.43-.23l1.43.23zm-1.51-.19l1.51.19c-.52-.08-1.02-.15-1.54-.2zm-1.58-.17l1.58.17zm-1.65-.12l1.65.12c-.58-.05-1.12-.1-1.68-.13zm-1.73-.1l1.73.1zm-1.81-.06l1.81.06c-.62-.04-1.2-.06-1.84-.07zm-1.89 0h1.89zM2482.53 1472l.38.11zm4.21 11l.31 1.32c-.05-.47-.2-.91-.31-1.32zm-.64-2.53l.32 1.25c-.1-.46-.21-.87-.32-1.28zm-.33-1.2l.33 1.2q-.17-.65-.33-1.23zm-.34-1.15l.34 1.15c-.11-.43-.23-.81-.34-1.18zm-.35-1.09l.35 1.09c-.11-.41-.23-.77-.35-1.12zm-.35-1l.35 1c-.08-.39-.23-.73-.35-1.03zm-.35-1l.35 1c-.11-.39-.23-.71-.35-1.03zm-.36-.87l.36.87q-.18-.47-.38-.88zm-.37-.79l.37.79c-.12-.29-.24-.56-.37-.8zm-.37-.7l.37.7a7.81 7.81 0 00-.37-.71zm-.37-.6l.37.6c-.12-.23-.28-.43-.37-.61zm290.24 141.87l-101 92.8zM2713.46 1451l.19 1.17c-.06-.35-.12-.75-.19-1.17zm-.21-1.17l.21 1.17q-.11-.56-.21-1.13zm26.11 25.54l.33.15zm-.43-.14l.43.14zm-.5-.14l.49.13zm-.53-.13l.53.13zm9.51 18.93l.47 1.71-.47-1.67zm-.49-1.68l.49 1.68c-.16-.52-.33-1.08-.49-1.64zm-.49-1.66l.49 1.66c-.16-.52-.33-1.07-.49-1.62zm-.51-1.63l.51 1.63c-.17-.55-.34-1.06-.51-1.55zm-.51-1.58l.51 1.58c-.17-.5-.34-1.02-.51-1.54zm-.51-1.53l.51 1.53q-.25-.74-.51-1.49zm-.53-1.47l.53 1.47c-.18-.46-.35-.95-.53-1.43zm-.52-1.39l.52 1.39c-.17-.44-.37-.9-.52-1.34zm-.52-1.32l.52 1.32zm-.53-1.22l.53 1.22zm-.53-1.12l.53 1.12c-.18-.35-.35-.72-.53-1.08zm-.52-1l.52 1c-.17-.29-.35-.65-.52-.97zm-.53-.89l.53.89c-.18-.29-.35-.59-.53-.86zm-.51-.76l.51.76c-.17-.25-.34-.5-.51-.73zm-.52-.63l.52.63a7.29 7.29 0 00-.52-.64zm-.5-.48l.5.48a5.55 5.55 0 00-.5-.45zm166.24 171.82l.28 1c-.09-.3-.21-.63-.28-.97zm-.31-1l.31 1c-.1-.35-.2-.65-.31-1zm-.33-1l.33 1zm-.36-1.07l.36 1.07zm-.38-1.08l.38 1.08c-.12-.4-.25-.76-.38-1.12zm-.4-1.1l.4 1.1c-.13-.41-.26-.77-.4-1.14zm-.43-1.1l.43 1.1c-.15-.41-.28-.77-.43-1.1zm-.45-1.11l.45 1.11zm-.48-1.11l.48 1.11zm-.51-1.11l.51 1.11a20.8 20.8 0 00-.51-1.15zm-.52-1.1l.52 1.1c-.17-.4-.34-.77-.52-1.14zm-.56-1.09l.56 1.09zm-.58-1.08l.58 1.08c-.2-.4-.38-.77-.58-1.12zm-.6-1.07l.6 1.07c-.19-.4-.39-.75-.62-1.11zm-.63-1l.63 1c-.2-.39-.41-.74-.63-1.08zm-.65-1l.65 1c-.21-.43-.39-.77-.65-1.1zm-.69-1l.69 1zm-.7-1l.7 1zm-.74-.93l.74.93c-.24-.33-.49-.69-.74-.99zm-.76-.9l.76.9c-.25-.4-.5-.66-.76-.96zm-.79-.85l.79.85a9.06 9.06 0 00-.79-.91zm-.81-.81l.81.81c-.26-.34-.53-.6-.81-.87zm-.84-.76l.84.76zm-.87-.71l.87.71zm-.89-.65l.89.65zm-.93-.6l.93.6c-.31-.27-.65-.47-.93-.66zm-.95-.53l.95.53c-.31-.25-.63-.43-.95-.59zm-1-.47l1 .47c-.32-.23-.64-.39-.97-.53zm-1-.4l1 .4c-.3-.21-.64-.34-.98-.46zm201.89 54.66l.44 1.66c-.1-.61-.27-1.17-.42-1.72zm-.47-1.67l.47 1.67c-.14-.61-.29-1.17-.45-1.73zm-.5-1.68l.5 1.68c-.14-.62-.31-1.18-.48-1.71zm-.53-1.69l.53 1.69c-.15-.62-.33-1.19-.51-1.75zm-.55-1.69l.55 1.69c-.16-.63-.34-1.19-.53-1.75zm-.59-1.7l.59 1.7c-.17-.65-.37-1.19-.61-1.76zm-.61-1.68l.61 1.68a23.6 23.6 0 00-.59-1.74zm-.66-1.68l.66 1.68c-.2-.63-.41-1.19-.64-1.74zm-.69-1.67l.69 1.67c-.2-.59-.43-1.17-.67-1.73zm-.72-1.65l.72 1.65q-.33-.92-.7-1.71zm-.77-1.62l.77 1.62c-.23-.6-.49-1.14-.75-1.68zm-.8-1.6l.8 1.6c-.24-.6-.5-1.14-.78-1.65zm-.85-1.57l.85 1.57c-.25-.59-.54-1.12-.83-1.63zm-.88-1.54l.88 1.54c-.26-.58-.56-1.1-.86-1.6zm-.94-1.5l.94 1.5c-.29-.57-.6-1.07-.92-1.56zm-.93-1.4l.93 1.4c-.28-.53-.59-1-.91-1.44zm-1.07-1.47l1 1.35c-.32-.52-.65-.92-.98-1.41zm-1.08-1.37l1.08 1.37c-.33-.57-.69-.98-1.1-1.43zm-1.12-1.3l1.12 1.3c-.34-.5-.72-.94-1.1-1.36zm-1.18-1.25l1.18 1.25c-.37-.49-.76-.9-1.16-1.31zm-1.23-1.19l1.23 1.19c-.38-.47-.79-.86-1.21-1.25zm-1.29-1.12l1.29 1.12c-.4-.46-.83-.82-1.27-1.18zm-1.34-1l1.34 1c-.41-.42-.86-.77-1.32-1.11zm-1.4-1l1.4 1c-.43-.45-.86-.77-1.38-1.08zm-1.45-.9l1.45.9c-.46-.4-.94-.69-1.46-.98zm-1.52-.81l1.52.81c-.48-.36-1.01-.63-1.5-.89zm-1.58-.73l1.58.73c-.49-.34-1.03-.58-1.56-.81zm-1.65-.63l1.65.63c-.52-.3-1.07-.52-1.63-.71zm-1.71-.54l1.71.54q-.82-.38-1.69-.62zm-1.77-.44l1.77.44c-.55-.24-1.15-.39-1.75-.52zm-1.85-.33l1.85.33c-.59-.21-1.2-.29-1.78-.41zm-1.91-.23l1.91.23c-.6-.18-1.24-.25-1.93-.31zm-718.59-153l.08.84c0-.29-.03-.57-.06-.88zm-.12-1l.12 1c-.01-.34-.05-.67-.1-1.01zm-.15-1.1l.15 1.1c-.02-.36-.07-.73-.13-1.11zm-.19-1.2l.19 1.2c-.03-.4-.1-.8-.16-1.21zm-.24-1.25l.24 1.25c-.05-.43-.13-.84-.22-1.26zm-.28-1.31l.28 1.31c-.06-.44-.16-.88-.26-1.32zm-.34-1.32l.34 1.32c-.09-.45-.2-.87-.32-1.33zm-.39-1.28l.39 1.28c-.11-.44-.23-.86-.37-1.29zm-.47-1.3l.45 1.25c-.12-.44-.27-.85-.43-1.22zm-.53-1.22l.53 1.22c-.15-.43-.32-.84-.51-1.23zm-.6-1.13l.6 1.13c-.17-.4-.37-.75-.58-1.14zm-.67-1l.67 1a10.56 10.56 0 00-.65-1.03zm-.75-.88l.75.88a9.36 9.36 0 00-.73-.91zm-.83-.72l.83.72a6.9 6.9 0 00-.81-.74zm-.92-.53l.92.53a5.33 5.33 0 00-.87-.56zm-1-.32l1 .32a5.16 5.16 0 00-.95-.35zm-417.84 73.34v-1zm0 1v-1c.01.32 0 .67 0 1.01zm-616 176.2l-1.34-2.2zm1.37 2.22l-1.37-2.22c.4.75.89 1.49 1.32 2.23zm1.4 2.23l-1.4-2.23zm1.43 2.23l-1.43-2.23c.42.75.89 1.5 1.38 2.24zm1.45 2.24l-1.45-2.24c.42.76.91 1.51 1.4 2.25zm1.48 2.24l-1.48-2.24c.44.76.93 1.51 1.43 2.25zm1.5 2.24l-1.5-2.24zm1.54 2.23l-1.54-2.23c.46.75.97 1.5 1.49 2.24zm1.55 2.22l-1.55-2.22zm1.59 2.21l-1.59-2.21c.48.75 1 1.44 1.54 2.22zm1.6 2.19l-1.6-2.19zm1.63 2.17L1311 1742c.51.7 1.06 1.42 1.6 2.14zm1.66 2.15l-1.66-2.15c.5.73 1.05 1.45 1.61 2.16zm1.67 2.13l-1.67-2.13zm1.7 2.09l-1.7-2.09c.52.71 1.08 1.41 1.65 2.1zm1.73 2.06l-1.73-2.06c.52.7 1.1 1.39 1.68 2.07zm1.74 2l-1.74-2c.52.69 1.1 1.36 1.69 2.03zm1.76 2l-1.76-2c.53.7 1.12 1.36 1.71 2.02zm1.79 1.94l-1.79-1.94c.55.67 1.14 1.32 1.74 1.96zm1.81 1.9l-1.81-1.9c.55.66 1.15 1.29 1.76 1.92zm1.82 1.84l-1.82-1.84c.55.6 1.16 1.26 1.77 1.86zm1.85 1.8l-1.85-1.8c.56.63 1.18 1.23 1.8 1.82zm1.86 1.74l-1.86-1.74c.56.61 1.19 1.19 1.82 1.76zm1.88 1.68l-1.88-1.68c.57.59 1.2 1.15 1.83 1.7zm1.9 1.61l-1.9-1.61c.58.54 1.21 1.1 1.85 1.63zm1.92 1.55l-1.92-1.55c.59.55 1.23 1.07 1.87 1.57zm-49.23-63.83l56.26 45.85zm457.08-123.35l.69 1.76c-.28-.6-.52-1.2-.74-1.74zm-.65-1.56l.65 1.56c-.27-.53-.49-1.05-.7-1.54zm-.61-1.36l.61 1.36c-.25-.46-.46-.88-.66-1.34zm-.6-1.2l.6 1.2q-.33-.62-.65-1.18zm-.61-1l.61 1c-.25-.32-.45-.7-.66-1.02zm-.62-.91l.62.91a9.05 9.05 0 00-.67-.93zm-.65-.8l.65.8c-.26-.31-.5-.57-.7-.82zm-.71-.69l.71.69c-.28-.26-.51-.49-.76-.71zm-.76-.62l.76.62c-.29-.24-.55-.44-.81-.64zm-.85-.56l.85.56c-.32-.21-.61-.4-.9-.58zm-1-.51l1 .51zm-1.06-.49l1.06.49zm-1.18-.48l1.18.48zm-1.33-.49l1.33.49zm-1.48-.52l1.48.52zm34.58 68.72l.2.5.45 1.11zm-4.34-10.88l.59 1.48.4 1zm25.47 191.07l-2.47 6.55-2.72 6.29-2 4.12c16.45-8.31 32.33-29.48 43.69-47.56l-.31-.76-1.07-2.64-1.06-2.63-1.07-2.64-1.06-2.63-1.06-2.64-1.06-2.64-1.05-2.64-1-2.64-1.06-2.64-1-2.64-1-2.64-1.05-2.64-1-2.65-1-2.64-1-2.65-1-2.65-1-2.64-1-2.65-1-2.65-1-2.65-1-2.66-1-2.65-1-2.65-.55-1.41-.52-1.24-.49-1.1-.48-1-.49-.83-.49-.73-.53-.63-.56-.56-.62-.49-.68-.45-.75-.41-.85-.39-.94-.38-1.06-.4-1.19-.41-1.33-.46-9.19-3.15 8.32 20.35.92 2.31.86 2.34.8 2.36.74 2.37.68 2.4.62 2.4.57 2.43.51 2.44.45 2.46.4 2.47.34 2.48.28 2.5.24 2.5.18 2.52.12 2.53.08 2.53v5.09l-.08 2.56-.12 2.56-.18 2.57-.23 2.57-.1 1-.11 1-.11 1-.12 1-.13 1-.14 1-.15 1-.15 1-.16 1-.17 1-.17 1-.18 1-.19 1-.2 1-.2 1-.21 1-.22 1-.23 1-.23 1-.24 1-.25 1-.26 1-.26 1-.27 1-.28 1-.28 1-.29 1-.3 1-.31 1-.31 1-.33 1zm547.88-98.44l18.57-34.24-18.57 34.23zm37.59 193.11l-.13 1.51c.05-.5.09-1.01.13-1.53zm.08-1.64l-.08 1.64c.03-.55.06-1.1.08-1.66zm0-1.72v1.72c.02-.58.04-1.19.04-1.74zm0-1.79v1.79c.05-.61.06-1.21.06-1.81zm0-1.85v1.85c.06-.63.05-1.25.04-1.87zm0-1.87v1.87c.03-.64.02-1.27 0-1.89zm-.06-1.88l.06 1.88zm-.08-1.87l.08 1.87c-.03-.65-.05-1.27-.08-1.89zm-.2-3.6l.1 1.77c-.03-.62-.07-1.21-.1-1.79zm229.88 7.59l23.82-16.2-23.82 16.23zm17.89 1.58l20-13.19-20 13.19zm271.08 217.91l-3.05-.7-3-.75-2.92-.8-2.86-.86-2.8-.91-2.74-1-2.68-1-2.61-1.08-2.56-1.14-2.5-1.2-2.43-1.26-2.37-1.32-2.31-1.38-2.25-1.45-2.19-1.51-2.13-1.57-2.07-1.64-2-1.7-1.94-1.78-1.88-1.84-1.82-1.9-1.76-2-1.69-2-1.63-2.12-1.57-2.2-1.38-2.06-37.76 10-1.63.42-1.65.37-1.66.33-1.67.28-1.68.23-1.69.19-1.69.15-1.71.11-1.7.07h-5.14l-1.71-.07-1.71-.1-1.71-.13-1.71-.17-1.7-.19-1.69-.21-1.68-.25-1.68-.26-1.67-.29-1.78-.33-1.79-.35-1.78-.37-1.77-.38-1.77-.41-1.77-.42-1.76-.45-1.75-.46-1.75-.48-1.74-.5-1.74-.52-1.72-.54-1.72-.56-1.72-.58-1.7-.59-1.69-.62-1.68-.64-1.68-.65-1.66-.68-1.66-.69-1.64-.71-1.63-.74-1.62-.75-1.6-.77-1.57-.79-9.27 2.91-29.85-5.05-1.63-.27-1.63-.28-1.63-.27-1.64-.27-1.63-.26-1.63-.27-1.63-.26-1.63-.26-1.64-.26-1.63-.26-1.63-.26-1.64-.25-1.63-.26-1.63-.25-1.64-.25-1.63-.25-1.64-.25-1.63-.24-1.63-.25-1.64-.24-1.64-.25-1.63-.24-1.64-.24-1.63-.24-1.64-.24-1.63-.24-1.59-.27-1.63-.23-1.64-.24-1.64-.23-1.63-.24-1.56-.22h-.07L2520.25 2061l-.68-3.92-.66.33-.67.32-.67.32-.69.3-.68.29-.7.28-.7.26-.71.25-.72.24-.72.23-.73.21-.74.2-.73.19-.75.17-.75.16-.76.15-.76.14-.76.12-.77.1-.78.1-.77.08-.79.07h-6.35l-.81-.07-.8-.07-1.63-.2-1.62-.26-1.62-.31-1.61-.37-1.6-.42-1.59-.47-1.57-.52-1.55-.58-1.54-.62-1.52-.68-1.49-.72-1.47-.77-1.45-.82-1.41-.86-1.39-.92-1.35-.95-1.31-1-.58-.47-11.42 6.47-25.61-2.32-4-.37-4-.35-4-.36-4-.35-4-.34-4-.34-4-.34-4-.34-4-.33-4-.33-4-.32-4-.33-4-.32-4-.31-4-.32-4-.31-4-.31-4-.31-4-.31-4-.3-4-.3-4-.3-4-.3-4-.3-4-.3-4-.3-4-.29-4-.3-4-.29-4-.29-4-.3-4-.29-18.32-1.34-4.09-47.56 21.38-25.37v-.27l-.18-2-.18-2-.18-2-.17-1.95-.18-2-.18-2-.18-2-.17-2-.18-1.95-.17-2-.18-2-.18-2-.17-2-.18-2-.18-1.95-.17-2-.18-2-.17-2-.18-2-.17-1.95-.18-2-.17-2-.18-2-.18-2-.17-2-.17-1.95-.18-2-.17-2-.18-2-.18-2-20.12-.58-3.08-.09-3.09-.09-3.08-.09-3.08-.09-3.09-.09-3.08-.09-3.09-.09-3.08-.09-3.08-.09-3.09-.09-3.08-.09-3.08-.09-3.09-.1-3.08-.09-3.09-.09-3.08-.09-3.08-.09-3.09-.09-3.32.99-3.08-.1-3.09-.09-3.08-.09-3.08-.09-3.09-.09-3.08-.09-3.09-.09-3.08-.09-3.08-.1-3.09-.08-3.08-.1-3.08-.09-3.09-.09-19.88-.57-.08-1.55-1.27.33-1.28.33-1.28.31-1.29.3-1.29.29-1.29.27-1.29.27-1.3.26-1.3.24-1.3.23-1.3.23-1.3.21-1.31.2-1.31.19-1.31.18-1.31.16-1.31.16-1.31.14-1.32.14-1.31.12-1.32.11-1.32.1-1.32.1-1.32.08-1.32.07-1.32.06h-7.92l-4.77-.09-4.8-.19-4.83-.31-4.83-.43-4.83-.55-4.82-.68-4.79-.81-4.75-.94-4.7-1.09-4.63-1.23-4.56-1.39-4.47-1.53-4.35-1.53-4.26-1.86-4.12-2-4-2.21-3.84-2.38-3.68-2.56-3.51-2.76-3.32-2.94-3.12-3.14-2.91-3.34-2.69-3.55-2.45-3.75-2.21-4-1.94-4.19-1.67-4.41-1.39-4.64-1.09-4.88-.78-5.11-.46-5.36-1.22-43.85-.91 1.82-1.29 2.6-1.29 2.6-1.29 2.6-1.29 2.6-1.28 2.6-1.29 2.6-1.29 2.6-1.3 2.63-1.31 2.64-1.3 2.63-1.31 2.64-1.3 2.63-1.31 2.63-1.31 2.64-1.31 2.63-1.31 2.63-1.31 2.63-1.34 2.58-1.32 2.63-1.31 2.63-1.32 2.63-1.32 2.62-1.33 2.63-1.32 2.62-1.33 2.63-1.33 2.62-1.34 2.62-1.33 2.61-1.34 2.62-1.35 2.61-1.34 2.62-1.36 2.61-1.35 2.61-1.36 2.61-1.36 2.6-1.37 2.6-1.37 2.6-1.38 2.6-1.38 2.6-2.94 5.48-3 5.49-3 5.48-3.09 5.47-3.16 5.43-3.21 5.4-3.29 5.34-3.37 5.28-3.44 5.21-3.54 5.13-3.62 5-3.72 4.93-3.83 4.81-3.93 4.68-4 4.54-4.16 4.4-4.29 4.23-4.42 4.07-4.55 3.88-4.69 3.69-4.83 3.49-5 3.27-5.14 3-5.3 2.81-5.47 2.56-5.64 2.3-5.81 2-6 1.75-6.18 1.47-6.38 1.16-6.57.85-6.77.52-1.36.07-1.37.06H1798.62l-1.4-.06-1.4-.07-1.4-.09-1.4-.1-1.41-.12-1.39-.13-1.4-.15-1.4-.16-1.39-.19-1.38-.2-1.39-.22-1.38-.24-1.37-.25-1.36-.28-1.36-.29-1.35-.32-1.35-.33-1.33-.36-1.33-.38-1.32-.4-1.3-.42-1.3-.44-13-4.58-66.51-73.25-1.65-17.09-.39-4-2.05.75-6.38 2.13-6.44 2-6.49 1.79-6.54 1.61-6.57 1.45-6.59 1.29-6.6 1.12-6.61 1-6.59.8-6.58.65-3 .25-3.06.21-3.09.18-3.11.15-3.13.11-3.16.07h-6.35l-3.2-.06-3.21-.1-3.21-.15-3.22-.2-3.22-.25-3.22-.3-3.21-.35-3.21-.41-3.2-.47-3.18-.53-3.18-.58-3.15-.65-3.14-.71-3.11-.78-3.09-.85-3.06-.91-3-1-3-1.06-3-1.12-2.93-1.21-2.88-1.28-2.84-1.36-2.79-1.44-2.75-1.52-.14.75-.14.74-.14.74-.15.74-.14.74-.14.73-.14.75-.12.74-2.59 16.29-16.4 1.75-2.25.24-2.26.24-2.25.24-2.25.25-2.25.25-2.26.25-2.25.25-2.25.25-2.25.25-2.25.26-2.25.26-2.26.25-2.25.26-2.25.26-2.25.27-2.25.26-2.25.27-2.25.26-2.25.27-2.25.27-2.25.27-2.25.27-2.25.27-2.24.28-2.25.28-2.25.27-2.25.28-2.25.28-2.25.28-2.25.29-2.24.28-2.25.28-1.91.24-1.92.24-1.93.22-1.93.21-1.93.2-1.94.18-2 .17-1.94.16-2 .13-2 .11-1.95.09-2 .07H1397.21l-1.94-.09-1.94-.11-1.93-.16-1.93-.19-1.92-.23-1.91-.27-1.91-.32-1.9-.36-1.89-.41-1.88-.45-1.87-.51-1.86-.55-1.85-.61-1.84-.67-1.64-.82-1.81-.78-2.32-1.1-2.26-1.18-87.88-48.57-.29 1-.62 2.26-.11.42-.12.46-.14.49-.14.53-.16.57-.16.6-.16.62-.18.66-.18.69-.18.7-.19.74-.2.75-.19.77-.2.8-.2.8-.21.82-.2.84-.2.84-.2.85-.15.63 18.85 9.94-5.69 26.58-.14.61-.13.6-.13.61-.13.6-.14.61-.14.6-.13.6-.15.6-.14.61-.15.6-.15.6-.16.6-.16.6-.16.6-.16.59-.18.6-3.82 13.08-13.45 2.15-4.19.68-4.2.68-4.19.67-4.2.69-4.19.68-4.19.69-4.19.69-4.2.69-4.19.7-4.19.69-4.19.7-4.19.7-4.19.7-4.19.71-4.19.7-4.19.71-4.19.71-4.19.71-4.19.71-4.19.71-4.19.71-4.19.71-4.18.72-4.19.71-4.19.72-4.19.71-4.19.72-4.19.71-4.18.72-4.19.72-4.19.71-4.19.72-33.37 5.7-231.28-76.59 11.21-40.8c1-3.57 2.18-7.08 3.15-10.64l3.91-14.51 14.4-4.29a34 34 0 007.09-2.84c12.43-7.12 22.74-43.13 26.44-55.47 13.7-45.7 27.07-91.5 40.89-137.17s27.34-91.25 40.82-136.93c1.32-4.48 4.51-15.32 6.9-25.55l-19.44-15.74 8-29.08c1-3.57 2.19-7.07 3.15-10.63l5.26-19.54 20.23-.39q66.72-1.26 133.44-2.44c44.9-.76 100.41 6 131.54 41.87l101 118.88c41.91-40.69 100.54-63.84 163.76-65.91 52.06-1.71 110.23 10.69 145.25 52.36l4.37-51.29 24.19-.52c48.11-1.05 96.23-1.75 144.34-2.45l27.33-.4 14.27 104.06q4.53-9.21 8.95-18.46l-3.77-31.16 1.92-21.85c.17-2 .14-4 .14-6v-26.81l26.81-.12q45.36-.21 90.73-.56l27.12-.19v10.58c7-2.25 14-4.33 21.45-6.16a304.91 304.91 0 0174.66-8.91c37.16.25 70.71 5.88 97.11 20.22l33.7-105.31 19.43-7.22c32.17-12 64.28-24 96.24-36.52l4.73-1.85h39.61l2.75 23.85q.78 6.81 1.57 13.63l13 .11c47.43.42 94.85.77 142.27 1.33l20.89.25 5 20.29c.89 3.67 1.52 7.36 2.13 11.08l4.48 27.5-21.74 28.53c.25 1.61.46 3 .63 4l.16 1 70.46-91.78 146.57 2 13.4 59L2846 1493c1.15 6.14 2.38 11.74 3 14.58 4.54 20.39 8.93 40.82 13.39 61.23l20.41-7.39q47.63-17.22 94.79-35.67l5.48-2.14 5.88.33c3.8.22 7.6.49 11.41.7l19.86 1.06 4.73 18.92c15.73-7.73 34.47-10.51 54.16-9.12a140.26 140.26 0 0160.34 18l12.64 7.16 1 14.5q3.28 49.71 5.89 99.47l2 38.67-79.34 41.14q3.12 11.25 6.19 22.52c3.15 11.66 11.67 44.44 23 51.55a35.08 35.08 0 008.72 3.56l15.5 4.52 3.33 15.8c.72 3.43 1.69 6.81 2.42 10.24l8.36 39-2.75 1 5.52 21.57-1.36 6.25c-1.13 5.15-1.81 10.46-2.72 15.66l-4.77 27.22-23.64 7 1.09 4.15 31.78 10.19c1.83.59 3.67 1.18 5.52 1.7l17.75 5.07 1.68 18.37a104 104 0 01.31 21c-2.65 24.53-17.3 38.39-37 42.29l-223.79 44.23-2.18.38-2.22.27-2.27.18-2.3.08h-2.35l-2.38-.11-2.41-.21-2.44-.31-2.47-.4zm-6.49-505.34l1 .33c-.31-.14-.65-.25-1-.35z" transform="translate(-801.89 -183.03)"/><path class="cls-15" d="M1142.67 1484.06c50.17-1 67 22.85 54.82 72-14.44 58.07-61.91 92-101.32 99q11.76-42.68 23.25-85.47c7.71-28.48 15.67-57.09 23.25-85.6M1265 1720.12c-20.07-37.67-42.1-70.1-59.47-78.13 38.18-16.15 79.56-53.09 89.08-96.09 15.2-68.67-27.66-105.32-123.59-103.7-44.78.75-89.08 1.6-133.38 2.44-1 3.64-2.2 7.2-3.18 10.76 17.87 2.8 21 14.53 4.41 70.86q-20.22 68.55-40.87 137.11c-13.84 45.74-27.19 91.47-40.87 137.11-16.91 56.39-28.64 69.53-51.64 76.38-1 3.63-2.2 7.2-3.18 10.76 56-9.57 112.08-19.22 167.88-28.16 1-3.35 1.72-6.71 2.45-10.13-22 .42-26.58-9.83-11.75-64.08 10.37-37.93 20.56-75.9 30.84-113.91 3.43-.28 6.61-.62 10.52-1 28.39-2.64 34.75 15.23 65.83 94.9 27.9 66.18 52.13 72.52 108.66 65.34 30.35-3.86 60.45-7.41 90.55-10.62.49-3.08 1.23-6.15 1.72-9.3-26.39-1.52-59.19-14.02-104.01-90.54zM1547.45 1769.52c-55.79 9-77.82-28.44-78.31-82.11-.24-53.81 22-103.28 70.73-110.13 52.86-6.71 72.68 31.72 74.89 83.51 3.18 52.69-11.75 99.86-67.31 108.73m20.32-232.52c-108.18 3.55-181.42 70.35-197.74 155.34-17.7 92.09 53.27 126.09 146.59 118 116.91-10.18 188.64-72.87 196.27-151.78 8.28-85.56-59.72-124.34-145.12-121.56zM1960.8 1534.37c0 2.8 0 5.59-.24 8.39 9.79 2.93 21 10.83 14.93 28.23-19.09 40.32-38.91 80.64-58.74 121.1-16.15-38.29-31.81-76.45-46.74-114.88-8.57-22.78 6.12-29.56 15.17-33.69 0-2.79.25-5.59.25-8.38-48 .7-95.94 1.4-144.15 2.44-.24 2.87-.49 5.74-.73 8.6 11 3.77 22.27 7 30.83 29.42 13.46 35.15 27.54 70.21 41.85 105s29.86 69.33 45.52 103.78c.73 0 1-.07 1.71-.07-22.76 41.79-53.11 82.45-89.57 84.34-34.76 1.81-45.76-17.89-50.66-30.68-4.4 1.19-8.81 2.31-13.21 3.43 2.2 25.37 4.65 50.8 7.1 76.1 9.3 3.28 23.72 5.91 44.54 4.82 76.59-4 117-69 155.64-139.83 17.62-34.73 35.67-69.37 52.87-104.12 17.07-34.5 34.26-69.26 50.65-103.78 12.24-26.76 22.52-28.79 33.78-32.35v-8.39c-30.35.21-60.45.42-90.8.56M2171.76 1746.81c-28.88-.13-50.78-11.68-53.6-35.92s14.69-45.9 93.49-45.14h2.45c.73 22.85 1.71 45.7 2.69 68.48-9.79 8.18-26.68 12.66-45 12.58m138-27.6q-3.16-46.67-6.37-93.44c-5.43-78.42-60-96.17-129-96.64-53.35-.37-93.24 15.58-104.74 19.5V1601c2.93 0 5.87 0 8.81.07 9.79-13.35 37.93-37.55 76.11-37.32 56 .33 56.94 41 57.75 60.38q.26 6 .25 12c-102.54.21-180.11 12.5-180.61 77.22-.48 60.79 65.34 72.09 109.15 72.39 35.73.25 61.67-9.85 77.09-18.24.24 4.83.49 9.65.73 14.4 40.87 1.19 82.23 2.45 123.35 3.63-.25-2.79-.49-5.59-.74-8.52-20.77-3.16-28.75-12.88-31.78-57.8zM2498.72 1895.38q-14.4-124.2-28.39-248.43c-9.3-82.84-19.34-165.62-28.88-248.5h-10.52c-31.82 12.44-64.12 24.6-96.67 36.69.24 2.51.49 5 .73 7.54 8.08 1.54 26.63 8.74 29.37 40.54 5.83 67.65 12.12 135.28 18.11 202.86s12 135.3 18.11 202.8c4.14 45.42-2.94 54.44-24.72 55.35.25 2.86.49 5.73.74 8.52 53.59 3.91 106.94 7.83 160.78 12.72-.24-2.87-.73-5.8-1-8.74-23.25-5-32.36-15.36-37.69-61.35" transform="translate(-801.89 -183.03)"/><path class="cls-16" d="M2738.55 1438.7c.49 3.15 1.23 6.22 1.72 9.37 19.82 3.14 28.87 13.76 39.15 63.8 6.61 32.14 13.23 64.41 20.07 96.43s13.87 64.24 20.56 96.3c12.64 60.61-18.33 83.06-75.62 77.36-67-6.67-97.63-45.71-105.73-95.46q-7.3-45-14.44-90.08-7.14-44.94-14.44-90.07c-7.64-47.58-2.44-57.52 16.65-60-.49-3-1-6-1.72-9-47.23-.55-94.71-.9-142.18-1.32.48 2.93.73 5.87 1 8.73 20.07 2.87 28 12.7 34.27 59.33 3.56 26.68 7 53.41 10.52 80s7.19 53.3 10.77 79.94c11.34 84.33 68.31 143.33 200.19 156.6 50.68 5.11 153 4.95 124.07-124.66-6.78-30.42-13.7-60.82-20.55-91.2s-13.28-60.91-20.07-91.33c-11.32-50.78-6.85-61.29 11.5-63.81-.73-3.21-1.47-6.43-2.2-9.71l-93.49-1.26M3077.26 1562.39c-40.63-2.85-58.49 15.45-65.35 36.06-4.65-15.58-9-31.24-13-46.89-3.91-.21-7.83-.49-11.5-.7q-47.36 18.56-95.44 35.92c.49 2.87 1.22 5.73 2 8.6 8.56 2.37 29.95 11.92 38.91 48.49 10.37 42.33 20.9 84.68 31.32 127.05 12.83 52.18 7.59 62-13.7 61.56.73 3.29 1.47 6.5 2.2 9.72 53.6 8.31 107.44 16.63 161.77 26.06-.74-3.42-1.72-6.84-2.45-10.34-24.23-7.06-35.52-19.84-50.17-73.93-10.8-39.9-21.54-80-32.3-120.06-5.88-29.28-1.72-55.82 28.87-53.11 35.73 3.16 50.91 34.24 57.76 60.31 5.63 1.67 10.77 3.28 15.91 4.89q-2.58-49.27-5.88-99.09a112.86 112.86 0 00-48.94-14.54" transform="translate(-801.89 -183.03)"/><g clip-path="url(#clip-path)"><path fill="url(#linear-gradient)" d="M2091.83 1376.15h237.91v308.73h-237.91z"/></g><g clip-path="url(#clip-path-2)"><path fill="url(#linear-gradient-2)" d="M1681.62 1261.34h384.84v381.18h-384.84z"/></g><g clip-path="url(#clip-path-3)"><path fill="url(#linear-gradient-3)" d="M1533.96 1223.73h200.59v558.62h-200.59z"/></g><g clip-path="url(#clip-path-4)"><path fill="url(#linear-gradient-4)" d="M1230.24 1354.05h309.48v248.84h-309.48z"/></g><g clip-path="url(#clip-path-5)"><path fill="url(#linear-gradient-5)" d="M905.84 1359.09h343.87v381.25H905.84z"/></g><g clip-path="url(#clip-path-6)"><path fill="url(#linear-gradient-6)" d="M565.5 1359.71h346.1v274.74H565.5z"/></g><g clip-path="url(#clip-path-7)"><path fill="url(#linear-gradient-7)" d="M103.08 1266.11h462.55v438.03H103.08z"/></g><path d="M3121.31 1941.43c1-5.59 1.71-11.18 2.94-16.77-.25-.91-.49-1.89-.74-2.87-16.88-3.35-33.53-6.64-49.68-9.36-3.91-13.35-7.1-26.7-10.77-40-1.71-.28-3.18-.56-4.89-.84-13 2.79-25.94 5.52-38.67 8.17 2 8.25 3.92 16.36 6.12 24.53-6.61-1.12-13-2.16-19.33-3.28-1.72 5.45-3.19 10.76-4.65 16.21a9.85 9.85 0 01.49 2.66c9.54 1.74 19.33 3.35 28.87 5.1 5.39 22.5 11.15 45 16.89 67.5 10.65 41.68 36.31 56.39 69 63.53 37.79 8.24 34.76-20.41 33.53-33.76-2.2-.63-4.4-1.32-6.36-2 0 6.91-1.92 18.75-19.58 14.88-17.09-3.74-22.37-14.93-27.41-34-6-22.55-11.75-45.21-17.86-67.79 13.7 2.38 27.9 5.18 42.09 8m-167.64 4.19c-18.84-2.93-37.2-5.8-56-8.66-3.92-19.22-.25-34 18.35-32.85 22.49 1.35 34.23 23.64 37.66 41.6zM2917.2 1884c-49.4-7.15-75.3 16.08-66.81 57.3 9.38 45.51 50.74 72.19 100.1 81.06 44.37 8 54.57-13.2 54.82-29.42-2.21-.84-3.92-1.6-6.12-2.44-5.38 11.32-15.37 16.16-38.67 12-28.1-5-46.74-23.06-57-47.59 33 5.24 66.32 10.83 100.09 17.26-7.61-51.35-46.97-82.48-86.41-88.17zm-90.79 81.9c-3.11-15.25-6-30.41-9-45.63-7.77-39.36-37.69-55.2-65.59-58.36-22.76-2.57-34 5.8-40.14 14.47-1-7.2-2.45-14.4-3.67-21.59-2-.21-3.92-.49-5.87-.7q-25.7 6.18-51.4 12c.25 1.32.49 2.51.74 3.77 4.16 1.26 14.87 5.77 17.37 21.46 2.89 18.07 5.25 36.29 8.32 54.43 3.78 22.32.74 26.49-9.78 26.28.24 1.47.49 2.79.73 4.19 25.7 3.57 51.64 7.2 77.33 10.76-.24-1.46-.48-2.86-.73-4.33-11.26-2.79-16-8.1-19.82-30.68-2.74-16-5.63-32-8.32-48-1-13.13 6.35-24.71 21.78-22.92 16.38 1.91 27.7 11.6 31.57 32.92 2.74 15.08 5.41 30 8.32 45.07 4.43 22.85 1.71 27.25-8.81 27a26 26 0 00.73 4.34c25.7 3.63 51.39 7.34 77.83 11.81a31.08 31.08 0 00-1-4.41c-11.29-3.17-15.87-8.78-20.59-31.89zm-215.36-31.8c-13.71-1.36-23.6 6.34-22 17.26 1.61 11.23 13.95 21.18 27.9 22.65s24-6.16 22.27-17.48c-1.72-11.05-14.47-21.08-28.17-22.44z" transform="translate(-801.89 -183.03)" fill="#f5f5f5" fill-rule="evenodd"/><path class="cls-3" d="M971.58 1460.21c-25.26-35.63-57.21-64.47-94.37-88.18L843 1350.21l39.59-8.9 41.95-9.44 13.65-3.06 5.56 12.83c2.4 5.53 7 13 14 12.17 3-.36 7.69-2.89 8.38-6.14.35-1.6-1.77-3.57-2.85-4.49l-9.36-8 4.72-11.37c3.66-8.79 6.26-18.22 8.93-27.35l3.73-12.79 13.31.65a80.24 80.24 0 018.74 1.23c4.19.67 8.38 1.32 12.59 1.88s8.17 1.09 12.26 1.23l14.2.46 2 14c.31 2.25 1.55 8.5 4.64 8.61a6 6 0 005-3.09c2.17-4-.88-9.89-3.09-13.22l-5.66-8.48 19.08-35 7.87-14.5 50.2 25.75.1 10.21c0 4 .86 10.6 4.89 12.66a6 6 0 005.92-.29c2.48-1.83 0-7.69-1-9.73l-6.27-12.73 11.47-8.38a120.76 120.76 0 009.45-7.93c3.15-2.83 6.25-5.73 9.34-8.64a79.84 79.84 0 016.53-5.94l10.62-8 10.29 8.46c7.35 6 14.81 12.38 22.78 17.58l10.31 6.73-3.25 11.87c-.37 1.37-1 4.19.18 5.31 2.4 2.3 7.67 1.78 10.38.35 6.25-3.27 5.82-12 4.69-17.91l-2.64-13.74 13-5.15 40-15.83 37.73-14.94-16 37.3c-17.12 40-27.25 81.24-28.29 124.28l3-.43 8.88-1.26 6 6.65c13.53 15 25.85 54.17 22.71 74.13l-2 12.39-12.42 1.71c-97.15 13.41-191 39.13-277.78 85.57l-12.53 6.7-8.75-11.2c-14-17.94-29-53.45-21.21-76.08l2.18-6.29z" transform="translate(-801.89 -183.03)"/><g clip-path="url(#clip-path-8)"><path fill="url(#linear-gradient-8)" d="M84.4 1054.77h389.11v228.7H84.4z"/></g><path class="cls-3" d="M1275.88 1377.93c12.23 13.53 24 50.87 21.15 68.9l-1.22 7.76-7.78 1.07c-98 13.54-192.25 39.36-279.89 86.26l-7.84 4.19-5.48-7c-12.63-16.16-27.24-49.81-20.22-70.13l1.4-3.98 3.69-2c89.6-47.48 186.8-74.29 286.9-88.53l5.56-.79z" transform="translate(-801.89 -183.03)"/><g clip-path="url(#clip-path-9)"><path fill="url(#linear-gradient-9)" d="M177.28 1202h309.85v147.57H177.28z"/></g></svg>